<mxfile host="app.diagrams.net" modified="2020-12-22T18:59:10.878Z" agent="5.0 (X11; Linux x86_64) AppleWebKit/537.36 (KHTML, like Gecko) Chrome/87.0.4280.88 Safari/537.36" etag="i3JVPQfYhZ_sMgO5BaK2" version="14.1.1" type="github">
  <diagram id="Yi0kWhva0t7QyYPgoJ5Y" name="Page-1">
    <mxGraphModel dx="1137" dy="672" grid="1" gridSize="10" guides="1" tooltips="1" connect="1" arrows="1" fold="1" page="1" pageScale="1" pageWidth="827" pageHeight="1169" math="0" shadow="0">
      <root>
        <mxCell id="0" />
        <mxCell id="1" parent="0" />
        <mxCell id="5OfcqYkC_HGEx2gyaxZB-5" style="edgeStyle=orthogonalEdgeStyle;rounded=0;orthogonalLoop=1;jettySize=auto;html=1;endArrow=none;endFill=0;dashed=1;fillColor=#dae8fc;strokeColor=#6c8ebf;" parent="1" source="5OfcqYkC_HGEx2gyaxZB-2" target="5OfcqYkC_HGEx2gyaxZB-4" edge="1">
          <mxGeometry relative="1" as="geometry" />
        </mxCell>
        <mxCell id="5OfcqYkC_HGEx2gyaxZB-2" value="User" style="html=1;verticalLabelPosition=bottom;align=center;labelBackgroundColor=#ffffff;verticalAlign=top;strokeWidth=2;strokeColor=#0080F0;shadow=0;dashed=0;shape=mxgraph.ios7.icons.user;" parent="1" vertex="1">
          <mxGeometry x="350" y="80" width="50" height="50" as="geometry" />
        </mxCell>
        <mxCell id="5OfcqYkC_HGEx2gyaxZB-12" style="edgeStyle=orthogonalEdgeStyle;rounded=0;orthogonalLoop=1;jettySize=auto;html=1;entryX=0.5;entryY=0;entryDx=0;entryDy=0;dashed=1;endArrow=classic;endFill=1;fillColor=#dae8fc;strokeColor=#007FFF;" parent="1" source="5OfcqYkC_HGEx2gyaxZB-4" target="5OfcqYkC_HGEx2gyaxZB-7" edge="1">
          <mxGeometry relative="1" as="geometry">
            <Array as="points">
              <mxPoint x="375" y="240" />
              <mxPoint x="201" y="240" />
            </Array>
          </mxGeometry>
        </mxCell>
        <mxCell id="5OfcqYkC_HGEx2gyaxZB-13" style="edgeStyle=orthogonalEdgeStyle;rounded=0;orthogonalLoop=1;jettySize=auto;html=1;entryX=0.5;entryY=0;entryDx=0;entryDy=0;dashed=1;endArrow=classic;endFill=1;fillColor=#dae8fc;strokeColor=#007FFF;" parent="1" source="5OfcqYkC_HGEx2gyaxZB-4" target="5OfcqYkC_HGEx2gyaxZB-10" edge="1">
          <mxGeometry relative="1" as="geometry">
            <Array as="points">
              <mxPoint x="375" y="240" />
              <mxPoint x="295" y="240" />
            </Array>
          </mxGeometry>
        </mxCell>
        <mxCell id="5OfcqYkC_HGEx2gyaxZB-14" style="edgeStyle=orthogonalEdgeStyle;rounded=0;orthogonalLoop=1;jettySize=auto;html=1;dashed=1;endArrow=classic;endFill=1;fillColor=#dae8fc;strokeColor=#007FFF;" parent="1" source="5OfcqYkC_HGEx2gyaxZB-4" target="5OfcqYkC_HGEx2gyaxZB-9" edge="1">
          <mxGeometry relative="1" as="geometry" />
        </mxCell>
        <mxCell id="5OfcqYkC_HGEx2gyaxZB-15" style="edgeStyle=orthogonalEdgeStyle;rounded=0;orthogonalLoop=1;jettySize=auto;html=1;dashed=1;endArrow=classic;endFill=1;fillColor=#dae8fc;strokeColor=#007FFF;" parent="1" source="5OfcqYkC_HGEx2gyaxZB-4" target="5OfcqYkC_HGEx2gyaxZB-8" edge="1">
          <mxGeometry relative="1" as="geometry">
            <Array as="points">
              <mxPoint x="375" y="240" />
              <mxPoint x="455" y="240" />
            </Array>
          </mxGeometry>
        </mxCell>
        <mxCell id="5OfcqYkC_HGEx2gyaxZB-16" style="edgeStyle=elbowEdgeStyle;rounded=0;orthogonalLoop=1;jettySize=auto;html=1;entryX=0.5;entryY=0;entryDx=0;entryDy=0;dashed=1;endArrow=classic;endFill=1;elbow=vertical;fillColor=#dae8fc;strokeColor=#007FFF;" parent="1" source="5OfcqYkC_HGEx2gyaxZB-4" target="5OfcqYkC_HGEx2gyaxZB-11" edge="1">
          <mxGeometry relative="1" as="geometry">
            <Array as="points">
              <mxPoint x="480" y="240" />
            </Array>
          </mxGeometry>
        </mxCell>
        <mxCell id="5OfcqYkC_HGEx2gyaxZB-4" value="&lt;font size=&quot;1&quot; color=&quot;#007fff&quot;&gt;&lt;b style=&quot;font-size: 11px&quot;&gt;Front-end&lt;/b&gt;&lt;/font&gt;" style="ellipse;whiteSpace=wrap;html=1;aspect=fixed;strokeWidth=2;strokeColor=#007FFF;" parent="1" vertex="1">
          <mxGeometry x="345" y="170" width="60" height="60" as="geometry" />
        </mxCell>
        <mxCell id="5OfcqYkC_HGEx2gyaxZB-6" value="&lt;font style=&quot;font-size: 10px&quot;&gt;NodeJs&lt;/font&gt;" style="text;html=1;align=center;verticalAlign=middle;resizable=0;points=[];autosize=1;" parent="1" vertex="1">
          <mxGeometry x="310" y="160" width="50" height="20" as="geometry" />
        </mxCell>
        <mxCell id="5OfcqYkC_HGEx2gyaxZB-32" style="edgeStyle=elbowEdgeStyle;rounded=0;orthogonalLoop=1;jettySize=auto;elbow=vertical;html=1;dashed=1;endArrow=classic;endFill=1;fontSize=10;fillColor=#dae8fc;strokeColor=#007FFF;entryX=0;entryY=0.5;entryDx=0;entryDy=0;" parent="1" source="5OfcqYkC_HGEx2gyaxZB-7" target="5OfcqYkC_HGEx2gyaxZB-31" edge="1">
          <mxGeometry relative="1" as="geometry">
            <Array as="points">
              <mxPoint x="201" y="420" />
              <mxPoint x="190" y="390" />
              <mxPoint x="220" y="420" />
              <mxPoint x="201" y="390" />
              <mxPoint x="230" y="420" />
              <mxPoint x="201" y="390" />
              <mxPoint x="215" y="420" />
            </Array>
          </mxGeometry>
        </mxCell>
        <mxCell id="5OfcqYkC_HGEx2gyaxZB-7" value="&lt;font style=&quot;font-size: 11px&quot; color=&quot;#007fff&quot;&gt;&lt;b&gt;Order&lt;/b&gt;&lt;/font&gt;" style="ellipse;whiteSpace=wrap;html=1;aspect=fixed;strokeWidth=2;strokeColor=#007FFF;" parent="1" vertex="1">
          <mxGeometry x="171" y="290" width="60" height="60" as="geometry" />
        </mxCell>
        <mxCell id="5OfcqYkC_HGEx2gyaxZB-8" value="&lt;font style=&quot;font-size: 11px&quot; color=&quot;#007fff&quot;&gt;&lt;b&gt;Catalogue&lt;/b&gt;&lt;/font&gt;" style="ellipse;whiteSpace=wrap;html=1;aspect=fixed;strokeWidth=2;strokeColor=#007FFF;" parent="1" vertex="1">
          <mxGeometry x="425" y="290" width="60" height="60" as="geometry" />
        </mxCell>
        <mxCell id="5OfcqYkC_HGEx2gyaxZB-9" value="&lt;b&gt;&lt;font style=&quot;font-size: 11px&quot; color=&quot;#007fff&quot;&gt;User&lt;/font&gt;&lt;/b&gt;" style="ellipse;whiteSpace=wrap;html=1;aspect=fixed;strokeWidth=2;strokeColor=#007FFF;" parent="1" vertex="1">
          <mxGeometry x="345" y="290" width="60" height="60" as="geometry" />
        </mxCell>
        <mxCell id="5OfcqYkC_HGEx2gyaxZB-10" value="&lt;b&gt;&lt;font color=&quot;#007fff&quot;&gt;Payment&lt;/font&gt;&lt;/b&gt;" style="ellipse;whiteSpace=wrap;html=1;aspect=fixed;strokeWidth=2;strokeColor=#007FFF;" parent="1" vertex="1">
          <mxGeometry x="265" y="290" width="60" height="60" as="geometry" />
        </mxCell>
        <mxCell id="5OfcqYkC_HGEx2gyaxZB-11" value="&lt;font style=&quot;font-size: 11px&quot; color=&quot;#007fff&quot;&gt;&lt;b&gt;Cart&lt;/b&gt;&lt;/font&gt;" style="ellipse;whiteSpace=wrap;html=1;aspect=fixed;strokeWidth=2;strokeColor=#007FFF;" parent="1" vertex="1">
          <mxGeometry x="505" y="290" width="60" height="60" as="geometry" />
        </mxCell>
        <mxCell id="5OfcqYkC_HGEx2gyaxZB-17" value="&lt;font style=&quot;font-size: 10px&quot;&gt;Java / .NET Core&lt;/font&gt;" style="text;html=1;align=center;verticalAlign=middle;resizable=0;points=[];autosize=1;" parent="1" vertex="1">
          <mxGeometry x="110" y="270" width="90" height="20" as="geometry" />
        </mxCell>
        <mxCell id="5OfcqYkC_HGEx2gyaxZB-18" value="Go" style="text;html=1;align=center;verticalAlign=middle;resizable=0;points=[];autosize=1;" parent="1" vertex="1">
          <mxGeometry x="260" y="270" width="30" height="20" as="geometry" />
        </mxCell>
        <mxCell id="5OfcqYkC_HGEx2gyaxZB-19" value="Go" style="text;html=1;align=center;verticalAlign=middle;resizable=0;points=[];autosize=1;" parent="1" vertex="1">
          <mxGeometry x="340" y="270" width="30" height="20" as="geometry" />
        </mxCell>
        <mxCell id="5OfcqYkC_HGEx2gyaxZB-20" value="Go" style="text;html=1;align=center;verticalAlign=middle;resizable=0;points=[];autosize=1;" parent="1" vertex="1">
          <mxGeometry x="414" y="270" width="30" height="20" as="geometry" />
        </mxCell>
        <mxCell id="5OfcqYkC_HGEx2gyaxZB-21" value="Java" style="text;html=1;align=center;verticalAlign=middle;resizable=0;points=[];autosize=1;" parent="1" vertex="1">
          <mxGeometry x="485" y="270" width="40" height="20" as="geometry" />
        </mxCell>
        <mxCell id="5OfcqYkC_HGEx2gyaxZB-35" style="edgeStyle=elbowEdgeStyle;rounded=0;orthogonalLoop=1;jettySize=auto;elbow=vertical;html=1;dashed=1;endArrow=classic;endFill=1;fontSize=10;fillColor=#dae8fc;strokeColor=#007FFF;" parent="1" source="5OfcqYkC_HGEx2gyaxZB-31" target="5OfcqYkC_HGEx2gyaxZB-34" edge="1">
          <mxGeometry relative="1" as="geometry" />
        </mxCell>
        <mxCell id="5OfcqYkC_HGEx2gyaxZB-31" value="&lt;font size=&quot;1&quot; color=&quot;#007fff&quot;&gt;&lt;b style=&quot;font-size: 11px&quot;&gt;Shipping&lt;/b&gt;&lt;/font&gt;" style="ellipse;whiteSpace=wrap;html=1;aspect=fixed;strokeWidth=2;strokeColor=#007FFF;" parent="1" vertex="1">
          <mxGeometry x="265" y="390" width="60" height="60" as="geometry" />
        </mxCell>
        <mxCell id="5OfcqYkC_HGEx2gyaxZB-33" value="Java" style="text;html=1;align=center;verticalAlign=middle;resizable=0;points=[];autosize=1;" parent="1" vertex="1">
          <mxGeometry x="231" y="390" width="40" height="20" as="geometry" />
        </mxCell>
        <mxCell id="5OfcqYkC_HGEx2gyaxZB-38" style="edgeStyle=elbowEdgeStyle;rounded=0;orthogonalLoop=1;jettySize=auto;elbow=vertical;html=1;dashed=1;endArrow=classic;endFill=1;fontSize=10;fillColor=#dae8fc;strokeColor=#007FFF;" parent="1" source="5OfcqYkC_HGEx2gyaxZB-34" target="5OfcqYkC_HGEx2gyaxZB-37" edge="1">
          <mxGeometry relative="1" as="geometry" />
        </mxCell>
        <mxCell id="5OfcqYkC_HGEx2gyaxZB-34" value="&lt;b&gt;&lt;font color=&quot;#007fff&quot;&gt;Qeueue&lt;/font&gt;&lt;/b&gt;" style="rhombus;whiteSpace=wrap;html=1;strokeWidth=2;fontSize=10;strokeColor=#007FFF;" parent="1" vertex="1">
          <mxGeometry x="355" y="390" width="70" height="60" as="geometry" />
        </mxCell>
        <mxCell id="5OfcqYkC_HGEx2gyaxZB-36" value="RabbitMQ" style="text;html=1;align=center;verticalAlign=middle;resizable=0;points=[];autosize=1;fontSize=10;" parent="1" vertex="1">
          <mxGeometry x="360" y="370" width="60" height="20" as="geometry" />
        </mxCell>
        <mxCell id="5OfcqYkC_HGEx2gyaxZB-37" value="&lt;font size=&quot;1&quot; color=&quot;#007fff&quot;&gt;&lt;b style=&quot;font-size: 11px&quot;&gt;Queue-Master&lt;/b&gt;&lt;/font&gt;" style="ellipse;whiteSpace=wrap;html=1;aspect=fixed;strokeWidth=2;strokeColor=#007FFF;" parent="1" vertex="1">
          <mxGeometry x="465" y="390" width="60" height="60" as="geometry" />
        </mxCell>
        <mxCell id="5OfcqYkC_HGEx2gyaxZB-39" value="Java" style="text;html=1;align=center;verticalAlign=middle;resizable=0;points=[];autosize=1;" parent="1" vertex="1">
          <mxGeometry x="435" y="390" width="40" height="20" as="geometry" />
        </mxCell>
        <mxCell id="Gsie5pIUD7Cidm-WCp7G-5" value="" style="shape=image;verticalLabelPosition=bottom;labelBackgroundColor=#ffffff;verticalAlign=top;aspect=fixed;imageAspect=0;image=data:image/png,iVBORw0KGgoAAAANSUhEUgAAAlgAAAGgCAYAAAB2Txk1AAB3mUlEQVR4Xu29CbRkR3nnqVfv1b5vUqlUm7ZCLLbpFsgwNh7UboNtPI3L8oKQQG3RQqg9hxkdq86YYwzTxm6YKXmYwe1BQkYzEpIFtjWFu41t6D4tGdugxpbbjQUICS1VKqlKW22v9qpXb/7/q4gkMjLuvXG3zJuZ/zwnz3svM27EF7+4L+OfX3zxxTnn6CECIiACIiACIiACIiACIiACIiACIiACIiACIiACIiACIiACIiACIiACIiACIiACIiACIiACIiACIiACIiACIiACIiACIiACIiACIiACIiACIiACIiACIiACIiACIiACIiACIiACIiACIiACIiACIiACIiACIiACIiACIiACIiACIiACIiACIiACIiACIiACIiACIiACIiACIiACIiACIiACIiACIiACIiACIiACIiACIiACIiACIiACIiACIiACIiACIiACIiACIiACIiACIiACIiACIiACIiACIiACIiACIiACIiACIiACIiACIiACIiACIiACIiACIiACIiACIiACIiACIiACIiACIiACIiACIiACIiACIiACIiACIiACIiACIiACIiACIiACIiACIiACIiACIiACIiACIiACIiACIiACIiACIiACIiACIiACIiACIiACIiACIiACIiACIiACIiACIiACIiACIiACIiACIiACIiACIiACIiACIiACIiACIiACIiACIiACIiACIiACIiACIiACIiACIiACIiACIiACIiACIiACIiACIiACIiACIiACIiACIiACIiACIiACIiACIiACIiACIiACIiACIiACIiACIiACIiACIiACIiACIiACIiACIiACIiACIiACIiACIiACIiACIiACIiACIiACIiACIiACIiACIiACIiACIiACIiACIiACIiACIiACIiACIiACIiACIiACIiACIiACIiACIiACIiACIiACIiACIiACIiACIiACIiACIiACIiACIiACIiACIiACIiACIiACIiACIiACIiACIiACIiACIiACIiACIiACIiACIiACIiACIiACIiACIiACIiACIiACIiACIiACIiACIiACIiACIiACIiACIiACIiACIiACIiACIiACIiACIiACIiACIiACIiACIiACIiACIiACIiACIiACIiACIiACIiACIiACIiACIiACIiACIiACIiACIiACIiACIiACIiACIiACIiACIiACIiACIiACIiACIiACIiACIiACIiACIiACIiACIiACIiACIiACIiACIiACIiACIiACIiACIiACIiACIiACIiACIiACIiACIiACIiACIiACIiACIiACIiACIiACIiACIiACIiACIiACIiACIiACIiACIiACIiACIiACIiACIiACIiACIiACIiACIiACIiACIiACIiACIiACIiACIiACIiACIiACIiACIiACIiACIiACIiACIiACIiACIiACIiACIiACIiACIiACIiACIiACIiACIiACIiACIiACIiACIiACIiACIiACIiACIiACIiACIiACIiACIiACIiACIiACIiACIiACIiACIiACIiACIiACIjCmBCbGtN/qtgiIgAjUSuBLDz1y4/1/9Q/bT52ZWXD1lZf/m3e86XV31NqAKhMBERgqAhJYQzVcMlYERKBNBK79+F2PzZuanAtRtRR2LcZzPp6zeB7F64fw+jz8fgbPs+tWLfvWrTdu+8k22S9bREAEmiMggdUcW9UsAiIwogQ+tfPBT3/j0V3vRPfW4jmV0U2KrbN4zuB5Es8jeJ64a/s1r5qcmjo9onjULREQARCQwNJtIAIiIAIFCNxy+84H9u0/fAUuWVTgMluUgoserf14zsLL9dKd26/9gRL16BIREIGWE5DAavkAyTwREIF2EcCy4D5YdJ5vFcTSOVgSLGIsxRa9WAfxPH7Ph67bUuRilRUBEWg3AQmsdo+PrBMBEWgRAYirJ2DOZjwnHbOoqvhZOqekqXYZcT9E2svwaL26ZD26TAREoEUEyn4gtKgLMkUEREAEmicwOztLEcVlQfeLKT1QL+H5Ip7P4/kCf4dQ2oOfXAbkcmDeg/VRsK2FB2wrRNwL2JH4/ryL9L4IiEC7CciD1e7xkXUiIAItIQDh8z2Ycr4RWbTqFJ4vI2B9EwLWg0IKwfC3IRj+50wX1njiLHk5ZWlxmmINy4aXtKT7MkMERKAgAQmsgsBUXAREYDwJQGA9i56vxtOmYjiE3/dBBOUu6c2cOTN13Y57uby4AE8KrTk5MVs2PuvAFZdt/uIHt731A+NJXb0WgeElIIE1vGMny0VABPpIAALrOYiiZVjGY74rxl1RXG0oagLq2Y1rWMeqnGspsvg4geeLn/u1926ZmJiwrxVtVuVFQAT6TEAxWH0GruZEQASGnwCEFgXWFD1TRXsDUbYJz9VIPPo3qIc7EtMe/ALMJ71e697zibufMHFgRZtUeREQgQEQkMAaAHQ1KQIiMJQEzsJ7lXj9TYb2Jb/3H/76d8v2BFndfxQ7Bs+HyHoSdRzIEVpz8f55EFmMA9NDBERgCAhoiXAIBkkmioAIDJ4Alva+S08SnsuMNdxByED0wsuEod6YGC/uUlyR0lubpPSw9z4/x/le11OxW4O/Z2TBeBOQwBrv8VfvRUAEIgmYQPVdRmTR+0+B9TwE1sbIKnKLoY25CIZnG9yt2POAt+s0vGdclrSxWBN4jZ41pnmwr7lH8zB+i69zSXMatr4q1wgVEAERqIWABFYtGFWJCIjAOBAwWdxXoq88xJmihQLm2TqFC+OssBTIHYtpImvGCKo85NajNQMRdpTXMJEpfjKm66hSQOTh0/siUI1A4QDNas3pahEQAREYagIUVPZBrxFjoxbW2SPuFMTjAogsJitd79cdKa54mQ2Sn4NrVuDvWfxcYoThMrMr8hheOx2TaqLOPqouERgHAvJgjcMoq48iIAK1EDDepb2ojCkWKK74YMLR3RApl9bSiKmEbb3v1nsfhwCix4wCyQomlugsEea1mZNv6ySuP4kyL6Id5veiZ+uyvDr1vgiIQD4BCax8RiohAiIgAh0CJqP7BXiBS21W7FCoPANxsrVuVCYui7sHraeMn9uMs+KDv3Mlgrbw2fOZHnEINeuyAfT00DG/l0RW3QOp+saOgATW2A25OiwCIlCVAEQWl++4o9Ae+sw4p5euesvrP/qON73u9qr1F73+4cd2/8TffOvJn8exPNvMtQzCdw+gXurY2lW9CZK3KXsotigWmTaC3qzaBWPRvqm8CAwrAQmsYR052S0CIjAwAhA0//yT9z/wRzBgOQTKBJbXaAvFyQvmbELuMGzFw3jAnoIx9HBxaTP4ue94uuyuQwotHlh9BELrNa3ojIwQgSEiIIE1RIMlU0VABNpDAF4sihamaLBeLBpHpbULx9pc0sZjbWDzM7CPubb4WIFnJ9k0BRYfRizyV3seol02VIqH9tx+smQICEhgDcEgyUQREIH2ETAB709AmJxrzie0RtJ7tQci6+I2iixrpFnmpNhiEH3PA/3irkMrGs/gl4N4Kr1D+25FWdRSAhJYLR0YmSUCItB+Aman37chRLZCkDAdAo22cUx7hiGGyQgtLh+u9omb+Cw7T8zi7yPo44tYBr1scmqKoksPERCBFAISWLo1REAERKACAePJetETKKcgRp7/lXf+2PWXb930nypU37dLIbSeNiIxKzM9xSOF1Uv0aEFAvrZvBqohERgyAhJYQzZgMlcERKB9BEw81mZYxqNrbBwT3Vl76zxKpx89p9BCO1w6XOu3Zz1aJjO87d+r+2GX2hCBYSMggTVsIyZ7RUAEWkfAeLGehGFbaJwjsujtYRLSi1tndI5BJiCeIosJSP2HPe+Q8WYH8TyGmLOtbY45Gzb+snf4CXR2kAx/V9QDERABERgMAQoLCIyLKKbwtMHhNIZb887/1M4H+54bqyoJet6uvvLy/wn1vByoi3OHTXB6Ln5fj6N9Hqvapq4XgVEiIA/WKI2m+iICIjBQAibn1HMwgvmm7BdYLqW9CMESPLx5oAZHNg5vFoUjlw17AuHxmvVmMZ0Dl0SVziGSq4qNNgEJrNEeX/VOBESgzwRuuX3nA/v2H/4RNGvPKqQFFCHPQnxs6rM5tTVnxOMuVJgmFLkcynMZD+KpJcPayKuiYSWgJcJhHTnZLQIi0EoCt9647UqKKSOqrI38rF31pYce+UCdRl+/457v4PmPddaZVhfSMpzGMijPYORh10mcmfsTv3PJcB6ea/BchyXDR/thl9oQgbYSkAerrSMju0RABIaaAJbVnkcHGJ9kH8yM/gK8WDzDsPQDnqSp63bc+zgq4Oc3g9D5c//NV135PqSE+HLpigtcCC/d38BLxwOhuRTqP+itc3OB6eDoAmxVdHQIyIM1OmOpnoiACLSIAALEPwpzGJdkHxRCS+DFurGKmSbBJ5fiFsGLxPgueo3W82xEpljgjsYq9cdcCy/dj0AoMh7rOevJcq6zAfDcfbgBNu3C2Y0/HlOvyojAKBFo/B9xlGCpLyIgAiJQhIAJDueymv0ySy/WcxAnG4rU45c1aSG+i9dZN2O9uDxHsXUGgueJO7df+7oq9cdea+xgUH+aV4795eMQ7Nr72Vuuea1SOcTSVblhJyAP1rCPoOwXARFoLQET1M40B8kZOubhHg5dynaTFoK79fbhSW8W81ElniMcZRNativVTt5Fxo71KEeRdSBQnolXuVy4HM/NiMt6qh8etjy79b4I9IOABFY/KKsNERCBcSbgiiuuGqwxmd8rMTHi5hJUwlgv2wY9WasQ+P7NSpUXuJh2QEhegPMJz8NlSQC8+4Dgo6CcwE+meaDI2i2RVQCwig4tAQmsoR06GS4CIjAMBBB8/l7YeQSeHHs4MkUWxUblB8UND15m/XjSU8QHE52uqFx5wQqcXYb0ZmU9NkhkFYSr4kNJQAJrKIdNRouACAwLAezs+4+w9TREjzWZn7srsRPvwTr6QGFjxJUbU+sG19fRTFQdxqvG+LIeT5ZXgURWFFEVGmYCEljDPHqyXQREYFgI2GznHZGFNAdb6zIeXrL3oK5pPBmPtR/5qgaWTd2IrE6+LNvHwG5DiqxntFxY112getpGQAKrbSMie0RABEaRwDF0ijvq6Maip8nurqulr8ZLRq8VnycHvVMvJLLowQuIrAsgsnZJZNVyG6iSlhGQwGrZgMgcERCB0SOAOCl6qxiHZdcJKbIW4xDoT9fYW4q4ffBeXVxjnaWrckTWPiusnGVSt96NiskqjVkXtpiA8mC1eHBkmgiIwOgQwM7B/egN0xWMzCHQMaND79T7br33KYirzSxPsZUitJ6BONw8aO9bTJ9URgRiCMiDFUNJZURABESgOgF6mBKBYTw6/IJbOSdWdbOarYGCCQlGL1y3atlDbCllqZBv0ZOlmKxmh0O195GABFYfYaspERCB8SVgsrcfoMAwHhx+/q6oazdhm8lSZOF4nTfDRiZGTfNg8a0L4O16rM19kW0iEEtAAiuWlMqJgAiIQEUC8FwxCN3mw2Jtc7CbkMlCx+KBJcD1YPCU31k3+B3ic0PV8xrHAqY62XoCElitHyIZKAIiMCoEIB5sMtBOlyAuTo5K//L6YZYLGYSfeLJSgt8X3PfAw5/Yu//wlrz69L4ItJmABFabR0e2iYAIjBQBBnFDVCTiwjwmIboWz5w5wwObx+LhnF+4LyXYncJr6fbbd/71WABRJ0eWgATWyA6tOiYCItA2AmaHnB/Yfu51O8Yr7sgRWZ2M794yIRmtx87LJ9s2hrJHBGIJSGDFklI5ERABEaiHwAmICWZcTx48oxDPsfFg2X77yUhTvFkbILKeqAe7ahGB/hKQwOovb7UmAiIw5gSQsuBiiImjwDBrckLNxd+LEHN04bihcUTWS47g7Ggw/DIJRmskssbtzhiN/kpgjcY4qhciIAJDQsAsEyYCy/HarETM0deGpAu1mkkeO27cdgUqJRP/MQeMFuLFxTpOp1bsqqwPBCSw+gBZTYiACIiASwDB7pvwNzO7J7sKeYQOnj07DMeF2vmrlj2FRKTfZH8DS4WMx1qLJKRPS2SNyx0xGv2UwBqNcVQvREAEhoiA8WJ1Dn2GqOBuwvXX77hnbJNsIhHpf4chfC4wjPZIt/UQWQp6H6L7fNxNlcAa9ztA/RcBERgUgWPwWp12G4fIWjUoY9rQLjx7GwIiiwKLcxWf50OE/mMbbJUNIpBHQAIrj5DeFwEREIEGCDAnFgTVca/q1RAQ322guaGo0gS9U2QdDhg8x6RyWDIUnZGRY09AAmvsbwEBEAERGAQBs0yYHABtH4zDguhaMwh72tKm4TIdsgds5uO5EbsKe47baYv9skMELAEJLN0LIiACIjAgAvBibUTTB23zEA/8TF41zrFYZGG4dJKQesNDRoxX+9aAhk3NikAUAQmsKEwqJAIiIAL1E3BSNnRVTi/WOO+Yc/JjhZYKGZM1b9w9ffXfjaqxbgISWHUTVX0iIAIiUICA78Uyl67EjrndBaoZuaIUWVdctvmP/Y45R+qci6XCsWY0coM+Yh2SwBqxAVV3REAEhotAmhcLQmJqnA6BDo3aB7e99X14/XnvnMKkqMkbtgFLhd8ZrhGXteNCQAJrXEZa/RQBEWgtAePFOmQNNEforMMh0E+N81IheYDN+VgO7Al6N/FqLMJM73qIQOsISGC1bkhkkAiIwLgRoBcLouplHvzMvjvZzC/AUuEz4yyyyAZZ3h9JuScmwOoC7Soct/+Y4eivBNZwjJOsFAERGHECd26/lodAdw49dro79iLLZHl/wV0qdPhwHls87supI/7vMZTdk8AaymGT0SIgAqNI4K7t1/CMwtDOubEXWWCzAQI0eCA0mK3lcuoo3hPq0/ASkMAa3rGT5SIgAiNGYHJq6jR2zu1ktwLeGoqsPSPW5ejukA0KHwldwMOy8fqaT+188LboClVQBBomIIHVMGBVLwIiIAJFCGDn3L9E+ZecOCz38vnjHI/FgPcUD98kXp//jUd3vbMIa5UVgSYJSGA1SVd1i4AIiEAJAhAS5+KyfYFLVzPovUSVI3FJRmJW27/JcRagIzHII9QJCawRGkx1RQREYDQImEzm69Ebf0mMS2FzR6OX5XoB8XkBlgRD4pMVroUAfbJczbpKBOolIIFVL0/VJgIiIAK1EDDemqQuJx7rDH4P7TSspc1hqCTNi+XYrrxYwzCQY2CjBNYYDLK6KAIiMHwETNoBeqzcvFhHkM7htcPXm3ot/uwt11yKGkO7LSlGFyMv1uP1tqjaRKA4AQms4sx0hQiIgAg0TgBpB7hjcHnjDQ1hA1leLGwOoAdryRB2SyaPGAEJrBEbUHVHBERgZAiElrpmR6Z3FTuCvFibUcWBQDWc1+bv3X/4wopN6HIRqERAAqsSPl0sAiIgAn0jQHEVXBbrmwUtasjkxZoI5AubgJkrt9++869aZK5MGUMCElhjOOjqsgiIQLsJfOmhR34FFi70xMN+7KC7pN2W99c6nFH4rZR8YTRkQX+tUWsi0E1AAkt3hAiIgAi0jMB9Dzz8MZg05YmHGXdnYctMHog5OKPwR+nVs0LUE6SrEez+9EAMU6MiAAISWLoNREAERKB9BPxYqxkcofPF9pnZCoumrRDlT09kLWqFhTJiLAlIYI3lsKvTIiACbSYAkXDSs+8wjtC5sc02D8o2LJtuRNudYHfP67cGXqwnBmWb2h1vAhJY4z3+6r0IiEDLCGD320UQCb7n5VDLzGyNOXbZFKK0Z4elOQRaKRtaM1rjZYgE1niNt3orAiLQcgLY/fY1mOjmvzqIlARbW272QM3D8un9oWB3vDYFw+Y//NjuHx+ogWp8LAlIYI3lsKvTIiACLSbQtfsNXpijJiVBi00erGlYPr0BFkynWLH8k/c/8LnBWqjWx5GABNY4jrr6LAIi0EoC5nicrqUueGHmt9LYlhl19ZWX/zpMOk2zArmx5s7OzjI/lh4i0DcCElh9Q62GREAERCCbAI7HeRYlVnil0jwzwukQeMebXvfv8OcJvmSXCx2hteY9n7j7GQETgX4SkMDqJ221JQIiIALZBOZ73pcDiL96laDFEQC7l9ySXlyWEo/GYVSpmghIYNUEUtWIgAiIQA0EZj1RMKv4q3iqn73lmotROs3jt/r6Hfd8N742lRSBagQksKrx09UiIAIiUCcBP9WADncuQNekbDhqL/FjsSBeVxWoTkVFoBIBCaxK+HSxCIiACNRKQIHYFXEi8eh6VJEciu16A43YYuLRpyo2octFIIqABFYUJhUSAREQgb4Q8AWWPFgFsfteLHu5I7YWF6xSxUWgFAEJrFLYdJEIiIAI1EuAGdxtjYE0A/U2NuK1wYt1AbqYFou18pbbd/7liCNQ91pAQAKrBYMgE0RABEQAGdy/DgrLSCKUlVyE4gmkebFMDVP79h9+bXxtKikC5QhIYJXjpqtEQAREoG4CPZ/HzOJedyPjUp8bixXo8/JP7Xzw98eFhfo5GAISWIPhrlZFQAREwCfgx1udff0lG/6zMJUjYLxYx1KunvrGo7t+tlzNukoE4ghIYMVxUikREAERaJpAT4D7xeev+bumGx3l+pGkdRP61xWLBa/gWdPn5ciL9Z1R7r/6NlgCEliD5a/WRUAERKCHAIPc8TxVJxqkJ/iHOusbhrpMktaTYNnxDiK+zc57c/D76mHoh2wcTgISWMM5brJaBERg9Ai4IoCB7guf2PvSG6t2k4ccQ1w9hnqWjeOBxztu3HYFWPbsKITomgGTJV966JGbqjLW9SIQIiCBpftCBERABNpBoCfJ6O4XDrymimkUVDjk+GnUwaWytfh97I6KOX/VMiYWPY1nV4wbRNdcvLbwvgce/mgVxrpWBNIISGDp3hABERCBdhDoEVj7Dx89r4ppEFR7cP0GPOfjycOOl1Spb4iv5W7MUNJWvrYMebEeHOK+yfSWEpDAaunAyCwREIGxIzARODuPwqjUY+bMmcRDg6f9nJ/C75PjuEyIlA1bwHZfisiai7xYry4FWReJQAYBCSzdHiIgAiLQDgJn60owShF13Y57v4durfS6tgperbE7i48pG8CWMVeuF8v+Ts/hKsSp7WrHbSArRoWABNaojKT6IQIiMNQErr7y8v8VHThRRycgop6Fx2ZdoC56ySbG1Iu1GTwO+Lsz8fcZvE6RxSVUPUSgNgISWLWhVEUiIAIiUJ7AO970ut/D1X5qhsKHPRvxNA91cUnQf0zCk7NuXL1YgHEU/Z80UJKYN/xNVnxM4jzILeVHUFeKQDcBCSzdESIgAiLQHgKFBZVvutk1uNTJ9+QX4ef+WHprGIuFvh/Ek14r+yBziq2lOA/ygfbcCrJk2AlIYA37CMp+ERCBUSIwa5KM2j4V/ozG9fTQTHn1JPWZ5TDWuRw758ZOTJjjc46g/4zHYkZ3Civ7JLfSmwpG6SZUX+ohUPift55mVYsIiIAIiECAQBLo7gS7T5rdgFGwzPIghQKzlCf1OEfD0FNjPWRT2Dn3qqhKR6wQvFgXokuHKLDMrk1XZK1EsPsTI9ZldWdABCSwBgRezYqACIhAgEBnidBM/iuwG/DxWFLbP/PFr0NUneumezBLhYm4cn+nwIB4C8VpxTY3lOWMF+s4jfd2bVJoMR7rPIisJ4eyczK6VQQksFo1HDJGBERgzAkco/BxJn876UdhgVfqYhSccIQDhRXrs0tijD3qHHYM8fbtqIpHrJDjxXJj3siacyKXCRePWJfVnQEQkMAaAHQ1KQIiIAIhApj4mUpgv/OeXb6KBUbxZAWUvYbiisLtIJ4UWDbAm96aRWPuxfJZkRmXWJkXa3csdJUTgRABCSzdFyIgAiLQEgJm+co9Moef0XMK5K3yP9PpoZnBkuGhu7Zfsx4/nzUCzHrG1oyxF4vnM+4NCFLryVoHkfWieT7TkltEZgwRAQmsIRosmSoCIjAWBOhVSZauTCwVD2nOjQlyRJgr0Pg7c18tmZyaOn3n9msZ2H7KSbZJL9ZYnk9IMQuPIUXW4cBdlXADp0X4uRzPtRBaL+G5p4DYHYubVZ1MJyCBpbtDBERABFpEABndPwpzkozuJpaKk32uCHrfrUkw/DI83c91K7Zc0XXMS7Z5LoQDj9UZu4fxGE5bQesASLxY4MSzHJO0F3iuwHM1xO5eHqujpKRjd7sU7rAEVmFkukAEREAEmiOAjO6fRu0nvRYWPvzY7rdntQoxQAFgs5S7RbvisrBUyDQFRx0vFq8Z26BuE/fGJUA3+WjCD4xO44ddMuRPHqC9Cs9zkZT0byG0nse4vK25u0E1DzMBCaxhHj3ZLgIiMKoE/Ml+8Sfvf+BzOZ1NlrW8MhRXFGv00iQPLhVSYDleLL48tqkJ6MW650PXcXPBc3i+gCf5JLsuwYieK57fSI5z8JNLt2TMJ5cOV2NcvkChhWd0Oo1RvWnVr24CEli6I0RABESgZQSwTPgbMOmEmdA71uXE/6R9np+AgNjidtF4bQ47SUgpItZcv+Oef2wZir6ZQ5EFLjwg+3k8uZPzZTztrssz9Pg5ecTs7k4KLi7f0qt1PkTWc8qh1bcha31DElitHyIZKAIiMG4EsEx4GwWWlwhzlTlnMA2H9bS47/MzvmfZ0MQe0YvlzgEL8ffqcWPt9td4szZCbJ2LpdQL8B49WgfA5RCe9Gq5ecSsx5BeLjLm+Y5r8FwPkbUXYvWb48xSfe8OhhQPERABERCB9hDg7jY3TxMnce5qCz7gYaEg4zKW/37wi7TZQXfQljfLYWu01PUKPi6lQmglYgvP8/DSi3jyiJ0DBrBN3moPi7ZLhzwHcjl4XgiWj7XndpIl/SYgD1a/ias9ERABEYggAAG0BcU6sVNGCFEABVMFYEKnB8U//iW1JePFSvJkOYXojUkVcRFmj2wRLiE6YovLiBwbHhxNT5ZNrZF4DM3uQ3LcRG/WuO7SHNmbIbJjEliRoFRMBERABPpJgAIIoqqT1d1ZLrwAKRl2BeKx3FQM1tRQZvdON664bPMfoV43oJ51UMTJ85Ix2BBaG/Bcs+PGbf8ExSi26NVKUms4D3oT6dU6F88NYPrUOGbN7+f/TNvaksBq24jIHhEQAREwBD57yzWX4Nd9/NMu5fEnRNFGHOz8kAWFnEwXmrQL7tl6fNv1TvVw/eC2t96I63ZzedEJqGcqgqUahHwC569a9hSE1jqKLYjVu3EFBfEBsOTRRDxcmx5Be77hBmTNf0biNZ/rqJQIfeMZlb6pHyIgAiIw9AToqUJwO+OxupKNMkcTJvBj2HH44fseePjj/vuc4PFkioYXTBqCIAtT/y68udErsDvruqEH21AH4KWaCyHFzPtr8eTB0e6DgpdjshdsKZ71GGEC8mCN8OCqayIgAsNPwMRK0SPS9YC4mguRtQzi6hNGXPneKy4PTmM3XOZEbo6MYR6ol7wm1n9q54PczahHAQI2OB6XcAciUz24D7tRYSNzZ4Evk8rqMaIEJLBGdGDVLREQgdEhYPIzJUuF7gMii6sQDKa24oo/3d9tYtFMGCbei7vk3HisqW88umvb6FDsb0/godqEcaMXiwlMmbzUffAMyLXg+14Iraf7a5la6xcBCax+kVY7IiACIlCSgPEyrcflDKj2HzbppfuTIotiibvcoh44CPo1KPgsvGLHnQt4TmHuQdNRDYxhIZNXi/m09uJJAes+OF4865AB8E+PIZ6R77IE1sgPsTooAiIwCgSMyDoffenxZHn9s6kX9sKDcnGRvqP8hfCKcWnLzb+1XAcbF6HYW9ameMA7PPPQPWfSnnPIdA77cK7hT1RrSVe3iYCC3Ns0GrJFBERABCIIMLcSijGA2u7245dlCiv+ZDLMw1UC1I1HZQPqmTTB9M8z6WaEaSqSQwBsuaGAnisuH9okpbyKvzPdwwEFwI/GbSSBNRrjqF6IgAiMGQGzW20XzxM0SUY5QZ9CbqYfQfqAp6vgMDsLuTTIs/mYaoB1c1ehdr5VAetca0TsecyVxQ0LeIteQ3sUz3NgXcj7WJNZqqZGAhJYNcJUVSIgAiIwSgSYHBP94bIkBdYhiLc3VRVvo8Snal9MfNt6iKwJiCzuMGRyUqbfYNV7wfvHwHt31XZ0/WAISGANhrtaFQEREIHWEzCeLIosHgLN5cd98qzUO2zGk8VjjpbjSZFl5+WzEFt7r3rL638Lh3//fr2tqrZ+EJDA6gdltSECIiACQ0zAeFoosriM9RJE1qVD3J1Wmm68hUy5YePqrNjiTtBDYH5hKw2XUakEJLB0c4iACIiACOQSgAB4wkz+9GQxEFsiK5dasQLcrbn99p3/GVctw5NeLcZmnTbLhmR+UbEaVXqQBJSmYZD01bYIiIAIDAkBszQ4DXPpUWGiTD1qJsD4NiOieKYh0zkwGItnGlJonU8vV+CQ75qtUHV1EZAHqy6SqkcEREAExoSAObB4jnYVNjfgt8CTtW//4cvQAs+gtMuF3GzAlBnyZDWHvraa5cGqDaUqEgEREIHxIIAJfis9K2bZcDw63ede3nrjtn+GcyQ3odkTFFhYJqQ3i06RBUzR0Wdz1FwJAhJYJaDpEhEQAREYdwI2Buv6Hfc8Pu4smuo/Do5mXqwkGSmWCZlYlmkc5l+3495vN9Wm6q2PgJYI62OpmkRABERg7Ahwh+HVV17+vyOVwG1j1/mKHYYnaur3/sNf/1849Pnn6KXCk0ld6fjg3ExhxUOimfWdMW98jbs4GfR+CILrIETuayuaoMsbJCCB1SBcVS0CIiAC40AAIusRTPavG4e+Fu2jybjPHZhc1nPzXFFA8UnPFEVU5z0uBzrZ3SmqWM4+6NXik0HwTJnx6qI2qXx/CEhg9YezWhEBERCBkSYAkfV1TPZvHulORnYOy6aPQiCtNKKJVzG/Fb1Q9sxI/wxCiqu0B8tSZHWeEGBHUT9fP4Fs72/B7kOeb6hHywhIYLVsQGSOCIiACAwrAYis/wKR9cPDan8VuxmLBtHD/FUUPkwWyjxWWXHO1ivlz8Ou+ErSNJinFVhMlcHf6cE6ZTYcVDFd1zZEQAKrIbCqVgREQATGkQCExn9Dv8/cuf3ay0e9/+jrtyCqVhkhRY8VlwFdgRRCYAUT37Mii0KKoolzsn3y/TPwVr2ANuj9SjxW2Fn4KhP8Pup4h75/ElhDP4TqgAiIgAi0i4CJO3oQ3pUfaZdl9VkDb92jqG0jBNBcEy+VVI6/z+LvNM9VstyHMqdQhgHtFFbHKaSMwHJjrVjdMQmq+sas3zVJYPWbuNoTAREQAREYagIQVw+hA5fgSe9V1zxqAtTdmKpZ8xpFl13ao6iyMVT/PWKoeKC2HiNGQAJrxAZU3REBERABEWieAETWs2jlfF9geS3bpT8rqM5ecdnm+z+47a03NG+hWhg0Aboo9RABERABERABEShG4BSKc2kvLat6suy3btWyb+54/89eMTExkSz/3VOsDZUeYgLyYA3x4Ml0ERABERCBwRDgocvv+cTdz6P11XgmMVdYCjxpMq7z94O/8s4fu+7yrZv+/WAsVKuDJqCjcgY9AmpfBERABERg6AgYjxSX/mYgphLvlBVXpjMLf+9Pvno7hdjQdU4G10JAA18LRlUiAiIgAiIwbgSMF+tF48Xyu2/TMbz4uV977/l2iXDcGI1zf+XBGufRV99FQAREQARKE6BowjmMH6bzKlBJks8K3q2VWEp8Tp6s0piH9kIJrKEdOhkuAiIgAiIwaALmkOuXQnZw6dAkCV0HkbVn0Laq/f4S0BJhf3mrNREQAREQgREjYJYKKaDW265BXDEmy+0p82E9i9fOIAHrhSOGQN1JcWEKjAiIgAiIgAiIQAUCIZEVqM4mGn0BGdovxZE3pys0qUtbTkAerJYPkMwTAREQAREYDgK+yAp4sdgRe2jzfvx+BN6si4ejd7KyKAEJrKLEVF4EREAEREAEUggYkfUc3mZ+rLQkpHaHIT1YL+N5QkJr9G4pCazRG1P1SAREQAREYMAEvvTQI//6vgce/k0KrRRPFi1MDn/Gk0LrWSwbXoZlQ2aA12MECEhgjcAgqgsiIAIiIALtI+AsGeadWUihRWHF3YhH4c26tH29kUVFCUhgFSWm8iIgAiIgAiIQScCIrN0ovhTP5TmXUWQl3iyJrEjALS4mgdXiwZFpIiACIiACo0Fg7/7DF26/fefX0Jvz8GQCUj+NAztqlwwptBibRW/W1tEgMH69kMAavzFXj0VABERABAZE4NqP30Vv1mI8V6WYQJHFBFp8nsRzH0TWqwZkrpqtQEACqwI8XSoCIiACIiACRQnMnDkz97od91JoLcJzGa/3PFoMfKfA4k96s56TJ6so5cGXl8Aa/BjIAhEQAREQgTEkYJYN/4r6Cs+1LgIIrlPI+s7j7CiyeNbhHoisV48hpqHtsgTW0A6dDBcBERABERgFAsaj9T0jtLh0OIWnnZ9tYlIuF+6CyHrdKPR5HPoggTUOo6w+ioAIiIAIDAUBxGg9BUPn47kGXqwZHhaNn2fNuYZH8fozEFk/MBSdGXMjJbDG/AZQ90VABERABNpHwAgtLh1ajxaNtIHvFFnyZLVv2LosksBq+QDJPBEQAREQgfElAKH1uPFoMUaLOww5b3O5cDdE1g+OL5n291wCq/1jJAtFQAREQATGnACE1mNAsAZPnm/IufsEnkxI+kNjjqa13ecOBT1EQAREQAREQARaTIBpGhCL9QxMZAJSe17hIgTIMyBejxYSkAerhYMik0RABEQghsDsoScvOf3Qxz86++Sf/8LZc2a524yPiYmlG5+be9kv/T+Tb7j5t2LqUZnhIgBv1ndg8Qo86STZC/H1+uHqwXhYK4E1HuOsXopAawjwbLYTt214ac45E0yweBbCgJ9DyWcRXkt+x2uJveZv1/auz6yJi37qvrlv+8w1ExMTr1wwgg9u4T9zx5YXwWQJeDDI2TJgn6fIz3Cy8TmWAtmewnv0cEw6aMj34MKbnl05grjGpktGZDEIfiGez0Nk/ZOx6fyQdFQCqw8D9aWHHrnxvgce/oj5kOM3Dj5j2fND0/3g5AfsMfwzXdgH02tvwhx8Sjc3Pxj4IAfLozPReg3bydPlwG/rx8FhQ+1GqsLaCRhRdQAVz8WEf8qIhc7ShiOoOm3zNZTNs4X3xDGUpYA4BtGwOu+Ctr9PVqe/8v7PwSv1btjKOBsmmVyKPiYhHRFMYrvI8eDkfHT+TXsY29O6x/FPX/A8jOIByWfR7zmu8Da/J+ISvyefk2SD35PlM/x+Fv3iAcsj+0Ci0i043/BP0cEFeB7E5+EbRrazQ9ix3E+vIexT60zGN40XYBQ/wOri/dznfu29G4bxWztYPAsO65LPv+qPF/GBcm71alRDEwSMqDqIiW4+Jr3j+GknO9ebkjTtiqlIYdVjMidWtME8Qcvx+1GIrSVN9KupOq2nCvUvomCkoEjQOP8rsWz8ciEB6/SD4uSQ4XYE3JKjW9rwOPnpDYdhx0LDIxFRXAo1bOwXMvcLGH8/bbyis+gLj6IZ+Qc+V/8rOslxO7rjxm3/4vxVy54e+U4PQQfrmOSGoJsDN5GJ4qKMiCy39j2fuJvJ6IbxsQR97Nx3kf3t9NMrP49HTQwjhFG2mcIKE+P+U7dtpLjiobZMmrgCT/4T5IorsrGCoCAnesQornjZYk7OeJ7C8yBtKlhX34qffeJPfwE2TmMZ8KCZJOnls96a5Kd9xhplPDmd4jleL7JZYZYal8KWI/Ac7Y9tq8lyxjM1ZbxU/Nzg/cNddJPGo0fvlV0V4HtcMuXfZEhv/1g8uDy4btWyR3n/wKP1wFh0egg6KYHVp0FCFt6oD3iTrTfPKn7ADOs3M7rvO/Eykf3t8PDK88Pka3mw9H7/CFDIQFjtxSRHbxXFVZegCgknd/L3hUCs0EopRxvm4r3liPmi2GqV0DJC9NDpr3zgD2EnvW38n+75nCi7JOhfV6CexSi7EryOQmgd7N/d09sS7KCQ6gjuvPvBvD/fXBf3rXaQHayx7Vtv3PaOKy7bzOXC0zVWq6oqEJDAqgCvzkvpmSnozZnT5m/lITbX77jnO+bE+GQSKdLnjLIUm3oMmIARCwcgrriFfAWefmB1YmFokreTpr+MFbscZrseEmpOnRQwy2HfsVNfvuG+Qf7vsG0KF4g+LmcGl+P8vrNvWeIzJDzc1/I8YCmsF6HN5bD1pUHdXsar1rl3ssR44D4Yu/ntg9ve+j/etf2a12DJ8L8MaszU7vcJKH9Gf+6Gnn90IzQ6rRf15ODC1VgmfBo/N/enC9VbQR8Zh9YJOs3qcyQfGyBf3TjVUJqA8VpxSYljy51rQdGbJpjspFlwWavL3jTvjFunaX8Bgsd/CULrHWnipjSIiAtNXNoLFC5Z3hhrt9svv7x9L8TVFa1WnMV4f0Ic8dpqiKyj+Hlm3geeWdHP2E//3nD74rMJeOzGTmDxFpycmuIqwQ9H3I4q0jCBsbwBG2Yaqr7H7e+KiyzPVY5XiztHhuLBAF4YyqXBqHsulg/qi1p6HQpIQ2ikFVeYvOkhsvExqT3xJ/k071WB5axOW74HzDfCqZP3TF93lyWcvnzDH0DYTXP5LW+oQ6IpzYOVJS5tO3niKuQh865l4P0yeN0O9Nn71/X/neeJ80TXyKbuyLt/9H47CMiD1Z9xiBIVIVNyPFvJMmE/v1GWxXXdjnu/h2u5HFI4LsJn4Hm3SrMt2xdd9woBx3PFbfTJRGiFQZq3JcQu5G1x64rhnSYg0pbOMBFz11xfHobTEdjSiZvMEjSuUXmiMa0DIQ9Y2c56ooXxbPvRp1X9/NzJWgINCcw8QVmWha4TgSIENDkVoVWirPHc2AzLReOs8lpchWVC5pQahkdPwHPI6Jg4NE9w6R4ewOgb0UCRQtHc8TK4SzohoeCb6gqNKkuErNddMrPtuPU7YuUUlrpyvUh1YDVLgocortLYhNqJKZvn5XN55gm6LM+Q+56pZ0UfPVnJveXz8MfVFemOuJJ3u46bWHWUJqDJqTS6uAvhuXkaJTv5eErEWmU1xPEblt2EFJldHtOQmIrh4wW8F/aIxY2cSmURwFIXk1QuYRByWmxVDEHXQ+PUcxK/837hEg+32vN3++RrSZJZt35fnNn3rDjwbJzbD++LEVfM47S0qJfFXzplf1K8MkxCyrg32+VgaoKYpbW8pUbP08gNA4eaXi5Em0nH3PFz7QwJaFeQxdyDKiMCTRHQEmFTZL9fb6YA8oO5S5gz0fZlQuxo2e2KTNvHPDFlBZhfjn874myWXkIEdmprcombp8wlJiEmvQOpMXW+6PK9KbZd8zrFUhJPOPXGX/1IzPl5ya7Fe9/8+MT0nouNHczozeBe5kzqdMtb3ko8IWjjo+ecc3OZrhe6hvbxvq9zuQ718T63eZ+OzXv3V39oYvlFT7iGzfzdJz985m9/5zfxGkFQjJ6EDUzWWch+Wzg0lua9pegjl/45Bo08YHdPDBYb8r2VLuM8MdmIoapUBAIEJLCavy0y3dR5IiPCvBXvu/Xex1Du0oiygypCD549GqfHBldIuYLTsrGvpby3CF7CXah0/aA6N07tmqVBnkzALw5zfK+HnYxDrwc4HcFrp+fdsOtcs/MJf8YJH+OBusSt04iup2enn9lk2j+J95nktMv7AwH3sabHzHC6wJU0lk2Mx88TDOQ0Of9tt793zsU/88ddtt90UU9XjEDtHPJsbLFnEnaYFGXg2m1/h8Dd3PQXnCyxbsWW511Luma9X0X7qfIiUBcBCay6SKbX0yWwavBY9bQEIbKi+W6Ua8GcPciLU5fyXJEZEpzWY5X2HupOFW/lrNZVaQSwLPQi3mPcVSe8wJ8A0wSEJ7penLrh6fWJsLqpno8hI7q60pYgvQCP6KEQnGc8G8w91ejDnruINhf43qu0pS7fIKfcwQUf2GMCyn+mlN2GS5I6w4gtjmH0mY1pItoYM4kM9C80GfSe5pH0vVi+2CoFSxeJQI0EFINVI8yUqvoRaNnaOCR417iEwF1mlR45nr5+MK5k/yhcbOJteK/1iCs3lop9TVuOMq+/gCDz877vtWqODs6iW4i2uPzIQ5OPQqw0mp7BBrVj8u/c81lLlhk9P4GlzA/D9lp361Fsoc61GAcKTXqzkkfM8mFanBsuZ9B7I7syXS+Ua2PeMnBzd5RqFoF4AvV8dYxvb+xLFl0STPN4ea+v/NTOBz+DLL7vbxtg9HcVbJ31l/uK2Bnh9dMXhSJAS5bl9nxMbJ3M42lLXhkTMWNnXsQEv64fQea2m6athcnfNzWrxRGT9B30sUvExSwJekNyGELQJPSMWzItMqSGxxITS/c8rl2ZFScW8roFlu3mNhELamOwXHHlinl/SdoX+kW4qKwI1E1AE1PdRHvr6xwLU7QpN/bIv9YXat94dNfPF62/T+XPwtaOhy1GYPq7C72g9pDZzc6afQLV9mYw2THZZGZKhgxPyAzeo7g6r5/iqp9ME4ExvWcL2/QDrd2/c0TAdL+ypXNjCNriUuHBLBHoLsVleCYXQIAfrJt3yGuV5r1i2664VwxW3aOh+ooSkMAqSqx4+WRCcj04fhVp5+zZa2JECepMdhMWN6+5K7B78CnUzvxX0Y80b1VewtXoBlSwFAFzbzFQOriry1aa5r3C6zPwyoysuGL/KTAwqc93xUpITIVihwy/QxA8y/spQM2S4SrYxKOOgo+QqPLjsoy4mWrqMyh0X1m7/J+0JWbJs9Q/gi4SgQIEJLAKwCpZtGtCCgktvhYporJMWIGko9xN16YHl0oyA9BD3qoSHWiVsCxhf+sv4fIgjGTeq46t7hKh2wFOhoEJ+Hg/hUO/gRphkexYdCd4V0xlLZ3imhkmPx0EI7aJDQfrMJ7MqdXzsH3IEIbWc7TI5EerDb+/ROgLJ9/DpSXC2tCrohoISGDVADGtCsRF3Yn3aksEGpHl/JU4kxY8zIRD4RMUP16OK87azGFU9iGBVZZc/HXJveUvz4Q8Bf7yGC472q/M6fHdqbckhMVBsJkf4pO2pOWJ0IEKUC4Xwh4mRQ0+AmPaVc7xItXuxQotE7r3YtaSYb2jrNpEoBgBCaxivAqVRlzUtrQLynisIq5pzaYF401bFdl/Jk/krqZymRBLnG9YaCBVmASCIjbNq+GJh3mD8Mz0a9jMcVgdT63rwXO9P6G4LGPjAQjQzuaBftnttwMbzsVrL6W1H1oW9MsyTg9iM1WolegbE8gGxZwVWZar/RljZwk7dIkIFCYggVUYWaELMj0rabFXRVrwvFor4DX7/SLXN1i2czxQXhvow8HP/dp7KcZSs7HbfqZ48eY//Njut+e1o/erEUjzYvhLguM2wZ26Y/PLILvAjQVKC2oPsDnDQPM2CFDaMP+mPWvRl65jiHwvZWip07kH+JmXZOWv6xEKwHdtCAnautpWPSJQhYAEVhV6+dfOyVrWC8VerVu17L+h2mk8OwdEZzUT2E14Vb5ZfSmRuTToWoA+TOHD/SxYHUuzLCfgf+KT9z9wX196NaaN2FiYLG8C0YQCjue+7bZ3jSo2sxTe8RxbMZA26Qe8WEfbIK7yxidGNDt9O1FjsHvyOZIW72ftTnlfoQN5A6v3GyUggdUoXkSNIoC9yOPqKy//tXs+dB2XC1LFhivaAgIuydg8yIfxogVjzwI8ZiAqv0178V7PNWkCNcCgtclWBzkWdbSNJbDopeeAd2MGx7v8f3XY0cY6uByGPvfEPvqbAUJxRLjuOHZWrmxbv5Dg9LdDNrmepDShbcZ/CbjweJ/KD7TZEzYQWnZ1X3OFfmUDVIEIVCAggVUBXl2XOmJh5vKtm/7C1JvEdIQERs7RMosGvVyG2LNfoOmRfI7deuO2t5iyPSIpTaAGGOhejgRetNico7u34JpkbGJ2EXr1j/oh3Im4yuLixql5AnRBG71XOMuQAqtL2ISW6dxx9peJC/z/Z96Oruc0JFpdtm4sVtF7XOVFoAkCmpSaoFqwTkcsdCYjeHV4gHOZ9A1cLvuDgibUVtxfGojY+dj9OZ0iKrMMNG1oOaC2Ueyu6Ozjf3I1Jq+eg52tWPC9Gd5kO//Ul2+4uyHTBlot73Vw6Rw3Q2Ns3/0lq5Qlw1q8PA1BOODX6wsc931f3JCLCf6vZF7I82dfS4vDqtSgLhaBGglEu/5rbHOcqio96e94/8/+IHbiMffQihLAkq3Sg/h2DJufgb2dHVE5S6RcP+2ZZIouq5rypVgjGepu2MD/A3poWAe/dNinTTPBb/O01Y2L4+8nsZy7scT41HLJ9TvuedKxnTa7aTHs7+5PtksRf+TO7ddeXMCI2SwxlePdmJh58s+uRlvvLdDeUBTFMtgxcEkCul1Pimu8v2TqiNETTCra9NE9ZUHCtjVmN+CSUN+yYrLMe4sR/E+RFr3ZJcvWkKhyudtrXbv84PyyLHSdCJQlIA9WWXJx12UGuWd5d5IMy1OTPYHuObvprFXLtn/mi38VZ2Ltpbo+UHM8WEchUNY7FkQF9ocsRjtdnoQCveISD+Ng1pgnjw7h3zysl0KRyVL5k6/xPfc5sHi3vfsPX8hzHvHciOd6PNfheR6e55rnWvxcg+dqU24lfvLJ9wsdvj3n0ncmGwh8seBOepZ3aFLDdcUCEQsM3oCL9iyD+7FArgiw/AyjVi4PWp7my1kSE2m9U579Xej9uCjT7zp2EyZpGlI8gMHhd+wt9aVrwPeUmh8hAhJYzQ7mnCxvTJ6nBu/P+MLB3U0XEi/2tX37D7+m2a7F1R7qo2N31wcglkUfSas1b6kR7ZRNsnoKdTODtfUAxXXslfIDC6zffvvOrxkR2GVvHidTuJDnemL5RU9g0kpEkushCHkxUibhOneVxY5Po+XM8teJ0LJZKC7IZ4XrmPet7Y/g8Tlp3quAyKosrF1R7y5D+q+HQIYC5NsOXPaNFgEJrIbGEx6Gi0p4VboCS+/afs0FEA6pQcJWvLiTqiNoCk2idWDAktV3Q5O+X7djY9dOyf/tff/DG1H2RMiWPDFqBFLhbsCDRsb+8l9sPUvQ5+/FFq65XNB7FsHpnCsu27yzqC1Z3gvW5cfKeJPwUhy10xPTU9SGNpU/c8cWJuTseHhibTOeGO4epGe01Q8cn3M+DDzii+qspTfvvZNV0zXY+kLL0FnLlAasPFitvsNG3zgJrIbGGB6Gr2KyW5FWfYr3qUtc8PgKXJ+IrqykpCmT6tIvPfTITQ11L1gtl6SsrRH9PozkovwA7zxMf0uZDD5BYVagsjJZ5Bdw2a1AG3UWncjyYGY0dOyD2976y0UNoTcgbUILTbjeawyQr/0IlaJ9qLl8coi5u3QVU7/1wgwiPjLGPu//kcdXzc2Jseuq1gpxc68sMWdYFm26p05/edqv0PdumbGRwKpEXhdXJSCBVZVg+vWxaQo64gmTdShmITlChiIqxjvhmnPfAw//VnPd667ZfFNN7ifXTj9flfPenJRJplQcFuqtEg91CGaTc27bAVEzWfVbetkxIss0vhlLhWXPfEwEaNqyYEQfFiJo+uVBsYqwr3KRLI+KFQCmkejPhspG1VCBu+Rpq/NFtb+L0JSjwEmEaNWHH+/nC6qQ0NUSYVXqur4qAQmsqgTTr8/89uSKEEc89XhR4OVhEDgFQPTDmVz7FiNkgupXWCOtDe4ypicI0hKpdjx20R1+peDCW27f+fWC1yTFsUx4IX4wDquLf14OMtPWcuyc3FOm3YrXJPeXfx/ZOjPEeBlPHYXVVMyurFDgu7GJnzUrIbL2j4LIsjFp7Jsrnjwh1RliT3wdrDj2/by8K9QgzZvlBqJ7y8mVvUhum/79lefZ6icotSUCPgEJrObuiTIfLD0eFOPl6RFKWcHMbhxWvyYzBNW/NoTSFVr83dh2CMJxXQr6RAAU9dbxGtjwqgrD2RPkHmOD6V/ZAPsK5iZB9l2PrHvCea/sUmqPyA8Jroi4mOXD7sk6+8Sf/jzABz87rdAIeXjMYB2bd8OutHu/yv3QyLXox8tFx9kVRBTmVQzD9V1H5bAuN5je/u0KL+f3Mp/BVczVtSLQRUACq103RJp3oWfHUd7kbybUxfCu7O1TF7tigtzdjmzfiitjV9ryIIuW8rDU0Ed61HIPm05pp9IkUtR2s4Oth1PaPeEI2yPYOFEqbxfyIq3CxHbKD2ZPExJp3i68zkmPnqyX+iX+i/LNK3/6Kx9gIt9kzK2Y8D0pIRFgxNdcxBqWXabNM6329xfe9Ox5qPS4L2Dy4u7s+zFezzyjfdGeVrdroxmPQX2W5HVJ748JAQmsPg+072XwgteDHwhmmZAHQEc/nMm28d1KSNbJ5KLL80QfjTdlsraoV/lQLP2NFYw3cSKxYjAWtOnPQmwo+EDsNVXL3fDJz/Psxk4y17z6nHE5W3YjgfGknnAnO89TkWdG8r6zfLQKAdBDGZOFfk+5AsoVEb4AtX22cPB+35btowYkrtA81zOXFtgfEpWovnKqBldQhTyE/rKhPFhxg6pSzROQwGqOcXCy90VITPC6mdxyA7D9rhgxtwiT/79urptJzcvy8i858VdHjWBMMyk3Dsq90Gu3tMAyjLv+H1LSX4TsnsKGgo81zLhTPViuSrRKwQf6Uyn30rx3f/VyTF4996Efd5TntXAmaHqyXhhCT1bXfeaKTi/+qDNCllHEEmrBUe1L8Tmu/RneycQYT3ifrnpkjhvflSZgUwLxq3xZ6wtYNTLaBAp/SI82jlp7lzrZp6VcQKLNpzIsKDw5WjGHyf/f1NozpzIzOSa7HGMfOVvUuz4U/Z1yfhtF2o2w7zDKzPjLm7wuT0CiSJVdjBGmfb9IifxqycXo1/xCDXmFkXD0e5jIOp5U12Phi4y8dhyvxCqIrOnjn74gmNQyr55BvO8uB4aWq1wvS0CMDOOkn3yWZYlD38tkxwWvLzj9+R/9ZhPj5At728aQitgmEKnOAROQwGpuABK2aTvRAqkMZq6+8vJfTzMHsTNb8F6h3YROXY0tS3AHHfoYdfSK6TN36xV6FBBRpT1YNMicKxhcis2KbzKdmdMvTwxsSRJcxj6ce7DscUKdppB8ci3+SGLVQp4Mf5koZKMbt4Ty/D9ZjJ8rT356w9ET97zp0dh+DaqcvzSa5bHzRSjKDqPAyhRXHAd/3F2P1+z0M5dUHStXTLn80+6vPC9qVXt0vQjEEJDAiqFUrkwiagqIg5nLt276UlpTJnam0G5Cp67Jqm76DAS5h7m6E/zNV1357nI4u6+K8CjV0UxPHbZdPw0FCi6F2HyukUZ7Ky0kJM09OA2RvrmqfbwPMXkl3tSUZZmkiTzR4U+Yxq5FE9N7XgWhtR/3a183DhThEvKQ+F4rv/+O4BhKgWXHNEvc+FxcT18Rvn5ZN8YqLRbMj8My92eh/5MqNupaEQgRkMBq4L4wMU9dW/cj0irE7CzK3TnmtuP8vuy6Hfc2daRL5nmLnsg8BRH5F1nIcYzLF2OGJCRc0d+yKQjcJhnonjoJhpYPnYvrONw2s/s8ggkFghNHnugsG+DuG4RjXhgDxuXU5FF0InXFhz9hm/dW4iiaaQqtmHuhn2WYoiHNm+JP8m48liMMhk5g+eObF4Nlx8MZ29JChx4/V7i5nrGQiHXvhWH1FvbzflZbzRKQwGqAL2KefhvVJt6mvEnPaT43iB3i4/68Ol3h4YmQXE9TURSf2vngZ9G/+Xl9dN5PTYNg2zbHuJQSSkWXzkL9RQD+BXj9SFEWNv1Eg57CxCQcwfQ3+BHcGWrHO2U8cu+v2D4zhg5pG1ZgAuuILP/avDiYtMBlpx6KVS4bHkF8Fs/9a8Xj5Fdu/JwVle5P93dfNHoshu4zN+RByhoMdwm46qCB3YRt363X/u4KrqJxgFVt0/UikEdg6P7Z8zrUkvc7S3lZS4QxKRrc/hjxcTxv2TEliL72s+C+8eiun4N9c317/AneeT9Jg9Dgo/L9bALwC3/jNn2kp/DpBvvHqnOD6VPuj9oEFo0gJ3iyVuDXw64nIU9Y+aIk9LfHj/FZqxmfBaH1csNsY6rP3CiQFwg+edFP/3FMI20rE+OlDMVhmfEt/P9k++/fW67Y8z2Gvme0bQxlz/gRqDwhjR+yqB73xEqFJr2YFA2B1nK9QCkT7DLECDFfVS0PBnRzSS6tX4FGeLhzbJLLssso8x5+bPfba+hgoZxjnqAsFIBewtay/7O1i1vrycLEeji0jBPqW9YkGFp6cl5bhDZWQWgdP/XlG/64XxsKAn3oZBb33wtN/q5QgP1n577pQ79RYswHesnE0o27fI9RlkGBpbuy/8+dw7RdgRcSVr4QixH6A4WqxseCQNkP67GAU6GTZb6xRX0IYafhh2FX4o0ILQUFgq/dbtRy8CorhFh7GuKqc+RH3jIhLsnK3u6jLnUeIWyY+uT9DzDLdqWHCQbPFFkZObImGp78c/9nA2NBcbuhEpSUi53lws4O16zJLRQYb6u2y4ZuU4G6Fsw++edXIbXDwUEEwqf1LU04ul4dlDl7dvGmrFQsTQxR5TrnXvZLd8R4sHzh44xrmc9De3lnidC/P9I8p3bZsHLHVYEIVCSQ+2FdsX5dXjOBd7zpdb+LKpNUBzkxN6GW55kg6Tqs6orpylu2tPFjRRoOpLJILk8TlqZ85ZQUJhg8c0kto7/L33frvU8U6WfBsl1HEoWuDdg2k5N7rKAJ3cXNcuFKTGxHYie3kJhyaw15szwjlzEQHsuGByoZX/DiUOC0G3Plx1+58UNoipn04xPGFbStqeJzLn3nfWlLdW6bvhfTCfKP+vIYsp+i1Be1tl5/SZLXR9w3TWFSvSLQQ0ACq083RYSHp8iHUNfkHwpsT2lvEYKkv1ZTlycj+mSbmkb82L+s0m5G8L5fbV33dKGJ0PNorajS17Rrsang9/He4jwxG7i+UF/K2G5E1jLEGP0RJr7UXGe+pydtWTDL0+XYx0D4FVg2PIZnX+Kz/MneFVARHrgi/+NlhqGRa+B1242+zbj9S+NgDXBFEH6v7MFyhXtezJ+WBxu5DVRpCQJ1TUYlmh6PS3KW7EpBQJ0v8EI/J5NbWYZ3q1I2b7Zxy+07/xI/OmcP+qkhAsKr1gDrkLBzREeVD/MOQizFfgR/dOzOE5Oe6GkkhxM2FfwL2FTGQ8eDrBt/JMuFb7/jF7HDcAEmOebK6hFavnBKi63Ji2dyO4OyTImyCt4sBsIfbLKjvgcrtGyVFq9UUWg02a3Munk4NfrUJdJ9Yex7r1hhzLJiXqdCQs69h0IC17l3avksyLNR74tAGgEJrIbvjRLLeLkW3bn92gtR6EhOTqaknoC3o3LG8X37D/9ASMzZ9gJ9LpV2gfX5woZ/hzw4eQIoF6pXAEuxv0d8JQXyZI1Lsa5lZSaMQ4gpq5xJuwg/Cq35N+1ZQqGF6zj2PRnk87w97sSatkTkL8ehHAPhlzOtQ4NxcD1j4AoqKyx8XkZsDKUHy/Qp994LeSOr9puC1vecueLbF3F2LOTFKvIfq7JNEZDAaoZsz4dRKJWBJwpyP8DyTI0UGdxNuCevrpz3ozw07DNsOoAA6/PLtufHYaUtj9XtwTL2HiixHMdL61yKddFFe6+ce4FxP7k7T8uOT9Z1RmgthNCih+mgW9Yu+fjxSyzjLyOmteHH4Ng68frqfp5vmBYLFPDqVP4fb2KcYuoE2558VP542r99D1NVz50zrp0mrbAKiOxOGd/bGNNPlRGBOglIYNVJ8/t15X6QlkzR4FqbJMPM2M2W1bOuLPNFEJgs9Z0A9zRR53h+5tcVYF1S7BTpXldZs5uwcNJRU0kTWd2j/18dVrUuz5aBaYTWyomLfurzuL6TLsJ6JrKWm/LEVca1yfmG8GYdw/NwnR6tkPfNFxtuDNIoBF77IilmzByhVdpzx3b9+8Rlm8W5qrArc6/rGhFwCUR/YAtbIQKpAisrbqpIC/AKrUf56awlyAyPVumzCZGl/rfQbqd/xkvVs5TnTPBlDqgu/YHs2laEZ6hszG5Ce12A9VSdy4QIcP8M2lqa5aVMea+sQKyKr+d6xGddDW8WU4UwBcaJ0CTtxtTYCvxybsBzKEbHK78QZZaeuG3DwTpEVtqk7Qdeh2KDhnnZyl0G7Xc/3CVBd+z9G8z1nNV+86pCEShBQAKrBLSIS7oEFie+vOU7vN8Tp5LVjvEKdcavQMJPVsuM42VTCfTcMxmepcNlDhhet2pZWdvYt7rv6SgPUIDBYuzY/OuIeyWqCALc38m+ZcWfBd47cM+HrtsS1UCfChlv1jJkgWdC1mlMmKfcCdv1SFiT/Ak9sPSWFA0t1Tlll2HZ8CSSlH6hjq6mCUG/L25bXGabPfTkxXW03886mG8M/ZrjLseFRJYdO9c2U670FyYbg+WL6hBnV4jRBi0R9vMuUVshAnVPRqL8CoGeNAp+QLo/GeLvMst2md6JHFFX+GzCaz9+1270bbk7yFY8Wk+WdwOUiv/BDr4Pod6eHWh5ItW0nbs8W+Qm5eHTaDdKZLFeb0dlnekRUv9XMwRune0XwZZblkJr4U3PLpt3wy7ehy+aCTGJvwoJLk+odImpkIfLlnfjd/D73Jkn/+wXeb5hWW8W6ui6F/zlKlcUuiLM/D519vE/uSYXTssKmF2EnX5nLXm6IssRPJX+J+09EeGt7Irf0xJhy26kMTRHAqvmQcdSzp2osnAqBEzMhY8y2XHjtjejrWSHXk7qglAvy5xN2CPK3FiywETPrfqFH5dv3fRnsR65QL/PFG4w4wKe/whbUr2LfooK1278vrjGw5+7AtwjxWZpz0GdDLPq4jIslg3PQ5mjmBCjdpv6nhJfkKX97cTyLMaS4YEKIqtLBLri0BV2/N2zZeL0o1/45X6xrasdkzE/90tGWlyWL0qL2OWKJF98F6lHZUVgEAQksGqmjqWcbWmCJ6upq97yesY2FXqcv2oZj91IBEWJAPCl2E24t1CDxZbfpgucPRgy43SMiAgtzUHk3l2wX3nFO0LFt8kTVEk9TpmVFZZiOzbhfMW34Y+uQ57Txtuzr7BozwPRxPtOWgemWeDh0V3ey5DnIhRvE/KshJbyjNBaDpF1qKjIshO+H2NlxZS/lOXHD01M79nSBMNG6/yH3/1f7P2X5r3yY7S8WKlccZZmv10itHxtOV9shcSXlggbvStUeQQBCawISAWLJO7wooLnn27d9KcF27HFCx1MbC8yE3H0siREy2dxbdfyYJ69FXcPnvVTNOS1Z983CTlji8eU6zCOGVevTOXzH3G+4l0wMndJl2Pqbi6AwB2qydwIreWIz+IOTIrDU95EnYxVXjCzKwL8eC1PcC09/ZX33xdzAzhlkrxM9uEviblxYH5MkClbWmwUtLO24vC6/aus2DI7Jr7IcljMq8MYey9kebLc8dASYR3UVUcVAhJYVehFXhvhiTkBb9STkdV1FcMkegFe6FqKi2jPTsTRBxNbz1wBGw8XKBsq2rW8FSO2nB2aUUtNsfYhUJyHWvfEu8VwxnWV4k+MjV3eqzS7PWEHvTLR+iXCUF+M0FpkEpVOY6IMHr1jl/xcseMKMPu6G8Pjx0whJmtbES8WvSKugPNFlNu+b58pW8f9EHvr1lJudvqZLX4/s+Kw2KgrZGeXbvhuWUMokrI8k+54uu2a34fy/i/LSte1j4AEVsNj4nkV0lorHTeUHE/i7UCM8bIYQ7hM+GwkgiL3ymGIkg2R9aYVS/1wDIktlzPebyIHVY/nweecslt0JTYHVE7sGinmXJZD5ynxb4ROIPwrGeGDhzr7k2+ax8tf0nOum4fdhdHxWJjQu+5LJ66ry/zQ0mRI/FX8H+nX5V0HLqd5kHzxavp7du67/voHqxjqegV9Me3aEhK+VdrVtSJQlUCRSbNqW+NyffIBbCdEOwnnTJCVJkO0kfutOKP93CUsk88p04vi1V+pP+ZG6eKYdvP4uzMbvMkSj5zPMS0my3udKQlKPYx3ZbaAaE7aQaqLb5VqsIUXJV8iPvDMakyg9CJ2eSf9JUDfa+ROyP4SlhU8eJ3xWKU9rjETu9t2CxHnmZR8vvjeotBF/vIt+13lJAEbR2WFc2i8Q+/ldUjvi0A/CEhgNUTZF1ZFJ8giZt181ZXvRvnMLfkZ7eeeTYh8Tl9H/UGR4AtJY3dtR7M0ya0IY+TzugjlO4ld7bWhIHe+59mdyzjNFngYn8Z7K+z7eZ4s8/70rTdu+9Ei/Wt7WePNWgqhxfvwpTQPUciD5fYtI34naucvJ/w0UReKDXNFiWk798tQ28bCLtOleYtor+UeWM6r1F8bR+UKZzfOyrLyvVzuGLWNp+wZHwISWA2PdaRAqBQrgLQGf4FuHMvrSsrkvAST+PNp19KDgut6EqeGBIZ57SwE33vzbIl4P5NJjtCo9KEesq3Kt3DUtxyMn4noc6hIl7ANLUu6F5n3W5v/qiSDzmXGm3UuJtCX+WJe8LW9MC9miFXN/N0nfz3PvsmLfvqP3DLuZG8FiL9sGBIEee207X1fPPoCJuPvWu9FNxbM5+rHibWNoewZPwISWKMz5rmJOTO29qcKku2f+eLXcN3awCSeRu6kEXyNks0RrrULLHYGou4l26k8T1Kg82WXCTMPeE7hUCr/WKMDVmPlRmTxnkxEVp54cj0vad4PvD555m9/5yN5ZuK4HyYKTRX/vgct8Hcdy+d5Ztb6vss3yzPkCkun37X11/eg+ePuj631ftUKQ5WJQAECElgFYNVZtMQEndm8O/nbgpHeMy5nzUvbSbVv/+HX5vXb68vBvPLD+v4dN7/rVbA92U0Yy9bp61TRfpskpanew5T6jlTMP1bUzIGUd0TWft+L5S/hWQN9b5MvzvKEmq3HxgW5HfdFiC/qrPjAzzNFdi0OBG6gUX9JNsQqZXk2agdsXj9DMWz+OPvLv6FxymtH74tAnQQksOqk+UpdUd4Tb4KutETIRj97yzWvxo+eg5UjhdyyjKSjmR4UD990mbMHU4aAS5PJW6E+ZPXL31VZ1xCnHf6csnvQb3a2aFb3Gz75+W+j7q5NCBHC7uywpmcoOk5GZK3BdQcd8RNVjR+zYybnkzFjhGu7PjdDXh23fk+MzEPurc9FGdmCQhSD6EviHY9ZjnVjpYz5iZex7MOKpDTPmT+OZdvRdSLQBAEJrCaoDqBOM6n27LyLmJCttT1LWMgg/pN4M/cbqNPG6YqxSh1yEBbHsnYIFuhX3aPRk9iVtkTYwwO2eZZj9AN1rsazh3+TO1KjjWtJQSOyVsGcA6EA9lA8lPVkBbxOi07dsTk5FzHn0RPo7pZ3vT2hZa3ZJ//8F/MaaMv7J+99M3ejJolCs4LcfXsN92NIGntulb64y3wBD1VX1W6cWKw3soptulYE8ghIYOURquH9SC9S5ZZwMPFOVhKa7MvYgAzin0d1yQSfl57AGF86n5ffefQhaldXCBqubSIPVtIUPHQX4sdRl0cBD1tRu4L/n1liLrRUXPnGankFNo0DJtjU3av+cpLvaTGT9yRez82Yj7JnXRHl1uUKOnfCtwiNuBuaz10kGb3Usz350/couYLGLhXyZx3e1FixlLJE2fK7V+aNMoGh+UcfokHoWSKM8G7U0j0cTHw9KupkHHcnftqQI7KWIiHmPs+QTtyQf32oTxB4/76WjrxSSZVl06hl2jK2JocTT02eSkvPYOusOua33L7zb1BXoaOJUP4wloq3lunXsF9jJvLM9CB2ok6L0TLvx9x3nWVz1xvmL6H5osOWxc/aAr/7MG5dObDYXprgcfpXp1nJePgxWFlLhmnv1WmU6hKBGAISWDGUCpTB5FvrMS0FmrZFU7dFR0z6nW/vJhala2dijkg7AoF3Qwl7g5dU5NiYwKKx4JDpqcsQsisgYqPSNWBzwWVZLFM8aGMTfxViM/XGX/23vgDI835YUVDwvu1Ka+ILNteT4scImfaOD1Gge0cMZgmXUD/xWh3zS/B/OSvo3RnzGLFccOhVXATiCdTxDxDf2oiXhCjhh0GQaZklupK4Olv0IwSV30TnmznihRicutIv4Nfp9Ku25UEjYoJLhHkczftFAvMLY8YyIc9/7Dmb0FaUI0RzM+ebejJFYooHrdTB34UBtPSCyTfc/NswresLRkhA5YmuvO7Nu2EXj4FKMr+7XrE8D5lT71Jkju/ZkJLXbr/fD33JCi17WrvcZVO+NnHRT91fg81JvJsv7kLeQpe/vFg1kFcVlQlIYFVG+P0KsHzEI00W8hVfCJQQO6Usw+S/BRfmTrQpO98WwMPyovl2HRVc7fSr1txLOOolePh1Hkfz/lxzvE8phnkXmUD+zG/HGXbGeteijgpy7rUjOP9xU57tY/B+ZgC633/rCXEm5Nzxwfjzy0Qi4tOWCO17KcuR3JkXK7QHNmRn7tjCFBhddoZEpGugE4h+BjnDrq1qfCiuKiSQ3di3qm3qehGoi4AEVl0kUQ923f0EfhQOzobYOV6XGWbyz/XgZOx8W/O7X/zLu6kRfZtc0eAJyEN151668ocuvQvtR2eB9uyZ80d/+fcfrotpSj1lz67jMuFzWbbh/afx/lKWyROUThkthxio/gTsixzf+2HHwrwexRFlu+KwfE+Z+3eKN6VWj29D9zo/AzoB/S6nLJHDcni/cN63tD7445XnvTLtN4RE1YpAPAEJrHhWuSXve+Dhj6FQ8sESMzHaChvY9ZZ4sCKX03r69Y1Hd/Fsw869EarH699MHbuFXEN+8g2X3YG/T+ZCNwWsPdZW9OHnYq8tU84Iyi5PYR5vp53Ey5n2QD0U6XMjd27aanK9lmX6OYTX9Hym5Xld3D5yh2BknxPxHxIa/mt++0YgzDv15RvuiWyr78W4PAi7GYM5x18WzFpitR6niaUbH6vLaHfp0V+GtG1kLSHWZYfqEYGiBCSwihLLKI/A5M6W5rxqC0zGeVX1vI+lonV48UjOdv4sEdh1X/jiJWBQ7ZO7WYaJ9mBZm2z8E/jWduB0aABCgjJWVOfZhnqSzQYxOzeNbdMQfIwL0sMRBIQRWqLzl51Cy1B5IBFQ/3Fbv73eLlNZ75Uf+G3rtCJh5sk/e1deO4N6H/nA9sL+5D4M9c+3ywvsPzP/mq9nbtIo0i/fG+gGuIcEV5nxLGKPyopALAEJrFhSEeUwcRb2uJhqo5YlIkxwi5zNEnGxYsCtMCXAfRqCbktB22KL93gT0vrkp6SwsXCxDZUsV2rHKGxLTd76qZ0P/r/Gg5WYFCFuWWy2bg9iSR4DvyxrcvUFjx8UbSbuqP9FN6Dej//J8vC4IgvXnWrjbkKTvT0JdXBiqjpCi6+HPEYOh9N13Y+oEzktZjvtuWxte749zjjnxtMN/IaVASNNQAKrxuHFZFj2QN8arehUdaiMiCpiiKk/dkmlSNWpZdPiwAJ9jZooqxi148Ztb8L1qSIrJ13Ds6G2sbT58yEBluONjMk+XqWrQ3utOzm7E3FIFBlPSZHPxMRLGor58mOyXE+LIwwWYjfhwbbBPXXbRu4gTrxXvvfIXy50BaNlMe+NtyTpMup4gFvXpgV33FyB7Aprx8PV+GdAHX1UHaNLoMiHyehSqK9nrfmHxm7Ci9Oyete5PIm6Bja5Ny0g826L81/Z6ZgarJxjX1rG8KLLokfu3H7tJXm2jsv7rlcjq8/+5Ows63XlfsuqA8uEv+WKEFuHH3Pl1hEIeJ/fJi+WsaWzUceKFV8whjxYtiy8ewmXuh7uEqWt0x1n10ZfFNZlg+oRgTIEJLDKUBuCa7ibEBN8cEdjjcLk0B03v+s1LcXRF7ELgdl1bA5ZRAan9ywTYvfgXly+rCDPvvSzoE0DKU5xgMn2hO9Rcv92J+vAUt4MRNMnYo03y4QJfzfuKhT3xTK+l8VcNx8eo9bkxIIt+2HnIl+Aun1MW4Y1DA7G8ospxyVCWy40jqHXrK34qSXCGMgq0xgBCax60WZOdhmeo6YmybKpBFKpeH2Yqetw55hhSMle3rnUs60vH66rli1+wl+29AWsH6xuDA7970XlRvL6mZrwNIbpKJWBODiACXlBwEvUFaht++wHo+P1U0W9L5jgKUh6jnIJebHSYoaoydvgxbL57/xluNAyYYgx+jGDw5158HZtD9c75XoIrY2+xzLFrtrsUUUiUISABFYRWiXL2gmxRs9RlCX2YOK8wkWWDL0+1L57MMtWt+0Qy37zpa233rjtR/DjmLU7zYbA66GlqMx4Nv8+wt8vY/cgs8qP/cOIg57cbb6o8WOyLDjzemFRjqzu69BGMv5u3aEltYDHzAo/erEODlJksW3YwC9kXSI/TbCEvIR47UBdwe2uCPbGKBjwzjIBz2Hh8Rz7fyQBqJWABFatOMOVDWLipyXGu5QbhF7SvsMN7h60ICeKiD+XPq4rtcOv5O3QE4eVZzfeX2yWBJMmsXuQyV0zPVgBz9iZuie0kv0f6GVGHOyHEQv95au0JUHfw2QEEYO7Cz1MOpGF/uRu63eFSEisOEHjywa1VGj4HYStS1y7HdsSJiGB6Agheq/OLQQvonDacqRrpy3j2+4uL0Y0pSIiUDsBCazakeYn+GygyawqCwVN5wkD2xDK1ZZ9PsN4Hj1UCheuW1DqwhIXXX3l5R/CZYVEFuzj/14n4Sh2D/4S/i6S/foIvFfnlzB3pC6x4gCdWsGO+UtGbmfdpa+AIDoBgbCxDBycufcF27YvQnxPVsjz49i8FMlH/7Cfnqwkbu3h//PDsGtZaAnTF4iuYHVZ4fXppsS+HavQEqE/Xp7wair0osxtomvGkIAEVgODXkQUGEHTmCsbk/9voIu5Xqyiy5joYz+O+og+j6+BYYyu8h1vet3/jcKdZUJeyHsg4j5wBVVyD8QKXI5pUxNaVsePf/qC6ZOfbkdqAYoDpDlgDNQyP9jZ9sEVDa7XyvWMmDKlBQLO3Lsa7R3244VCHF2REBJls0/++S+gT9P9EFmG3/SZv/2d37S2pnmM0oSMeX1/3bFXafdgKD7MH2snPquxz9XoDwcVHGsCElj1Dn/hf2gTAN3YchYm/3+HSbvuYPdpE99VL72U2iKESl/syGkkM3N8inBK/v+wPPg5/Eh2FRboa91jmsvQJKCkzUsgsg7g+ULuRQ0VMOLgICbTFb6ICi3FhWKvnCWwM/M+8Mx5VUyduuHp1bi+K9Fw0YBrRyQuhsg63KTIsuIKNi4OLQu6osUKwZBoxWtkt6ZpsR8Sflaspo03rin8eVzlHtC1IuATkMCq8Z4oG/fz+ks2fLlGM3qqivE22YndCoEcT0pfdw+mscmxsa/LAyYfWOp6pi+cjO2TnOiwPHgt/y7gvTqI5cFNTd4zoboRI0RBxWS6k5i8VuC5CiKLHq3TWNq6t0lB4NrjxFwlnqusOKe0uCF3Usbvh6oKBMZioZ5E9LoxQa6w871mvR/Gr+gBIxiXMGVCE0yt5w9NdWL+XM9Q2n2VwvJwVXZZ9zHjqEIM/aVXn7ups1x8Qb//sdTeyBKQwKpxaGPifkKT6MXnr/n7Gs3oqQoZx38Y7R6wb8RM5DmelIGkBvDt9tMjNMkwr24k+3w1ykTvqnRs7/wPpjEPjNepJie1UF9Njin/+JRJlGVg9BSWtt4Nr8sRiK0TEFv3NSUMuDwJ4XGUAs+Pt/KDnW0//AnanYzx+yw8MGvzxjfmfeMFOx6KA3OXJ32Pi+NJS5px+rGCTLEsywD+yg+OCfgdIj9UtsKtMCO2qudYHGsjfh6i96qyYRkVwK4kk3uaUPYv9dgfy7oPm7hHm2ShuoePgFyoNY4ZdoXxg3BlwSrPQgBtRVbwJwpeV6j49Tvu2YcJvGsZhBN3gSUp294RLA+u6kf+K/CkKOyaCLI67fXnCHY5Li0EqWLhovaa5ijKcu10+nYc98sPNH2/+Cg4MWOSY/b5RBC6yzOh5TcU4ZLpXLw3jfic5WUFISfB0195/90QcFejLqa2YJ6r1M+tFFuS7tj33Ml6YunGRxdc+xDFcS0PiCF6+db6y1dZXraYhnE9Y/zoPTwKnktjebr8cO1J1MMdjwk/X3imLbVZ+7wxP8i4q1g7YvoYKoP7jl6oOf7YpYkuz8bT+JvhF9zwYhP70rPd1LxnY12Pz79pT9pJDUk3cZ/wBIzlsO80+sY+TuB3eoYZlzmXdqOOziYYcNiH11kn2ziL91b4vGYPPXnJqT/4sYdYL8c6z4ayY6Lr4gkU2bUUX+v4lizzjztz7rJFu5pGBiHVkzm8hLhKzOyHuCrDw13mLNu3Mu061zAjN8USPTvJI0LEpoor91qnPyf6La5mzpyZe+qOzRRVFE2d0wFyYowornjNUuZ4woQyyQkE13OCm8V7cyBuds9784d/HX/PzB54/HWnH/3CdbPTz2x0JslZXEshkLSJ15MJJ00Y5Hk5Ap6jI/Ou+fprzrm2zL9t+E6B6DgPXidOnozJ6tiaJkjTbHZtNf1NzjnF74zPOoQJlzm/yPOs4x1zhRNFyRnys2OGvxe5wsS1KdBeMHmqueZIP8SV5eeT9lna920fnJ/8zPM/9+ob7N5bwHqjY3Ywc+7l/xOFM+9r3uMUhFwdWErPnVs9/uYXC44366YHsudx4g/e8lX+v+GNKZTPjAkN3716tW4CElj1Ek3yNhWc3PntpfF4ISalhF2dLMsl7LSk+rF7MDgq1uY82w3/xpn6RsKzd+l1O+5Nvpna90KxV7H3R0AwHr/5qivffQ+TQvTxAXHF/FDz7XKNbdoKHV+4BERDkgKAD7x3lr8nXpTpPVtPfuXG+/B78jnEEhOmnFunnVAdIdElXKw9brmQYHCR4X0ub62s2wPD+vBYCxH0MtpYaW32mbjs3H4ZRp0lMcOq62+USUS5GQ8K1wSf+ZueEHt8D8VFZwnaZ8qL0ji5HiNn7HjJ0QXv/qt/Wje3tNuZ94krqC0f+9MVW24d/jV9/HdhU50vWGntLrzp2c5KB7588IgsiqLDeH1dyjWsk6L6IH/CW3XpxPKLHrdlTVwihVqSbNeIsT53W835BBSDVe89USZvU1+EwGdvueZV6GrnzLPYSd7Hc8Vlm++vF1lmbV1srM1lbW/a7pjErmVsd645dfnWTX/RdD8C9S/tiCLnTW/i7brMFwZdl70y6VtPQudLXpYHyvdO+JOp/du26/fBrRtlDjchrmybFB/w8NCDxckwefjixhelLBPqP1/zhazzWqJJ8XciQszvLJ+8ljRrHvYa92/bZqjdkH0ofwy7JVe4E3s/7kX3PvPHNySkXHHYD/uqtoE+JR4v/Ow5icCpm/8n07hveXLDGSwF/le33ZP3vvmb6Dc3niTpQvCQ86TqwNRwvQRWDRArVjGLibnx3S5Vv3GaQOujH9z21n9Vsb+NXB4TuN9Iw72VFhrLgnYHlwaa7BeWB6fwwX8EH9pJfAieuUsPKZNz19KetTnkVfH744oMKwp8r5YvHPw6nPL0XK2o+v+Qx5z1o51VaPeAK2DSPFlmgs31zIWut9e6Ntn+upx9keqKk5DHyrUJv5+Ed2WxyVyf1/3a3qdXzvbZ71PMmNdmSLMV8X+MY5/l+eKSL5UT4+iSODI3SB9L65fiNcbnccMG4840tzc7ZlG1axCiMBUvlJfuwJlY++LBMj2gB6uQALA9N16Urjw/xakUvqKLTZYYKeMZKmxNxAWwsdCOr5DdKf2cRmqGDREm1FqEEyqCZZfOe+MtH0HFDMjvxLSkeZzs6/77aRNkzETpCiq3Ht9TFhJ3TvnDmIBqXxZMA25E1mq0nxwI7XpifNFgbQwxcj1Yfv/c/rsCKm1sfMHl1h26xrw/M/dtt72n1hsrvjIueQYP67YCMNYbGN9kf0saETkH/UidC4x3ayHvKfzO/8NFzJVGS43Qokjj4xR+9vtzur/Ahqg1Cax6Byt3y70nWOptPac27KrbjCJlUyzMMv6nrwZ7sWkFRVSTwaypGJCugUuxqeka8jxWGfFlR5r2umSN7eQbbv63FCcocwITQpcnLc1jFarPL+tO6ln1uIIkq96Qhwev8Z4/APsb91z5thmRxVQGx2BHcOLzPUtZAtIVSCFBlMYwTfSyvjRh5fRl8vRXPvB5BNYf7XdqA4oGVwT6AtHa7/bPF919/sxKmqPnt0C7LEvvcOZ8jH4lmz3whYef44xlfCU58W0buUmKHubkc8fUk3t6RwH7VLQkAQmskuD8y/buP7yFN3naBJoxsQ7LP8IJxP80mhA1MBTRHqzAtfMwJhfWNLylqgmNOUVinsgKNHYA4nh9KSNqvIhiActEC/Fk7qtpfMBnnkBgJzprQhFB4Jrti6s0QeB6iZyJ+CDsXYpn4ykF0lAbbovn3bCLsWz7fS4uH7evrscr9Lt7nSussji73iDfq+ba5XrUnEl7AQ+kRlD28wUFROW7MCSc3Up9D2DoXqhsRIEKiiylwvbE+4TqU+fjwJiy7PyzT/zpz+InE8byfzMJkKcQQ/mBbUYqgGnki0pg1TTEf//Y7h+nwPK9LBGB2f1cIuTkziWsMm0O/B+2oAdrHsbkp2oa3kLVgPHxrJ2OWf0IvMex6nvsVV6H8WG+DDFGTB3AmBAm/uy6hH/7r5VdynHFRcibkTL5npxduuFxxkHl9aVf73MTBBNzwl4GInfOrnTtd71XvrD07XTLGhHUs/vQv8bnF+Jp63LFmBkDxgFRJJ575o4tByC0XmbupX7wyxKQofd8Nv2w0W2joAC1mxQyzXTvk6k3/irPmD0HnsXP4gd3LXc89ig3D/0v8xnfb0wj354EVk1D/MTel66gwCpRXV89WFjCugg2Fj7HDoKB6Qf6/eiw8b0+MV4gjMkb+m0w24NIWpAlomJsd+w+BO9VksyobQ96ZrBcsYAeLdhml56TMUtbqsrqQ8jzYsvnLX3ZcvzmjrIMZF+IBKJbB7msGuqr8WYtx3IlmR3Es+MF9IVCnlcqJGCtFyrN4+PW6QpX11bf+5PCnvavwm62R+jRamrpELbM+O37XPK8foP4vyniwYL9SeoSPDLngq6xu/x//m3Tr8R7Nf9tt/+C00+Kq4F/IR4E97a1KYFV04j8w/f2/DNzU/PGTr49YCLt+RYREAqD8E7QRsaDxAa8vwxhdnFNqIpUQ37JrjV/aS3Pm0XOGJN/XqSxGstmfnt081tFtDmI+yPCrO4iXIaD2JqY9+6vMgaN2akpshiv1SmY59XKE2XuEpbn9Ukm4cmLfvrzEC7zmOW6bcLKB2rE6UrjBWR8Fot0eIXEj+2z5Wh5hDxZ/mtZbLOEnW+HL9Bgy3x6tHj8DmO0sGR1VeGbJ/uCrjkqTYRbJlkivWa76qyO8VeZaRpSxo+fDVwOnJpz8c/8sTUIZV9JKafHwAkUCcQbuLFtNgCTJm9oJmRMkvthgj+F1xbh5wl6NPBasrWWWgFPfutIfsd7g3DlcnmCwoUeNz7dvETWTtsHvh99xl6dYwR2hwwf3qdzDGPbhP8BMovyJ1GGbFmWnAfB9pyrr7z8I/c98PD/YdimIskTibiQsVd93zlYZQyRI+l7uD7J52OSHx7Er8vw5Lf05Kgbt37XW+J7Tnw7nPe5UyppA0slH0EA/sdeKXuHeVbpQX+vNUIwOXSZGfOx9PYi+rnceDU6vNK8Wb6ADXmobI9Q9ijeX4ifdscaOXKC7hx9xLJZY5LxHuvlktUXILTOYFw+hnGxXpbSUGEfU4QkiVXxe/LZ5ApN83rmgd+lGy9/YWf5N6YKfhFBuUXoV1ZM4wze73yemYS2PCUhOfvS+5/iF+fcdCoxtqlMNQJSudX46WoR6CGA4PqLtt++89t4o3OsTFpMlv+69/eeti4Plhl2IyC4PE0unAS48ynZho9Hku8o5Zs63+PkMgkv1Rfmvu0zV7fdQ1WGj38NBSq24ieiyPBKvghZgeF6l4zHilv4k4zupi7+bb8wHUGS0DXuMVemfoo4PpIv29bzFfKgZXnBvAnejuMxeDR/yIjuOpCoDhEYKgISWEM1XDJ2GAh8aueDd37j0V3XJfMVHlY0ZQW++/1C2V1Ylt0yDP2VjYMjwGDqIvE+IUvNWZP28OFgQtg08ZvngcT7xyDMpiYu+qkvznv7Hb80OFJqWQT6T0ACq//M1eKIE7j243dxp+bKgoLKPcPyCDxXqYdAjzg+dW8ABOjNwnErTyAj+AVcfk0TTlnLuP577vKl8X7tRXzcwNONDACvmhxTAorBGtOBV7cbJZB4rtwYqzyx5cVjdc6MbNRKVS4ChoBZcr3IxM1xGZexpEl8VtrDF1T+kqW3pMgTASSudMeNFQHtIhyr4VZnmyZgtqv3zEoRAe3WNKZlGKrA9qaZqv7+ETC7G5diNybjvo7j2ZV9PhBQ3THOjw3jG3zNPAunhulfr9WSCDRDQAKrGa6qdUwJvOcTdz+Hrq/wux/KfZWSD6vsUUZjSlzdboKAEVqLmH0e9b/s79yzbYZ2LYbKQrDxuCA9RGCsCEhgjdVwq7NNEjDeK37zz3xYYRXwau2V9yqPnt7vJwHuOoQ4WgshRW8Wn52H3XFoX/CXEx3xNT0Ouz77OS5qazgIKMh9OMZJVg4BAQS374WZyXlgeTFXge5MQ1wxX5QeItBKAiY+i/GBzEGWpCBxc2ilLB8e4iHhElitHFIZ1TABebAaBqzqx4PAw4/tfjt6uiJNXFFwuU+PyuwVl23uZGIeD2Lq5bARMMuGy5BPi8uGSfZ5K6pSEqHOSlwN2yjL3joJSGDVSVN1jS2BT97/wBfQ+SRLuX+sj32Nr9unG3+F35/+4La3Xj+28NTxoSLAZUPsCFyM8+9+HoZ3YgYDQe5H5LkaqqGVsTUT0BJhzUBV3fgRwNLgC+j12jI9p7hCQtELy1yra0Rg0ATMsuE0xBVT/vBcwo5JOGdxjgTWoEdI7Q+SgPJgDZK+2h5qAlwWhOfqD9GJ6NgpJ6v7WXizXpC4GupbYOyNNwJqCUEc//QFjM/iJg/m0DoscTX2t8fYA5AHa+xvAQEoQwBeK6ZjWMVv7aHrs4LczfLgixBX55ZpW9eIQFsJGI/WM1hCVC63tg6S7OobAXmw+oZaDY0CAbNTkN/Sl2f1J5RY1IouvMdEpF1b3keBjfogAsZrJXGlW0EEQEAeLN0GY0kAQulpdHzy5quu/OXLt276T2kQUG6P8VLxywj/XxJh5XuoCqZleAYpGTaNJXh1WgREQATGhIAE1pgMtLrZTYBLfBBFc+FN4v/AGfPuJEUUXj+O1xfj9xk8kwzUBQVUFm4mE9WZbLohRUAERGDECWiJcMQHWN1LJTAFEbUKwmnCiKxOwdDyXoGzBLOQ74G42qgxEQEREAERGH0CElijP8bqYZjAJMTVLIRT47ng0M7zaOe0xJVuRREQAREYHwISWOMz1uppNwGKq+ASeY3LgWxx7x03v2szkzNqAERABERABMaHQOPf3scHpXo6ZAS4k+8sxNRJ3+6algNZ9+N3bb9mk8TVkN0ZMlcEREAEaiAggVUDRFUxlAQosHh0TTCPldsj91ibUE8D7x/Aa99DnqutEFc2gH4oIcloERABERCBcgS0RFiOm64afgLcIXgWz0Ro4VF4udDJa2VpnMIv+xBrtXn48agHIiACIiACVQjIg1WFnq4dZgLHYPx+PLlESLEVfGQtFzrvncDFh9atWvZ1iathviVkuwiIgAjUR0B5sOpjqZqGjACP9XjPJ+7eBbMXGQ8WzxSM9epSVPF5GslK34NkpV8esu7LXBEQAREQgQYJSGA1CFdVDxcBJB+l2FrIwHeTaJT/H3xyGdF9njGi6j8OVw9lrQiIgAiIQL8ISGD1i7TaGToCM2fOWG/WLILVU5cRh65jMlgEREAEREAEREAEREAEREAEREAEREAEREAEREAEREAEREAEREAEREAEREAEREAEREAEREAEREAEREAEREAEREAEREAEREAEREAEREAEREAEREAEREAEREAEREAEREAEREAEREAEREAEREAEREAEREAEREAEREAEREAEREAEREAEREAEREAEREAEREAEREAEREAEREAEREAEREAEREAEREAEREAEREAEREAEREAEREAEREAEREAEREAEREAEREAEREAEREAEREAEREAEREAEREAEREAEREAEREAEREAEREAEREAEREAEREAEREAEREAEREAEREAEREAEREAEREAEREAEREAEREAEREAEREAEREAEREAEREAEREAEREAEREAEREAEREAEREAEREAEREAEREAEREAEREAEREAEREAEREAEREAEREAEREAEREAEREAEREAEREAEREAEREAEREAEREAEREAEREAEREAEREAEREAEREAEREAEREAEREAEREAEREAEREAEREAEREAEREAEREAEREAEREAEREAEREAEREAEREAEREAEREAEREAEREAEREAEREAEREAEREAEREAEREAEREAEREAEREAEREAEREAEREAEREAEREAEREAEREAEREAEREAEREAEREAEREAEREAEREAEREAEREAEREAEREAEREAEREAEREAEREAEREAEREAEREAEREAEREAEREAEREAEREAEREAEREAEREAEREAEREAEREAEREAEREAEREAEREAEREAEREAEREAEREAEREAEREAEREAEREAEREAEREAEREAEREAEREAEREAEREAEREAEREAEREAEREAEREAEREAEREAEREAEREAEREAEREAEREAEREAEREAEREAEREAEREAEREAEREAEREAEREAEREAEREAEREAEREAEREAEREAEREAEREAEREAEREAEREAEREAEREAEREAEREAEREAEREAEREAEREAEREAEREAEREAEREAEREAERGCMCPz/RWvCQXdUQ/kAAAAASUVORK5CYII=;" parent="1" vertex="1">
          <mxGeometry x="452" y="329.28000000000003" width="54" height="37.44" as="geometry" />
        </mxCell>
        <mxCell id="Gsie5pIUD7Cidm-WCp7G-6" value="Mongodb" style="shape=image;verticalLabelPosition=bottom;labelBackgroundColor=#ffffff;verticalAlign=top;aspect=fixed;imageAspect=0;image=data:image/png,iVBORw0KGgoAAAANSUhEUgAAANYAAAG4CAYAAAA5ahmwAAAwx0lEQVR4Xu19C7heRXl1QggkIHDCPQRIImi4E0CuIVwUxSpQ/kdE1CgKFLAoqOWvWkW8QlvBp9UqQn+rFouIt1+RorQgGEAQMSFIIFxjJFzUJocoREKErhXni+ecfOf7ZmbPzJ7Ze+3n2c85yZnLO2tm7fedd96ZGTNGjxAQAkJACAgBISAEhIAQEAJCQAgIASEgBISAEBACQkAICAEhIASaj8BNc68/YsGyuS9tfkub08L1mtOU5rZk8dh5h89bePsbBp9/TP1VSDero8roqI0WPXrXEUsGH9qpDHElpYhVxhjYAGJutfyeVdPLEFdSilgFjAFoq/0g5g4/XPrls2AOjitA5NaLKGJlPgRApLEQcQLegUeWL9ob5qCcGJn3GcUTsTLvJEOkLZdvtISSTr3yuss+KK2VeaeJWPl3ELyBx4BUQ+dWu911y70z85e83RJKY2Xc/9BM69NpMVREmIO7w/3+MmMiZix9u0UTsTLuf5iB0+G4eOUIETfA/x2Dv03NWPTWiyZiZTwEYAa+Bmbgvh0RB6ZMXPMrtNYh+NvLMha99aKJWJkOAYQw7QDNdOJQ8QaXruz8c3P87U1Is12m4rdeLBEr0yEAjfRqaKv9h4rX0VhGa82W1sq08+QVzLNjoIk4t3o7pBvfQ8ItkeYkODH+ZB/qyQoBaaysumPMGJBqE2iik6GtDu4nGuZax/zjVe87p186/T09AiJWesx71ghSnXTbsqvPthRrE6SbBTJOtkyvZIkQELESAW1TzVduvugEmHcfQNpJNunNXOsgzbVs0UqXTsRKh3XPmqB19iSpRkRZ2EjHudZfI/9LbBIrTRoERKw0OPcj1R6IAfzs0DUrF7Ew1zoK+c9QDKELanHTilhx8e1bOjTNDJDi0yDV4X0Tj55gfZDrtYgh1KJxBRBDZhWxQqLpWBZItQfmR+eDVCPDlhxLWpN8F+zXOhNlbuqTWXnCIsAgTz01IAAC7ENNhaoPH7NRGAGgtV6OXcYHobTrwpSoUnwR4CY6PQkRMOtUc+BwOBuaahfXqoeENXXNOn3SjP886VWnv2OvzWev2cClpx4EZAomxB2k2hym3zkg1fk03SY9s2Pw2qG1XgNN+G6d6BQcWqcCZQo6weWfGKTaBqQ6F6Q6DZpqwL+k/jlBrtd/99Yrvo+UN/RPrRQxEJDGioHqiDJBqp3opEBExVn400AMTTWiyu1B4HNQ7xYJmqcquiAgjRV5WHDhF6bZxajmSDgp1jdnV3jXygj3fvMsFg6tdRjIfCR+/aZ3ZcrojYA0ljd0/TOCVHuBVJ+hOx1vkI+YDamMZAPQWn+HMKlZ/SVVitAIiFihETXlgVT7gVSXgFBHhKqCJuTQPVn9yoXW2gfk+ghN0X5p9fewCMjdHhbPMTwABhEQx2KxlnF/wzYqhqjKQWOtrQ4u+K/CBf8+uOAfCyGDyuiPQBDzpH817UgBUm0Ib9ycRUvvOtdnjcoGJds51oiyjoX2/B3kO3tgve1W29SjNNUQkClYDb+1uTFoJ4BUb4Xp9cFYpPIVFSbhZniPh3xvNEeq+RalfJYISGNZAtUrGQbrRhi0p4JU/xek2iFAkTGKmPyDu6+6EDLujMK5QK0nIgLSWBXB5ZkTINVpGLB/mzGpOq2cgl9OgqfwmIrNVvY+CMh5UWGIGFKdYTRVsqPIfBwYI5p536v3PPE9Jx967g8qNF9ZeyAgjeU5PECq8dBUbwap3gNNlYxUnuKOzLYLzMJPQXMdEag8FTMCARHLY0jw3HSQ6kTjqAgfSeshk0eWPSD/xSBXlQ2WHtW2I4uI5dHPWKc6jlENyDrNI3s2WeAp3Bft+LQ0V/gu0RzLEVMMwldiMF6EbHtVjftzrHpt8gBzrGFVYwF5/ozt9+ac60ZfmZRvOAIilsOIAKn2B6kuBaH2ccgWPGloYlFAkOtOkOvdINfNwQVuYYEyBS07nYe+cE4ylFQJtn9YSlc9GczC/YxZeEj10lSCiGUxBkCqHRESdCGSzmbyDqHqMgUtRPZKAnLtD2/hP90093qem6GnAgIiVh/wQKqtsK/p3Uh2dIdITSPUCAj2/8IvPnAhPyYVxlXrs4pYPYaAOfjldJhIbwOZAp2lVMSYOwIa+h9ELv++ErFGwQ6DagI01dtBqneCVNZnqft3RV45YRaeAHJ9AjgwDEqPIwIiVhfAMJjWA6mON1EV2zpi2pTkPF339SDX+TwIpymNStUOEasL0iDVUTyiDJpqWqqOcKnHZRexS7ld0k4Aud4Acr0f5Gqd1q6CnYg1Aj2sVTEa4ZO57akaKmaMdaweg2hTkGsOyGV7Z1eV8diYvCLWkK7kZB2kugCkyvpygYQaq4POliDXWxh10piRH7khIpYBmJcJ4Kt8Hkj1qsiYVy4+scbqyLsT1rguArnWrOXp6Y2AiAV8QKpxmFcdh19fizf7MK8aNFZnFO0FcjFod18RS8TqOwZAqtlmC0gRd/nWpLE6OL4M5PosyDWjL7AtTtB6jYUBwitKGa7kfPNHXeOmRo3VafJBwOw8hD5NrQuD3OttNbFgAm5rnBUHlRSmVLPG4pheD86M43B24ntAriK0fGoitpZYDFeCs4IeQM6rinoy0FjEaxO64UGus4Dli4oCMIGwrSUW5lVHA1+6j7N3ViQYB75VbAFynYIP1Ckgl3AcgmIriYV51QHcWg9ttb3viFK+tQhMBrnOxIfqUGHyZwRaRyzMCfYGqT4OCGrdBVxlEGYwxxop/q7m1Cd5Cg0yrSIWzJUBzAn+Bm0v+mSiTOZYI8l1ID5YH4M1IGcGvTtVvpyl5eV6FWQ+AibghiV5AUvBGSbhsSDXu/ABa9Peta7d0xpimfWqDxVwDHQpPOom50SQ62Q4M95QciNCyN4KYnGzHr6kHwZgWQfX2nZohnOsoaJvB3K9lyda2banieka7yIFqTbEF/QiaKrT0YEbNKUTMycXYb4J58O/GcepLW0K5i7taLzGwryK3j+uWTWGVC4dXGNahj0xMmOrGmWorepGE8uYgLyy9CW2CDfprEDbNkdKtyHnW/DCvjlS+VkX21hi8TAYmIDvBPpO+4fkLQw6XrlB8nTMtw4OWmoBhTWWWDABXwaSzGnjCUuZjTsuHnOD5K6ZyRVVnEYSC524A/dXATmFLEUdPtaFHwJy/SPmW1tb5yg8YeOIxcVJkOpcVxOw8H4sQfxDMd86oQRBQ8jYOGLBBOS28dfCBNw4BEAqIxgCA5hvnQVrohFrif1QaRSx0Gnbmy32O/VruP5eCwK7mflWaVfLOoPVGGLBBBxvTq59uTMKypASAQbrvoMbTVNWmrquxhALJuCeNAHxaiE49Shyq4+n63Jz5Ilu2cpK3Qhi8VATfAXfj3mV9gOVMf4YT/hOmO67lyGuu5SNIBa8TW8FqY5xb75y1IjATMy3PgaTcLMaZYhWdfHEwldvN6DzOrwTo6GkgmMhMBsmIfuucU/RxOIEGCYgD+tv1ap+g0bhVjAJz8bHcecGtWlNU4omFhwWe6ANR8EMHNVhoaDa7Ifs3ozKaJpJWCyx0BFbQFudg2HTc81KQbXZE4sCHg6T8KQiJLUUslhiQVvxQJhZIo5lT+edbHMTldGYhf0iiQWbfBdoq/fqXMC82eIoHc/QP7MpB9EURywTZEtSzXLsOCXPHAForTfCJDw+czGtxCuOWMZhobAlq+4tLtEUkOtdWPC33vGdawuLIhY9RyYecCd5+3IdUpXlmokF/zcx9rNySTUWUBSxoK32hwl4JPGi00LkqnHkxKuasYRvQV8fGK+K+CUXQyx8wSYb9/o2HVjkEYw/QGqqgfcdn4c+37Km+itXWwyxMKl9G4h0VOUWq4BSEJiFPn99KcKOlLMIYsG9/mIIziDbCaUCLbmdEeAO8Dmm750z152hCGLBBDwF2qrVRxbXPVDqqB9zrf3R92+to+6qdWZPLLheeZLtX+At2ktUtaNamn8817ZKPCcja2Jh8joRrtdTMKgYbKunnQi8FI6Mj5bmyMiaWHC5ckfwkb2i19s51lrX6gNKi8jIllg8IpqHjoBUjd2+3Tp6eDZ4+qQZPKr6FEwLdvAsInm2bIm1/J5VM4HGQckRUYXZIQBSUaY9MC04LjvhRhEoS2Ix0BYgct1qr1KAlJzREdgEBHs7tFYRW0uyJBbmVtyqfWj0rlIFpSGwCz64x5cgdJbEwtzqVM2tShg+yWXcmFoL7vfpyWt2rDA7YsEMnCZt5diL7Uq+Kz+8GCdZH8yaFbEA1npwq54BbbVvu8aKWuuAwHrQWieZfXkO2dImzYpYaPpkaau0A6DQ2naC1jqLSzK5yp8VsbgHB9pqZq5gSa6sEDjMBBBkJVRHmGyIZfZbnQHBXpQlUhIqKwRgDu4MrfVXDHvLSjAjTDbE4lHD0FaH5QiSZMoTAZDrNdBaWUbmZEEsfHW2Qte9Bm+2NnOeQ6v1Uk2H1nobxs+GuSGRBbHo4YG2asUVmrkNgNLlMVoru1OdaieWOSfwVHQwtZYeIeCKALXWKblprdqJZTw7B7uiqfRCoIMAtNZf5jbXqpVY/MrQRgZA2YeoaBhnjcCLMY7m5CRhrcTC1pCpAOMgzK/G5gSKZCkPAWit4xBDmM09abUSa/HYeSQWT2DSIwSqIsBojDmwgsZVLShE/tqIBQBexGBKNKLYQxlDdIBvGQNTslwX9W1OkHxmrpXF7ZC1EQuTzZcCzQN0mq3fmBpcutIvY7Nz7YiP9StzaGItxIK2Wh8AvAWkktMih1HQHBm4y/hNOZyNUQux0I9cszqgOf2ZviUyBUfFnLuMa787rRZiwQzcF9pqz/TDsTk1yhQctS8n4S9/Aatokzp7Ozmx2GCYgaeh0bU2vE7QVXdcBGAOHomP9y5xa+ldenJiGadF1x3Cuu/KfijIFOyJ1Q5mS8lG9oiGTZmUWIPPPzYWDT4ZZuCO3Zqhy+TsO1emYG+soLWOwkd8mj2iYVMmJdaSwYem9HNayP1u18HSWH1xYnDu6/qmipQgKbFoBoI4PI9dT0UEpLH6A8gFY7je+TFP/iQlFr4gb0ILB5K3soEVSmNZdeoUhM3VslaajFjwBm4LKHRktNV46J9IGqs/RkixLT7mb6zjDMJkxDJmIMOY9ARAQBrLDkSYg0dj7CUP9E5CLHgDx+HL8WZAsZkdHErVDwFprH4Irf0792r9pXXqQAmTEMt4A3W6baBOYzHSWNZgjoXWOgFOjK5LPNalOCZMQiyzKJy0YY44FJdcGsupy3ZG/OAhTjkqJo5OLB6oaLZNb11RVmUfgoA0ltNwGIDWOjnlkdTRiYXt99sDgr218Os0EPomlsbqC9HIBLvAckpmNUUnFtYRtgOpstjV6dwVGWeQxnLunKmwnI5yzuWZISqxzIbGN0A2ncfu2UGjZZPGcgaUTozX8UgI55weGaISC/LwPAstCnt0TL8s0lj9EOr6951TrWlFJRYasQ2al8yu9YK60EzSWF4dtz3MwWO9cjpmikosRhdjfrWDo0xKboGANJYFSOsm4W2QJ+D8we28cjtkikYs2LIbQ479HWRRUgcEpLEcwBqelJEY0S/giEYsmoHQVlneXeTdJRlllMby7oxNkfMVsQNzoxELwtPFrhtEvPu/d0ZpLH9gYQ6+KvaaVhRi8WsAdft6NF0Xyfn3f8+c0liVgJ2G8fmKSiX0yRyFWIi2oJt9t5iCq2whUAEBfvAPNX6ACsWMnjUKsRBtITd7lO76c6EyBasBDHPwYLMcVK2gUXJHIRbU7NGaX0Xpr7WFyhSshu/0STO2xDiNduFhcGLx6lM0mSH62V24XK0rlLtJCEBjcdPtLIzX8THaFZxYUK/0BO6maPYY3SVTMCSqINds+AOmhSyzU1ZwYqFghjBtEUNYlflnBGQKBhkNU7EBcr8gJY0oJDixYLf+H2irgRjCqkwhEBgB3h9wYAxzMCixICAJNTNw41WcEIiGAMzBV2D6EvxW0aDEgoC8QoU7hvVERkDu9mAA87zL4KflBiUWBYQZSEH1REZAc6xgAG9lloeCFciCghLLhIno3qugXaTCEiCwH45HC+pwC0YszK/GAQCFMSUYBaoiLAKYZ81EtFDQeVYwYmE9gBsakx/lGxbickrTHCtoX02GtXVYyBKDEQuM3wLzKxErZO/0KEtzrKBATzAHzUwMVWowYoHxR0CozUMJpnKEQGIEXgKv9uRQdQYhFuZXjAuMsoIdqqEqRwj0QYD3Fgcbw0GIBYG53Xmquk4IFIwAg3FnhpI/CLGgQmkCRj/5JlSjVY4Q6IYA5lmHhDrQMwixDKm0fqXxWjoCU6EkgiiIIMSCbXoMPIJBF9hK7yHJXyQCW2MsHxBC8srEMucG7BJCGJUhBGpGYGOYg8eEiHavTCwsDHNjY/AgxpoBVvXtRYDnuw9UbX5lYmFhmCfe8vAYPUKgCQhQUVSe1lQmliEVz7nQIwSagMC2mGfNrNqQysSCEC+H44LrWHqEQBMQ2ACN2KNqQyoTCwKMek3PpGd0g0/VDlL+9AjAgXEEbiThpl3vpxKx4D3hwvC00WrXSU3e/aKM9SLAzbqVtpFUIhY8giRWJQHqxU+1C4GuCHBXcSVzsBKxjEdwQJ0jBBqGwKYwB4+r0qZKxGI0MMy9rasIoLxCIFMEdq4yz6pELADCE5m4JV+PEGgaAlyb9fZ2VyWWIi6aNpzUng4CjBv0dmt7EwseQd4xNGzHpdzrGpUNQmAz3vzo2x5vYsEjyLnVsBB7udd9u0H5MkVgRygQL454ZSII8AhyhVp3DGc6IiRWEAS4P2vApyRvYqEybmzUHVg+qCtPKQjsiHmW1zptFWJtBdPPq9JSUJWcrUeAl9Ol1Vhg8v6oVK721o+9RgPALVE8iNb58dJYmNBxfvUS59qUQQiUhcCGDMj1EdmLWKiI+6+CHW7oI7jyCIFECGxt7iVwqs6XWNRYOvXWCWolLhSBbUywuZP4XsSCC5IewUr7VZykVGIhUB8C22BpicEQTo8XsaitFHzrhLMSl4sAlQidGE6PF7HgEXwxallzQKfCmJzwVuLyEJjks5blRSxgM9DBR2FM5Y0USeyEAK/2cT6FzJdYlY+HcmqaEguB+hAYi6qd79X2JZZzRfXhopqFQDUEsJZ1sGsJvsRS8K0r0kpfMgKTTFCEdRuciWX2YckUtIZYCRuAwNZYYmLcoPXjTCwslrECrWFZQ6yEDUCAzjqn056diYUKeA6AE3sbAKya0G4ENoXL3en+N2diYRV6fWDsvGDW7n5R6wtHgJEXdLtbP87EorbC2pUTe62lUUIhkCcCjI112nvoQyxqK+0cznMASKo4CEyAy32WS9E+xOIkjgzWIwTahICTleZLrDYBqrYKASIw4AKDD7HkuHBBWGmbgsB4l4Y4Ewtux91dKlBaIdAQBMYjOIIecavHmVgo9UVWJSuREGgWAhMRHGG9SByFWNqj1awRpdasQYCmYFSN1XebsvZoaSg2EAEuMVl7w500FmxMstb7apMGgq0mtQeBSSbqyKrFTsQy6tDJO2IlhRIJgfwRoKVmPfZdicX0Ov02/0EgCcMjwPmVNV+sExo5RazwHaYSy0CACoXb9K0eV2J1vCNWhSuREGgQAiRVHGKZgzrlvGjQaFFTrBGwJhVLdNVYm8CVrk2O1n2hhA1CgFyx5ot1QgMQ/fjWi2QNAlVNEQKcY1k77pyIhThBaiunnZTqDyHQEAQmYvxbh/M5EctM3lzzNARXNaPlCHDcW1trriRx8uW3vCPU/GYhQOeFNV+sExqMnHz5zcJVrWk5AlG9gsT2hZYDrOa3EwGnce+qscjaP7YTV7W65QjEWyCesf3eywDuyn4Aaz9WP4T096Yj4KqxVoI0v+sHivZj9UNIfy8QAZqCz9vK7USsaS/ssxoFP2NbuNIJgQYhQFJZT4OciDVp9w1+a2MKNghMNUUIdBB4BlOhvtZaJ7ETsYxHcJWwzgOBgSkKgknYE9RWtNisHh9iWduZVhIokTcCg0v7+pG8y1bGdRDgHMva5e5KLJJKxNKoayMC1qQiOK7Eeg55+OoRAkKgBwJOxNpr89n0CFpP4IS8EGgQAlFNQeIkjZXJaJHzImlH0HFhPQ1y0limGX9I2hxVNioCcl4kHRzPuigVH2LJFZW0P0evTBoraUcMIkDCeqnJmVhYJLsTYU1OHpKkzW9RZdJYSTv7adQWj1jGeaF5VtI+7V6ZNFbSTiCprMe9s8ZC4fQMWjM3adNVmRCIh8BKhPRZT4N8iWXN3HjtVMkyBZOOAXoF4wThmmY8hZ/0kOipGQGZgkk74Dms41r7Fpw1FjwjNAVXJG2SKuuKgDRW0oHhNP1xJhbszMfRnOVJm6TKuiIgjZV0YAy61OZMLOO8UFiTC8pKWzoCjLhwGvM+xGLkhTRWBkNFpmCyTvjD9EkzbnepzZlYmMDRM7LEpRKljYOATME4uHYplcrkNy61ORPLFP6ESyVKGwcBaaw4uHYpdRARR05WmhexUMnPUfnvkzVLFcl5Ue8YoOPC6RAlL2KhkicRLyitVW9nj5HGStYBj+2z24Ekl/XjRSxU8j+ogSc26akRAc2xkoH/FHwL1uFMlMqLWMjHSpwYnAyCFlUkjZWms+ERnOdakxexwF6GNS12rUzpwyIgjRUWzx6lOSsRL2IZAR5J1ixV1BUBaawkA4Nxsc6OOm9iwTP4M1Q4zFOiyxCSdPTaSqSxkuC9AmP9IdeavImFiui8oEm49tFlCK7wV0svjVUNP5vcmF/R+z1snNvk8yYWoty5VXlYhdJYNpCHSyONFQ7L0Up6ZPmilRjr6YiFKPffgEjDQpukseJ39NAapLHi4w2N9QDGero5FprEaN/H4jdNNYyGgDRWkrHxuDmo1qkyb1PQ7KZ0ntQ5SafEPRGQxoo+QF6AKTjepxZvYrEyeEv+C+bgr3wqVp7qCEhjVcewTwlPwRS83qeWSsRCaBNJ9WufipWnOgLSWNUx7FPCr6E8FvnUUolYqJCewUGfipWnOgLSWNUx7FMCg2+9gs0rEcuENj0YvXmqoCsC0lhxBwbMwHswxr0OTqpELDPPuhE/rW9hiAtFu0qXxore397OucrEQtMehANjafQmqoJ1EJDGijoouJzkHQ9bmVjGgaEzMKL2cffCpbGigv4kHBf3+NZQmViwQZ9E5b9QOJNvF/jnk8byx65fTsyv7kcok7djrjKxzDzrB/ipHcX9eivw36WxAgM6vLh7EcrkPaaDEAvyPIzX6RSbqJC0pHBprGgdzT1Y9Ahan9U+UpIgxDK+fjkwovWz5liJoaUJ+ECVOoMQC8xm9MUvqgiivO4ISGO5Y2aZ45dHT3nbYsu0XZMFIZaZZ12Ln87h9VWEb3tezbHijAA4Ln6K+RWdct5PMGKZeRaPRdOTCAFprChA8wj1e2GFVbpcMRixMM9aApf7/ChNVaFdEZDGijIwBlFqpfkVpQpGLLMZzHtBLQpEDS9UGitKBz+OheHK8a/BiGXmWd+H1vIOA4kCkwoVAm4IPICF4WVuWdZNHZRYMAdJKm18rNoryl8XAivhuPju4bNf4Xx4zEiBgxILhXOl+v66UGlbvZpjBe9xbhHxjmgfKk1QYmGetRr26dUwBzkB1BMZAc2xggP8K6xf/TJEqUGJZQSiR6XSGkCIhqkMIeCBwP1Yvwpy8lhwYmGeRcbP92iUsgiBOhHgPcPXmKuAK8sRnFh0u8Mc/HddTFe5b1RAWgSewLh1vq5nNBGDE4sVQWvdjR/a/Jh2YKi2CghAW90LN3uwyKEoxEL7eMP4fRXaqaxCIDUCt8PNHuwovyjEgjn4B6jVr8Ec9N4olhpV1ddqBDhObwuJQBRiUUCoVa4HaLE4ZG+prCgIwAz8BdzsQS2saMSC23IxULgTWktHo0UZDio0IAJ3YLwGVQLRiMWwe5iDX0XjtbM44AhQUcER4DFnt2G8BlUA0YjF5sM7SPUaJEQkOJwqUAj8CYFfQQHMDw1GVGKZo9GCCx0aBJXXagTuhgIIEm0xFMWoxGJF+Bp8HfOsyvtbWt31anwsBJbBcXEVvdihK4hOLHwNeMjMHaEFV3lCoCoCINVCfPijjM3oxMLX4PcQ/gporcerAqH8QiAwArfjwx/FuRadWAQCa1o0BRXiFHhUqLhKCDB86cbQ3sCOREmIhTUCEuvmSjAosxAIi8BCLAoHC7odKVoSYpkNkP+Byh8Ni41KEwJeCHCLyLcRGxjFDKRESYjFimDLLsQ86zovGJRJCIRFYAnm/VHHYjJiQWs9i8Z8Sa73sCNEpXkhMM8cfOSV2SZTMmIZrbUAP6O4N20a26Q0Ou/CuzdXwAz8//jQr/QuwSJjUmLxomRorcuhtYKvdFu0tVFJdEKTd3c+iDH4E+/clhmTEstoLXpidESaZQeNlkwaywvAZ6GtvmGu9/UqwDZTcmJBaz0B4W6F1tLNJLa91CWdNJYXeHRa0AwMGsneTZLkxKIQaNw38GOxFzTKtAYBaSz3gQBt9V/mFDH3zI45aiEWGrcIct6sTZCOvTUkuTSWM3Y8j/362E6LjlS1EIuNg9b6IoRQ1Lvz+PhTBmksZ+DuRqRFMo90LcQiJOaINIU5OY8PZfBA4PcwA69ApEXQ7fe95KiNWGbB+N9gDtIsXOfB/3vgpyxCoCsCdLFfnxKb2og1RGt1XVNYvpGC4VMOhAbXtYqbGWEhLU7ZxlqJZRaML4V20rpWyl5vV13UVt8LdSa7LXS1Estorbvw80e2AiudEHBAYDW01TehrZI7yWonVsdDCK3F8971CIGQCDwEbfUtzudDFmpTVu3EMlqL52LcYCOw0ggBBwTugLaqZZqRBbGM1vo8tFaydQaHzlHSMhFYAjPwyzFOYLKBIwtiUdCTDz2XX5bv4/2jjeBKIwR6IPAC/nbrSa86/ad1oZQNsQgA7OErobVuqgsM1dsYBB6Gtvo8tBWPj67lyYpYRmv9J5AIfoBiLeiq0joQoKPiRmirn9VReafOrIhFoRDPdRW01jfxrq4TGNVdLAL3Q1t9IVWw7WgoZUcsxnPBJPwcBE6+9lDsUJLgHQSepsMC2opro7U+2RGLaJgA3auhtZ6uFR1VXhoC95qNjM/VLXiWxIIaf5p3ayFe8Mm6Acqxfm0Z6dorPBxmLubpD+fQZ1kSy2gtnkN4JX5flQNQOcmgTY5de2Phq/c88Qu59FO2xDKn514OoB7IBaxc5JDGWqcnOGXgBQfZjJVsiUXooNbvg9a6AG82gOVALmmsdXrhTmiri/Ax5sJwFk/WxCJC8PBcjR/flyPjz+NFGmsYd34DT+Al+Ag/kgWjjBDZE4ur53BkfBnyLnQFTruQXRErMv3PsPaZXbRO9sQyjgxeEv49EOXXLl2vXcguaBWZdim1FdY+s7vUsAhiQWutgtb6N3T9jUV2v4QOjgAItQKFzoW2ujV44QEKLIJYbCds6MdArouhtbh3S0/LEXhk+aLFcFh8AtqKNzNm9xRDLGMSLsBPBulqa0l2QympQDzO7HJz8GvSim0rK4pY3LQGrXUZtFaW6t8WdKWrjMCdGAdf51pn5ZIiFVAUsYxJ+BB+fhXvb7th0mRPYJPb5jC+H4W2+mdMDZIdvukg29qkxRGLkmNtixsiGZWxzoJgkz2BbFvL17C41+pH6P//9hnsKfMUSSxzHiHPyLipbV/xlkddLIDD4oI6dwbbkrNIYhmTkPu1voT3l20jl23nNizd/3ADI8PcSmhXscQyJuG3DLkGSwC7qoxt/oCAVNdgzeoHVTFMlb9oYg3Zt0WHRuMfzrFaSi5enPEVrFkVc3d10cTqeAkx2C7G78WA3vgvQNgG8pb7S+CwKOrKp+KJZUzC74BcPCej0fcao43cJbs07LjNuzSQ6lqsWV3FsLa8JR0uXSOIxYVj2N//joF3VUnge8j6OAbZB5GvLZEnDF/7Fzgssguy7dd3jSAWGwn7+1EMus/i13W8Rg1a+2F0P2Pjivp69xuEo/z9SWirT11w0uVFmYCdtjSGWGa+NR9a6+Mjb4ls0NoPCcUTiJ73HKylZONC8A0leQFHAtsoYpn51rfxk4fQJL+6JeaoNd5AxsYx2qTppuBtWAj+CKwQp/13MfF3LbtxxBoSqHs5BmNjjqo2oVokFLVVY9rVZcDeBxPwAnPcuOt4ziZ944hlTMI1e7fw+7xskK4oiNFYNAVfwMDreiF6xSpyyM7oin+Ba734Gz4bSSxDLjoxLsGAbMTisdFYg0Zjjc2BBYFl+CNI9XV8EL8Bq6P2k2yrtq2xxDLzLYY8MQq+CabTagw63h/GeVYTnRfz0a5/hQlY7LxqKBkbTSx8+Z7BYLwUWov7t4oejGgD13K4AM47n5q2EM551QfgWie5GvE0mljGJHwC5PoHXg1Uco/BFNwY8q+Y9sI+DN16ouS2jJD91yDVhU2YV7VGY3UaCvPiQZDrE/j3PaUOSHwYSKin8NIz2AhzCe1giNb16Jtrct5m7zNmGq+xhpDrbgzOj5b6tYfG2gKy84xymrf0mg36dHhGebgedwvWqz6ED1+WJy1Vwao1xCJIWMm/BuS6EG/W5yV061DITC8n51d0xDyDt/QF8J/DBDwvl2t3qpCoW95WEQsr+fzaXwEgeB1raV/JNWRCG/ilp+YqOV7wQZDqY3BW3BZ6QOdSXquIRdDxhfwtyPUZ/PqdXDrBUo5lcFx0lg3oFSx1rYeXGFwM6+EGy3YXmax1xDLkWgJy/T20FuMKS3mehLYaSiyahaU9a260B/bfRFuatmQwrC9aSSxDrofQwZ8EuW4rYLv7CrM4vKbzoLl+i69+idspboKz4n20Gkr7IrjK21piGXL9HD8vwTngWTszQPxfQs61LnZ87WkGZjlH7LFF5w6Q6r253WPlShjb9K0mFkHCwuRV+Pp/DoM35y3vXLvims/QZ9C2k1OmG2VT6QN0VoBUxa4jumLYemJxmwnIdRmA4+m6XICt7eljko70Ai6vTVC3ih8BqT4MjHmZRWue1hOLPQ1yLccc5tP49ZphKmHpSCURd1z0OB6b0ezDjtOGvHfh/2r9EFigwe31F4NU3wbGRcdqWrR1WBIRy8Bh7t86H1qDdx6veTLa0s9BOXLXMB0AOWstXrVzKdzqV5Z2wpIribqlF7GGoGJiCj+E/1oQAtyAZdBRMVJ90jNIrZXjsxqyfQ1aldeYZulkiQ2aiDUCYZBrwUGbH3saNNePY4NvU76Zd90HuYatW+HfJFqOO4mpXW/gUgZkbFIUvk13rU0jYnWBCwPiDgyM92FQ164ROO+CLN8bpVdzXCb4Edzq7wKGXCJo7SNijdL1GBiMY6MbfmGdowP186vf9fhsEO4O/I1xg7k8XAA+u/SDYEKAKWL1QBHerP+HwfteDG4uJNf10M0+WiQ751m57M36GUh1DkhV64eork4aWa+I1aMn4M16AQPlhzQLsfBZ14BhfOBod+1SW+XgGVwAgp8PrGo3nUWsXBCwkAMD5r/5NR5qFiaMLyR5ui6oMWYQf7vfogkxk9wNbM7EFpBWLQD3A1Qaqx9C5u8kF369FO+j/K8Udx0b8i4FgbpqJbiyqckWWzYhRrJ7oKk+Dmx+EqPwkssUsRx6D1/lz8AV/w5kedIhm3dSQ15uFxl1UyPM1OtQQR0OjIXQVO8AJt/wbmCDM4pYjp27z24Hcnv/BTQLY5uDKJ+E6hccTI9h6mtuqKk+AU011xG+1iQXsRy7mg4Nai5oijOR9aeO2V2TL0M9PXfawkxk5PjaMCzXCjzS/xSa6q+Awdc88rYmi4jl2dX8WmPQ/y2ye0U/WGo7Oi16hgTBTHzebIJMEZB7O0j115pT9R80IlZ/jEZNgQF2E+Zcp4MkzpN3S+cHw4NszrZgBEZsc/BWkOp0tPnOCpC1JquIVbGrMdB+DI3xN9zi71JUP41l/k5i9d1uAXNwMcxBnuse6+H5f2cyjjJWBU0rV8QK0KM0jUCud4IM1pP5fhpryH1Yoy0Or5WcW/VR/3fxH0sCNGdoEc/zBhCQ6lS08e7AZTe6OBErUPfSRDLkutGmSEuNRbe+lSsdWutOkCDkqVPcT/WvnEeibV7zSBscmppGxArYszSVMBDPAmn6mmX9NBbEegFlfQtlWsUCQmutRHoSK4TWYgziP6G8j6D+EOUFRLmMokSswP3EIFQMSIY//QeK7mvGdaveaDNGWzziIh601jwQ4lqXPF3SLmE0BXb+/nOb91NVxHCMiFUVwS75MSAfxsD8AAjyOfyZR0P7PNzYuMwlozkEkx5K3w2GC0Gq9yOq/1KU1fiz/1ywdU0rYrkiZpkeA/NXGKDngVyfQhYfVzhPinWOXAehvwNy8KI96wfpGeExF06KOVz4xSJ46RcuWLc9VkIRKxayKBcD9Hcg18ew1jUHBHM9ufZBmHbO8xsQmqfmMn5vvmXTnsWBpT82nr/GXIZu2fZoyUSsaND+qWAe+wXTkGdAnA1yXYu377oUsv0B6a8GSaw8gl2asAhE+biFKcnjyT6NtG+HjA9EhqJVxYtYibobA3ceF5JR3bCzC0epnqaYsxnYKQt1PQVtdztIc2Pn//D7yKrm895fmI4XIf2arTB6wiEgYoXDsm9JGMD3glzvgdb6IhL3cmrwgM6qDwN4vwjyrDlWAOZepzx6Kq+nlsJ86kvQik4OkqpCtSW/iJW4p0GuhzDvIrk+iapH0xQT8Lftbpp7/bgK4j0HrbUAGulckOsWowFp+n3OxPzNr1C2svZBIMSXUSB7IvCVmy+avejRuy7AYvGhnSI6ERnQNp8HMT4CjfIbl+JBxolIvxHeDfGuj3dTvJMXj503A3WN4wE5mPf5zt1cRGl1WhGr5u4HufbAgKdL/tUdUUCqP4JU3O9E7x6jybl9hEdMs7+oxWhpdF6ShyTaCu90vFPxDuClqcmoDUa+84y/J1xJWjM0RVcvYmXQfSDXriDXhyHK8XgngFjPglid8wS5z4qeRF6KQDKNNwTr/JukooaiZiKh+DufFXgfxsvA4K+CVAqiTdjX/NrpqRkBOjUWLJt7xpXXXbYapNoDpJoCkbbDS+3j+9AkJNlI0JEXKviWqXyWCMh5YQlU7GSY96yAo+H9IBVPgmI4EzVT1YfkWj1p9w0Gqxak/G4IiFhueEVNDXONB8fw1sNQF3ORUD8EabseUR21MS0vXMTKbwCQBDz9NsQzd+9Zu14RoiCV4YaAiOWGV/TUxmzzjU4fKt8KlPX5gfW2C6X9ore9SRWIWJn1Jsw2nsq0OIBY9+44sJNr4G+AalUEERCx8hwHnGsNu3PYQ8xboK249URPDQiIWDWAblElA/uqxPAxgLfnQZ8WMihJBQRErArgxcoKhwO31z9Yofw7UMaNFfIra0UERKyKAMbIbhwOTuddjJDjAZSheMAYnWNZpohlCVQNyaoQi+FMempEQMSqEfxeVcNVzosOfA50YVyhT75MkShTLBEr335jRDoj010frl/d6ppJ6cMiIGKFxTNYaViD4iKxz73H3C6S5GK8YI1tYEEiVqadCucDTTofgjAcStEWNferiFVzB/Spnuaga9zgILRdiruy8kauZulErJo7oI8D48f4u9PWfKRntIX2X9XcryJWzR3Qq3ponvvxd9eAXLraq4ZDZYxKGaKJWHn3E88XdD3z76mNxkySxqq5X0WsmjugV/VwYJAgrjGDKzdYb6LNabsZt7x80USs/PvQNULd5s7i/FtduIQiVv4dyCgKF9POJW3+rS9UQhEr845DFMUdEHHQQUyZgQ5gxUoqYsVCNly5DGtyWZcSscJh712SiOUNXZqMcLkvQU0ua1le17OmaU17ahGx8u9rutx5DobtI41li1TEdCJWRHADFU1nBA/wtH1ELFukIqYTsSKCG6JoE4zrckG4iBUC+IpliFgVAUyU3SVaXRdzJ+qUXtWIWBl0goUItl5BntPOo9P01IyAiFVzB9hUD7LwNnsbcq2//J5VvKVET80IiFg1d4Bl9VzLst2XpTmWJagxk4lYMdENVzbjBW3mTs/JFAwHepWSRKwq6CXKaxaJbYJxx8MUnJxILFXTAwERq4zhwY2LtlHrvDpVT80IiFg1d4Bl9SSWbaiSrr+1BDVmMhErJrrhynbRWLqwPRzu3iWJWN7QpcuIrfZ0XNiagiJWuq4ZtSYRK4NOsBTBdgOjiGUJaMxkIlZMdAOV/cyY5Zw32a5PiViBcK9SjIhVBb1Eec2pS7bOCxErUb/0qkbEyqATLEWwPStQfWoJaMxk6oSY6IYrm6SSKRgOz+gliVjRIQ5WgZwXwaCMX5CIFR/jEDVQY9kSy9ZkDCGXyhgFARGrjKFBM1CmYBl9tUZKEauAzsKR0S4aa1wBTWq8iCJWOV28ylLU8ZbplCwiAiJWRHADF/20ZXkKwrUEKmYyESsmumHLfhDF2WzPl8YKi7tXaSKWF2zpM2Fn8JWo9TK8d+Fd0UMC9Wn67lmnRoW/ZNAJLiIMPv/YxksGHzoMO4VPRL598U7Fu9mQMr6096xdT8V5hHK7uwAbOK3s8cCAxi4OhOFc61q+INlEkOwgkOw0/HsvvJvgdTnnPba4rS1fxCq460EyHuT5I76rnl857ie33HoGfn9Y2qrgTpXoQkAICAEhIASEgBAQAqUj8L8DuBsUobtgjQAAAABJRU5ErkJggg==;spacing=-4;fontSize=7;" parent="1" vertex="1">
          <mxGeometry x="550" y="321.41" width="15.37" height="31.59" as="geometry" />
        </mxCell>
        <mxCell id="Gsie5pIUD7Cidm-WCp7G-7" value="Mongodb" style="shape=image;verticalLabelPosition=bottom;labelBackgroundColor=#ffffff;verticalAlign=top;aspect=fixed;imageAspect=0;image=data:image/png,iVBORw0KGgoAAAANSUhEUgAAANYAAAG4CAYAAAA5ahmwAAAwx0lEQVR4Xu19C7heRXl1QggkIHDCPQRIImi4E0CuIVwUxSpQ/kdE1CgKFLAoqOWvWkW8QlvBp9UqQn+rFouIt1+RorQgGEAQMSFIIFxjJFzUJocoREKErhXni+ecfOf7ZmbPzJ7Ze+3n2c85yZnLO2tm7fedd96ZGTNGjxAQAkJACAgBISAEhIAQEAJCQAgIASEgBISAEBACQkAICAEhIASaj8BNc68/YsGyuS9tfkub08L1mtOU5rZk8dh5h89bePsbBp9/TP1VSDero8roqI0WPXrXEUsGH9qpDHElpYhVxhjYAGJutfyeVdPLEFdSilgFjAFoq/0g5g4/XPrls2AOjitA5NaLKGJlPgRApLEQcQLegUeWL9ob5qCcGJn3GcUTsTLvJEOkLZdvtISSTr3yuss+KK2VeaeJWPl3ELyBx4BUQ+dWu911y70z85e83RJKY2Xc/9BM69NpMVREmIO7w/3+MmMiZix9u0UTsTLuf5iB0+G4eOUIETfA/x2Dv03NWPTWiyZiZTwEYAa+Bmbgvh0RB6ZMXPMrtNYh+NvLMha99aKJWJkOAYQw7QDNdOJQ8QaXruz8c3P87U1Is12m4rdeLBEr0yEAjfRqaKv9h4rX0VhGa82W1sq08+QVzLNjoIk4t3o7pBvfQ8ItkeYkODH+ZB/qyQoBaaysumPMGJBqE2iik6GtDu4nGuZax/zjVe87p186/T09AiJWesx71ghSnXTbsqvPthRrE6SbBTJOtkyvZIkQELESAW1TzVduvugEmHcfQNpJNunNXOsgzbVs0UqXTsRKh3XPmqB19iSpRkRZ2EjHudZfI/9LbBIrTRoERKw0OPcj1R6IAfzs0DUrF7Ew1zoK+c9QDKELanHTilhx8e1bOjTNDJDi0yDV4X0Tj55gfZDrtYgh1KJxBRBDZhWxQqLpWBZItQfmR+eDVCPDlhxLWpN8F+zXOhNlbuqTWXnCIsAgTz01IAAC7ENNhaoPH7NRGAGgtV6OXcYHobTrwpSoUnwR4CY6PQkRMOtUc+BwOBuaahfXqoeENXXNOn3SjP886VWnv2OvzWev2cClpx4EZAomxB2k2hym3zkg1fk03SY9s2Pw2qG1XgNN+G6d6BQcWqcCZQo6weWfGKTaBqQ6F6Q6DZpqwL+k/jlBrtd/99Yrvo+UN/RPrRQxEJDGioHqiDJBqp3opEBExVn400AMTTWiyu1B4HNQ7xYJmqcquiAgjRV5WHDhF6bZxajmSDgp1jdnV3jXygj3fvMsFg6tdRjIfCR+/aZ3ZcrojYA0ljd0/TOCVHuBVJ+hOx1vkI+YDamMZAPQWn+HMKlZ/SVVitAIiFihETXlgVT7gVSXgFBHhKqCJuTQPVn9yoXW2gfk+ghN0X5p9fewCMjdHhbPMTwABhEQx2KxlnF/wzYqhqjKQWOtrQ4u+K/CBf8+uOAfCyGDyuiPQBDzpH817UgBUm0Ib9ycRUvvOtdnjcoGJds51oiyjoX2/B3kO3tgve1W29SjNNUQkClYDb+1uTFoJ4BUb4Xp9cFYpPIVFSbhZniPh3xvNEeq+RalfJYISGNZAtUrGQbrRhi0p4JU/xek2iFAkTGKmPyDu6+6EDLujMK5QK0nIgLSWBXB5ZkTINVpGLB/mzGpOq2cgl9OgqfwmIrNVvY+CMh5UWGIGFKdYTRVsqPIfBwYI5p536v3PPE9Jx967g8qNF9ZeyAgjeU5PECq8dBUbwap3gNNlYxUnuKOzLYLzMJPQXMdEag8FTMCARHLY0jw3HSQ6kTjqAgfSeshk0eWPSD/xSBXlQ2WHtW2I4uI5dHPWKc6jlENyDrNI3s2WeAp3Bft+LQ0V/gu0RzLEVMMwldiMF6EbHtVjftzrHpt8gBzrGFVYwF5/ozt9+ac60ZfmZRvOAIilsOIAKn2B6kuBaH2ccgWPGloYlFAkOtOkOvdINfNwQVuYYEyBS07nYe+cE4ylFQJtn9YSlc9GczC/YxZeEj10lSCiGUxBkCqHRESdCGSzmbyDqHqMgUtRPZKAnLtD2/hP90093qem6GnAgIiVh/wQKqtsK/p3Uh2dIdITSPUCAj2/8IvPnAhPyYVxlXrs4pYPYaAOfjldJhIbwOZAp2lVMSYOwIa+h9ELv++ErFGwQ6DagI01dtBqneCVNZnqft3RV45YRaeAHJ9AjgwDEqPIwIiVhfAMJjWA6mON1EV2zpi2pTkPF339SDX+TwIpymNStUOEasL0iDVUTyiDJpqWqqOcKnHZRexS7ld0k4Aud4Acr0f5Gqd1q6CnYg1Aj2sVTEa4ZO57akaKmaMdaweg2hTkGsOyGV7Z1eV8diYvCLWkK7kZB2kugCkyvpygYQaq4POliDXWxh10piRH7khIpYBmJcJ4Kt8Hkj1qsiYVy4+scbqyLsT1rguArnWrOXp6Y2AiAV8QKpxmFcdh19fizf7MK8aNFZnFO0FcjFod18RS8TqOwZAqtlmC0gRd/nWpLE6OL4M5PosyDWjL7AtTtB6jYUBwitKGa7kfPNHXeOmRo3VafJBwOw8hD5NrQuD3OttNbFgAm5rnBUHlRSmVLPG4pheD86M43B24ntAriK0fGoitpZYDFeCs4IeQM6rinoy0FjEaxO64UGus4Dli4oCMIGwrSUW5lVHA1+6j7N3ViQYB75VbAFynYIP1Ckgl3AcgmIriYV51QHcWg9ttb3viFK+tQhMBrnOxIfqUGHyZwRaRyzMCfYGqT4OCGrdBVxlEGYwxxop/q7m1Cd5Cg0yrSIWzJUBzAn+Bm0v+mSiTOZYI8l1ID5YH4M1IGcGvTtVvpyl5eV6FWQ+AibghiV5AUvBGSbhsSDXu/ABa9Peta7d0xpimfWqDxVwDHQpPOom50SQ62Q4M95QciNCyN4KYnGzHr6kHwZgWQfX2nZohnOsoaJvB3K9lyda2banieka7yIFqTbEF/QiaKrT0YEbNKUTMycXYb4J58O/GcepLW0K5i7taLzGwryK3j+uWTWGVC4dXGNahj0xMmOrGmWorepGE8uYgLyy9CW2CDfprEDbNkdKtyHnW/DCvjlS+VkX21hi8TAYmIDvBPpO+4fkLQw6XrlB8nTMtw4OWmoBhTWWWDABXwaSzGnjCUuZjTsuHnOD5K6ZyRVVnEYSC524A/dXATmFLEUdPtaFHwJy/SPmW1tb5yg8YeOIxcVJkOpcVxOw8H4sQfxDMd86oQRBQ8jYOGLBBOS28dfCBNw4BEAqIxgCA5hvnQVrohFrif1QaRSx0Gnbmy32O/VruP5eCwK7mflWaVfLOoPVGGLBBBxvTq59uTMKypASAQbrvoMbTVNWmrquxhALJuCeNAHxaiE49Shyq4+n63Jz5Ilu2cpK3Qhi8VATfAXfj3mV9gOVMf4YT/hOmO67lyGuu5SNIBa8TW8FqY5xb75y1IjATMy3PgaTcLMaZYhWdfHEwldvN6DzOrwTo6GkgmMhMBsmIfuucU/RxOIEGCYgD+tv1ap+g0bhVjAJz8bHcecGtWlNU4omFhwWe6ANR8EMHNVhoaDa7Ifs3ozKaJpJWCyx0BFbQFudg2HTc81KQbXZE4sCHg6T8KQiJLUUslhiQVvxQJhZIo5lT+edbHMTldGYhf0iiQWbfBdoq/fqXMC82eIoHc/QP7MpB9EURywTZEtSzXLsOCXPHAForTfCJDw+czGtxCuOWMZhobAlq+4tLtEUkOtdWPC33vGdawuLIhY9RyYecCd5+3IdUpXlmokF/zcx9rNySTUWUBSxoK32hwl4JPGi00LkqnHkxKuasYRvQV8fGK+K+CUXQyx8wSYb9/o2HVjkEYw/QGqqgfcdn4c+37Km+itXWwyxMKl9G4h0VOUWq4BSEJiFPn99KcKOlLMIYsG9/mIIziDbCaUCLbmdEeAO8Dmm750z152hCGLBBDwF2qrVRxbXPVDqqB9zrf3R92+to+6qdWZPLLheeZLtX+At2ktUtaNamn8817ZKPCcja2Jh8joRrtdTMKgYbKunnQi8FI6Mj5bmyMiaWHC5ckfwkb2i19s51lrX6gNKi8jIllg8IpqHjoBUjd2+3Tp6eDZ4+qQZPKr6FEwLdvAsInm2bIm1/J5VM4HGQckRUYXZIQBSUaY9MC04LjvhRhEoS2Ix0BYgct1qr1KAlJzREdgEBHs7tFYRW0uyJBbmVtyqfWj0rlIFpSGwCz64x5cgdJbEwtzqVM2tShg+yWXcmFoL7vfpyWt2rDA7YsEMnCZt5diL7Uq+Kz+8GCdZH8yaFbEA1npwq54BbbVvu8aKWuuAwHrQWieZfXkO2dImzYpYaPpkaau0A6DQ2naC1jqLSzK5yp8VsbgHB9pqZq5gSa6sEDjMBBBkJVRHmGyIZfZbnQHBXpQlUhIqKwRgDu4MrfVXDHvLSjAjTDbE4lHD0FaH5QiSZMoTAZDrNdBaWUbmZEEsfHW2Qte9Bm+2NnOeQ6v1Uk2H1nobxs+GuSGRBbHo4YG2asUVmrkNgNLlMVoru1OdaieWOSfwVHQwtZYeIeCKALXWKblprdqJZTw7B7uiqfRCoIMAtNZf5jbXqpVY/MrQRgZA2YeoaBhnjcCLMY7m5CRhrcTC1pCpAOMgzK/G5gSKZCkPAWit4xBDmM09abUSa/HYeSQWT2DSIwSqIsBojDmwgsZVLShE/tqIBQBexGBKNKLYQxlDdIBvGQNTslwX9W1OkHxmrpXF7ZC1EQuTzZcCzQN0mq3fmBpcutIvY7Nz7YiP9StzaGItxIK2Wh8AvAWkktMih1HQHBm4y/hNOZyNUQux0I9cszqgOf2ZviUyBUfFnLuMa787rRZiwQzcF9pqz/TDsTk1yhQctS8n4S9/Aatokzp7Ozmx2GCYgaeh0bU2vE7QVXdcBGAOHomP9y5xa+ldenJiGadF1x3Cuu/KfijIFOyJ1Q5mS8lG9oiGTZmUWIPPPzYWDT4ZZuCO3Zqhy+TsO1emYG+soLWOwkd8mj2iYVMmJdaSwYem9HNayP1u18HSWH1xYnDu6/qmipQgKbFoBoI4PI9dT0UEpLH6A8gFY7je+TFP/iQlFr4gb0ILB5K3soEVSmNZdeoUhM3VslaajFjwBm4LKHRktNV46J9IGqs/RkixLT7mb6zjDMJkxDJmIMOY9ARAQBrLDkSYg0dj7CUP9E5CLHgDx+HL8WZAsZkdHErVDwFprH4Irf0792r9pXXqQAmTEMt4A3W6baBOYzHSWNZgjoXWOgFOjK5LPNalOCZMQiyzKJy0YY44FJdcGsupy3ZG/OAhTjkqJo5OLB6oaLZNb11RVmUfgoA0ltNwGIDWOjnlkdTRiYXt99sDgr218Os0EPomlsbqC9HIBLvAckpmNUUnFtYRtgOpstjV6dwVGWeQxnLunKmwnI5yzuWZISqxzIbGN0A2ncfu2UGjZZPGcgaUTozX8UgI55weGaISC/LwPAstCnt0TL8s0lj9EOr6951TrWlFJRYasQ2al8yu9YK60EzSWF4dtz3MwWO9cjpmikosRhdjfrWDo0xKboGANJYFSOsm4W2QJ+D8we28cjtkikYs2LIbQ479HWRRUgcEpLEcwBqelJEY0S/giEYsmoHQVlneXeTdJRlllMby7oxNkfMVsQNzoxELwtPFrhtEvPu/d0ZpLH9gYQ6+KvaaVhRi8WsAdft6NF0Xyfn3f8+c0liVgJ2G8fmKSiX0yRyFWIi2oJt9t5iCq2whUAEBfvAPNX6ACsWMnjUKsRBtITd7lO76c6EyBasBDHPwYLMcVK2gUXJHIRbU7NGaX0Xpr7WFyhSshu/0STO2xDiNduFhcGLx6lM0mSH62V24XK0rlLtJCEBjcdPtLIzX8THaFZxYUK/0BO6maPYY3SVTMCSqINds+AOmhSyzU1ZwYqFghjBtEUNYlflnBGQKBhkNU7EBcr8gJY0oJDixYLf+H2irgRjCqkwhEBgB3h9wYAxzMCixICAJNTNw41WcEIiGAMzBV2D6EvxW0aDEgoC8QoU7hvVERkDu9mAA87zL4KflBiUWBYQZSEH1REZAc6xgAG9lloeCFciCghLLhIno3qugXaTCEiCwH45HC+pwC0YszK/GAQCFMSUYBaoiLAKYZ81EtFDQeVYwYmE9gBsakx/lGxbickrTHCtoX02GtXVYyBKDEQuM3wLzKxErZO/0KEtzrKBATzAHzUwMVWowYoHxR0CozUMJpnKEQGIEXgKv9uRQdQYhFuZXjAuMsoIdqqEqRwj0QYD3Fgcbw0GIBYG53Xmquk4IFIwAg3FnhpI/CLGgQmkCRj/5JlSjVY4Q6IYA5lmHhDrQMwixDKm0fqXxWjoCU6EkgiiIIMSCbXoMPIJBF9hK7yHJXyQCW2MsHxBC8srEMucG7BJCGJUhBGpGYGOYg8eEiHavTCwsDHNjY/AgxpoBVvXtRYDnuw9UbX5lYmFhmCfe8vAYPUKgCQhQUVSe1lQmliEVz7nQIwSagMC2mGfNrNqQysSCEC+H44LrWHqEQBMQ2ACN2KNqQyoTCwKMek3PpGd0g0/VDlL+9AjAgXEEbiThpl3vpxKx4D3hwvC00WrXSU3e/aKM9SLAzbqVtpFUIhY8giRWJQHqxU+1C4GuCHBXcSVzsBKxjEdwQJ0jBBqGwKYwB4+r0qZKxGI0MMy9rasIoLxCIFMEdq4yz6pELADCE5m4JV+PEGgaAlyb9fZ2VyWWIi6aNpzUng4CjBv0dmt7EwseQd4xNGzHpdzrGpUNQmAz3vzo2x5vYsEjyLnVsBB7udd9u0H5MkVgRygQL454ZSII8AhyhVp3DGc6IiRWEAS4P2vApyRvYqEybmzUHVg+qCtPKQjsiHmW1zptFWJtBdPPq9JSUJWcrUeAl9Ol1Vhg8v6oVK721o+9RgPALVE8iNb58dJYmNBxfvUS59qUQQiUhcCGDMj1EdmLWKiI+6+CHW7oI7jyCIFECGxt7iVwqs6XWNRYOvXWCWolLhSBbUywuZP4XsSCC5IewUr7VZykVGIhUB8C22BpicEQTo8XsaitFHzrhLMSl4sAlQidGE6PF7HgEXwxallzQKfCmJzwVuLyEJjks5blRSxgM9DBR2FM5Y0USeyEAK/2cT6FzJdYlY+HcmqaEguB+hAYi6qd79X2JZZzRfXhopqFQDUEsJZ1sGsJvsRS8K0r0kpfMgKTTFCEdRuciWX2YckUtIZYCRuAwNZYYmLcoPXjTCwslrECrWFZQ6yEDUCAzjqn056diYUKeA6AE3sbAKya0G4ENoXL3en+N2diYRV6fWDsvGDW7n5R6wtHgJEXdLtbP87EorbC2pUTe62lUUIhkCcCjI112nvoQyxqK+0cznMASKo4CEyAy32WS9E+xOIkjgzWIwTahICTleZLrDYBqrYKASIw4AKDD7HkuHBBWGmbgsB4l4Y4Ewtux91dKlBaIdAQBMYjOIIecavHmVgo9UVWJSuREGgWAhMRHGG9SByFWNqj1awRpdasQYCmYFSN1XebsvZoaSg2EAEuMVl7w500FmxMstb7apMGgq0mtQeBSSbqyKrFTsQy6tDJO2IlhRIJgfwRoKVmPfZdicX0Ov02/0EgCcMjwPmVNV+sExo5RazwHaYSy0CACoXb9K0eV2J1vCNWhSuREGgQAiRVHGKZgzrlvGjQaFFTrBGwJhVLdNVYm8CVrk2O1n2hhA1CgFyx5ot1QgMQ/fjWi2QNAlVNEQKcY1k77pyIhThBaiunnZTqDyHQEAQmYvxbh/M5EctM3lzzNARXNaPlCHDcW1trriRx8uW3vCPU/GYhQOeFNV+sExqMnHz5zcJVrWk5AlG9gsT2hZYDrOa3EwGnce+qscjaP7YTV7W65QjEWyCesf3eywDuyn4Aaz9WP4T096Yj4KqxVoI0v+sHivZj9UNIfy8QAZqCz9vK7USsaS/ssxoFP2NbuNIJgQYhQFJZT4OciDVp9w1+a2MKNghMNUUIdBB4BlOhvtZaJ7ETsYxHcJWwzgOBgSkKgknYE9RWtNisHh9iWduZVhIokTcCg0v7+pG8y1bGdRDgHMva5e5KLJJKxNKoayMC1qQiOK7Eeg55+OoRAkKgBwJOxNpr89n0CFpP4IS8EGgQAlFNQeIkjZXJaJHzImlH0HFhPQ1y0limGX9I2hxVNioCcl4kHRzPuigVH2LJFZW0P0evTBoraUcMIkDCeqnJmVhYJLsTYU1OHpKkzW9RZdJYSTv7adQWj1jGeaF5VtI+7V6ZNFbSTiCprMe9s8ZC4fQMWjM3adNVmRCIh8BKhPRZT4N8iWXN3HjtVMkyBZOOAXoF4wThmmY8hZ/0kOipGQGZgkk74Dms41r7Fpw1FjwjNAVXJG2SKuuKgDRW0oHhNP1xJhbszMfRnOVJm6TKuiIgjZV0YAy61OZMLOO8UFiTC8pKWzoCjLhwGvM+xGLkhTRWBkNFpmCyTvjD9EkzbnepzZlYmMDRM7LEpRKljYOATME4uHYplcrkNy61ORPLFP6ESyVKGwcBaaw4uHYpdRARR05WmhexUMnPUfnvkzVLFcl5Ue8YoOPC6RAlL2KhkicRLyitVW9nj5HGStYBj+2z24Ekl/XjRSxU8j+ogSc26akRAc2xkoH/FHwL1uFMlMqLWMjHSpwYnAyCFlUkjZWms+ERnOdakxexwF6GNS12rUzpwyIgjRUWzx6lOSsRL2IZAR5J1ixV1BUBaawkA4Nxsc6OOm9iwTP4M1Q4zFOiyxCSdPTaSqSxkuC9AmP9IdeavImFiui8oEm49tFlCK7wV0svjVUNP5vcmF/R+z1snNvk8yYWoty5VXlYhdJYNpCHSyONFQ7L0Up6ZPmilRjr6YiFKPffgEjDQpukseJ39NAapLHi4w2N9QDGero5FprEaN/H4jdNNYyGgDRWkrHxuDmo1qkyb1PQ7KZ0ntQ5SafEPRGQxoo+QF6AKTjepxZvYrEyeEv+C+bgr3wqVp7qCEhjVcewTwlPwRS83qeWSsRCaBNJ9WufipWnOgLSWNUx7FPCr6E8FvnUUolYqJCewUGfipWnOgLSWNUx7FMCg2+9gs0rEcuENj0YvXmqoCsC0lhxBwbMwHswxr0OTqpELDPPuhE/rW9hiAtFu0qXxore397OucrEQtMehANjafQmqoJ1EJDGijoouJzkHQ9bmVjGgaEzMKL2cffCpbGigv4kHBf3+NZQmViwQZ9E5b9QOJNvF/jnk8byx65fTsyv7kcok7djrjKxzDzrB/ipHcX9eivw36WxAgM6vLh7EcrkPaaDEAvyPIzX6RSbqJC0pHBprGgdzT1Y9Ahan9U+UpIgxDK+fjkwovWz5liJoaUJ+ECVOoMQC8xm9MUvqgiivO4ISGO5Y2aZ45dHT3nbYsu0XZMFIZaZZ12Ln87h9VWEb3tezbHijAA4Ln6K+RWdct5PMGKZeRaPRdOTCAFprChA8wj1e2GFVbpcMRixMM9aApf7/ChNVaFdEZDGijIwBlFqpfkVpQpGLLMZzHtBLQpEDS9UGitKBz+OheHK8a/BiGXmWd+H1vIOA4kCkwoVAm4IPICF4WVuWdZNHZRYMAdJKm18rNoryl8XAivhuPju4bNf4Xx4zEiBgxILhXOl+v66UGlbvZpjBe9xbhHxjmgfKk1QYmGetRr26dUwBzkB1BMZAc2xggP8K6xf/TJEqUGJZQSiR6XSGkCIhqkMIeCBwP1Yvwpy8lhwYmGeRcbP92iUsgiBOhHgPcPXmKuAK8sRnFh0u8Mc/HddTFe5b1RAWgSewLh1vq5nNBGDE4sVQWvdjR/a/Jh2YKi2CghAW90LN3uwyKEoxEL7eMP4fRXaqaxCIDUCt8PNHuwovyjEgjn4B6jVr8Ec9N4olhpV1ddqBDhObwuJQBRiUUCoVa4HaLE4ZG+prCgIwAz8BdzsQS2saMSC23IxULgTWktHo0UZDio0IAJ3YLwGVQLRiMWwe5iDX0XjtbM44AhQUcER4DFnt2G8BlUA0YjF5sM7SPUaJEQkOJwqUAj8CYFfQQHMDw1GVGKZo9GCCx0aBJXXagTuhgIIEm0xFMWoxGJF+Bp8HfOsyvtbWt31anwsBJbBcXEVvdihK4hOLHwNeMjMHaEFV3lCoCoCINVCfPijjM3oxMLX4PcQ/gporcerAqH8QiAwArfjwx/FuRadWAQCa1o0BRXiFHhUqLhKCDB86cbQ3sCOREmIhTUCEuvmSjAosxAIi8BCLAoHC7odKVoSYpkNkP+Byh8Ni41KEwJeCHCLyLcRGxjFDKRESYjFimDLLsQ86zovGJRJCIRFYAnm/VHHYjJiQWs9i8Z8Sa73sCNEpXkhMM8cfOSV2SZTMmIZrbUAP6O4N20a26Q0Ou/CuzdXwAz8//jQr/QuwSJjUmLxomRorcuhtYKvdFu0tVFJdEKTd3c+iDH4E+/clhmTEstoLXpidESaZQeNlkwaywvAZ6GtvmGu9/UqwDZTcmJBaz0B4W6F1tLNJLa91CWdNJYXeHRa0AwMGsneTZLkxKIQaNw38GOxFzTKtAYBaSz3gQBt9V/mFDH3zI45aiEWGrcIct6sTZCOvTUkuTSWM3Y8j/362E6LjlS1EIuNg9b6IoRQ1Lvz+PhTBmksZ+DuRqRFMo90LcQiJOaINIU5OY8PZfBA4PcwA69ApEXQ7fe95KiNWGbB+N9gDtIsXOfB/3vgpyxCoCsCdLFfnxKb2og1RGt1XVNYvpGC4VMOhAbXtYqbGWEhLU7ZxlqJZRaML4V20rpWyl5vV13UVt8LdSa7LXS1Estorbvw80e2AiudEHBAYDW01TehrZI7yWonVsdDCK3F8971CIGQCDwEbfUtzudDFmpTVu3EMlqL52LcYCOw0ggBBwTugLaqZZqRBbGM1vo8tFaydQaHzlHSMhFYAjPwyzFOYLKBIwtiUdCTDz2XX5bv4/2jjeBKIwR6IPAC/nbrSa86/ad1oZQNsQgA7OErobVuqgsM1dsYBB6Gtvo8tBWPj67lyYpYRmv9J5AIfoBiLeiq0joQoKPiRmirn9VReafOrIhFoRDPdRW01jfxrq4TGNVdLAL3Q1t9IVWw7WgoZUcsxnPBJPwcBE6+9lDsUJLgHQSepsMC2opro7U+2RGLaJgA3auhtZ6uFR1VXhoC95qNjM/VLXiWxIIaf5p3ayFe8Mm6Acqxfm0Z6dorPBxmLubpD+fQZ1kSy2gtnkN4JX5flQNQOcmgTY5de2Phq/c88Qu59FO2xDKn514OoB7IBaxc5JDGWqcnOGXgBQfZjJVsiUXooNbvg9a6AG82gOVALmmsdXrhTmiri/Ax5sJwFk/WxCJC8PBcjR/flyPjz+NFGmsYd34DT+Al+Ag/kgWjjBDZE4ur53BkfBnyLnQFTruQXRErMv3PsPaZXbRO9sQyjgxeEv49EOXXLl2vXcguaBWZdim1FdY+s7vUsAhiQWutgtb6N3T9jUV2v4QOjgAItQKFzoW2ujV44QEKLIJYbCds6MdArouhtbh3S0/LEXhk+aLFcFh8AtqKNzNm9xRDLGMSLsBPBulqa0l2QympQDzO7HJz8GvSim0rK4pY3LQGrXUZtFaW6t8WdKWrjMCdGAdf51pn5ZIiFVAUsYxJ+BB+fhXvb7th0mRPYJPb5jC+H4W2+mdMDZIdvukg29qkxRGLkmNtixsiGZWxzoJgkz2BbFvL17C41+pH6P//9hnsKfMUSSxzHiHPyLipbV/xlkddLIDD4oI6dwbbkrNIYhmTkPu1voT3l20jl23nNizd/3ADI8PcSmhXscQyJuG3DLkGSwC7qoxt/oCAVNdgzeoHVTFMlb9oYg3Zt0WHRuMfzrFaSi5enPEVrFkVc3d10cTqeAkx2C7G78WA3vgvQNgG8pb7S+CwKOrKp+KJZUzC74BcPCej0fcao43cJbs07LjNuzSQ6lqsWV3FsLa8JR0uXSOIxYVj2N//joF3VUnge8j6OAbZB5GvLZEnDF/7Fzgssguy7dd3jSAWGwn7+1EMus/i13W8Rg1a+2F0P2Pjivp69xuEo/z9SWirT11w0uVFmYCdtjSGWGa+NR9a6+Mjb4ls0NoPCcUTiJ73HKylZONC8A0leQFHAtsoYpn51rfxk4fQJL+6JeaoNd5AxsYx2qTppuBtWAj+CKwQp/13MfF3LbtxxBoSqHs5BmNjjqo2oVokFLVVY9rVZcDeBxPwAnPcuOt4ziZ944hlTMI1e7fw+7xskK4oiNFYNAVfwMDreiF6xSpyyM7oin+Ba734Gz4bSSxDLjoxLsGAbMTisdFYg0Zjjc2BBYFl+CNI9XV8EL8Bq6P2k2yrtq2xxDLzLYY8MQq+CabTagw63h/GeVYTnRfz0a5/hQlY7LxqKBkbTSx8+Z7BYLwUWov7t4oejGgD13K4AM47n5q2EM551QfgWie5GvE0mljGJHwC5PoHXg1Uco/BFNwY8q+Y9sI+DN16ouS2jJD91yDVhU2YV7VGY3UaCvPiQZDrE/j3PaUOSHwYSKin8NIz2AhzCe1giNb16Jtrct5m7zNmGq+xhpDrbgzOj5b6tYfG2gKy84xymrf0mg36dHhGebgedwvWqz6ED1+WJy1Vwao1xCJIWMm/BuS6EG/W5yV061DITC8n51d0xDyDt/QF8J/DBDwvl2t3qpCoW95WEQsr+fzaXwEgeB1raV/JNWRCG/ilp+YqOV7wQZDqY3BW3BZ6QOdSXquIRdDxhfwtyPUZ/PqdXDrBUo5lcFx0lg3oFSx1rYeXGFwM6+EGy3YXmax1xDLkWgJy/T20FuMKS3mehLYaSiyahaU9a260B/bfRFuatmQwrC9aSSxDrofQwZ8EuW4rYLv7CrM4vKbzoLl+i69+idspboKz4n20Gkr7IrjK21piGXL9HD8vwTngWTszQPxfQs61LnZ87WkGZjlH7LFF5w6Q6r253WPlShjb9K0mFkHCwuRV+Pp/DoM35y3vXLvims/QZ9C2k1OmG2VT6QN0VoBUxa4jumLYemJxmwnIdRmA4+m6XICt7eljko70Ai6vTVC3ih8BqT4MjHmZRWue1hOLPQ1yLccc5tP49ZphKmHpSCURd1z0OB6b0ezDjtOGvHfh/2r9EFigwe31F4NU3wbGRcdqWrR1WBIRy8Bh7t86H1qDdx6veTLa0s9BOXLXMB0AOWstXrVzKdzqV5Z2wpIribqlF7GGoGJiCj+E/1oQAtyAZdBRMVJ90jNIrZXjsxqyfQ1aldeYZulkiQ2aiDUCYZBrwUGbH3saNNePY4NvU76Zd90HuYatW+HfJFqOO4mpXW/gUgZkbFIUvk13rU0jYnWBCwPiDgyM92FQ164ROO+CLN8bpVdzXCb4Edzq7wKGXCJo7SNijdL1GBiMY6MbfmGdowP186vf9fhsEO4O/I1xg7k8XAA+u/SDYEKAKWL1QBHerP+HwfteDG4uJNf10M0+WiQ751m57M36GUh1DkhV64eork4aWa+I1aMn4M16AQPlhzQLsfBZ14BhfOBod+1SW+XgGVwAgp8PrGo3nUWsXBCwkAMD5r/5NR5qFiaMLyR5ui6oMWYQf7vfogkxk9wNbM7EFpBWLQD3A1Qaqx9C5u8kF369FO+j/K8Udx0b8i4FgbpqJbiyqckWWzYhRrJ7oKk+Dmx+EqPwkssUsRx6D1/lz8AV/w5kedIhm3dSQ15uFxl1UyPM1OtQQR0OjIXQVO8AJt/wbmCDM4pYjp27z24Hcnv/BTQLY5uDKJ+E6hccTI9h6mtuqKk+AU011xG+1iQXsRy7mg4Nai5oijOR9aeO2V2TL0M9PXfawkxk5PjaMCzXCjzS/xSa6q+Awdc88rYmi4jl2dX8WmPQ/y2ye0U/WGo7Oi16hgTBTHzebIJMEZB7O0j115pT9R80IlZ/jEZNgQF2E+Zcp4MkzpN3S+cHw4NszrZgBEZsc/BWkOp0tPnOCpC1JquIVbGrMdB+DI3xN9zi71JUP41l/k5i9d1uAXNwMcxBnuse6+H5f2cyjjJWBU0rV8QK0KM0jUCud4IM1pP5fhpryH1Yoy0Or5WcW/VR/3fxH0sCNGdoEc/zBhCQ6lS08e7AZTe6OBErUPfSRDLkutGmSEuNRbe+lSsdWutOkCDkqVPcT/WvnEeibV7zSBscmppGxArYszSVMBDPAmn6mmX9NBbEegFlfQtlWsUCQmutRHoSK4TWYgziP6G8j6D+EOUFRLmMokSswP3EIFQMSIY//QeK7mvGdaveaDNGWzziIh601jwQ4lqXPF3SLmE0BXb+/nOb91NVxHCMiFUVwS75MSAfxsD8AAjyOfyZR0P7PNzYuMwlozkEkx5K3w2GC0Gq9yOq/1KU1fiz/1ywdU0rYrkiZpkeA/NXGKDngVyfQhYfVzhPinWOXAehvwNy8KI96wfpGeExF06KOVz4xSJ46RcuWLc9VkIRKxayKBcD9Hcg18ew1jUHBHM9ufZBmHbO8xsQmqfmMn5vvmXTnsWBpT82nr/GXIZu2fZoyUSsaND+qWAe+wXTkGdAnA1yXYu377oUsv0B6a8GSaw8gl2asAhE+biFKcnjyT6NtG+HjA9EhqJVxYtYibobA3ceF5JR3bCzC0epnqaYsxnYKQt1PQVtdztIc2Pn//D7yKrm895fmI4XIf2arTB6wiEgYoXDsm9JGMD3glzvgdb6IhL3cmrwgM6qDwN4vwjyrDlWAOZepzx6Kq+nlsJ86kvQik4OkqpCtSW/iJW4p0GuhzDvIrk+iapH0xQT8Lftbpp7/bgK4j0HrbUAGulckOsWowFp+n3OxPzNr1C2svZBIMSXUSB7IvCVmy+avejRuy7AYvGhnSI6ERnQNp8HMT4CjfIbl+JBxolIvxHeDfGuj3dTvJMXj503A3WN4wE5mPf5zt1cRGl1WhGr5u4HufbAgKdL/tUdUUCqP4JU3O9E7x6jybl9hEdMs7+oxWhpdF6ShyTaCu90vFPxDuClqcmoDUa+84y/J1xJWjM0RVcvYmXQfSDXriDXhyHK8XgngFjPglid8wS5z4qeRF6KQDKNNwTr/JukooaiZiKh+DufFXgfxsvA4K+CVAqiTdjX/NrpqRkBOjUWLJt7xpXXXbYapNoDpJoCkbbDS+3j+9AkJNlI0JEXKviWqXyWCMh5YQlU7GSY96yAo+H9IBVPgmI4EzVT1YfkWj1p9w0Gqxak/G4IiFhueEVNDXONB8fw1sNQF3ORUD8EabseUR21MS0vXMTKbwCQBDz9NsQzd+9Zu14RoiCV4YaAiOWGV/TUxmzzjU4fKt8KlPX5gfW2C6X9ore9SRWIWJn1Jsw2nsq0OIBY9+44sJNr4G+AalUEERCx8hwHnGsNu3PYQ8xboK249URPDQiIWDWAblElA/uqxPAxgLfnQZ8WMihJBQRErArgxcoKhwO31z9Yofw7UMaNFfIra0UERKyKAMbIbhwOTuddjJDjAZSheMAYnWNZpohlCVQNyaoQi+FMempEQMSqEfxeVcNVzosOfA50YVyhT75MkShTLBEr335jRDoj010frl/d6ppJ6cMiIGKFxTNYaViD4iKxz73H3C6S5GK8YI1tYEEiVqadCucDTTofgjAcStEWNferiFVzB/Spnuaga9zgILRdiruy8kauZulErJo7oI8D48f4u9PWfKRntIX2X9XcryJWzR3Qq3ponvvxd9eAXLraq4ZDZYxKGaKJWHn3E88XdD3z76mNxkySxqq5X0WsmjugV/VwYJAgrjGDKzdYb6LNabsZt7x80USs/PvQNULd5s7i/FtduIQiVv4dyCgKF9POJW3+rS9UQhEr845DFMUdEHHQQUyZgQ5gxUoqYsVCNly5DGtyWZcSscJh712SiOUNXZqMcLkvQU0ua1le17OmaU17ahGx8u9rutx5DobtI41li1TEdCJWRHADFU1nBA/wtH1ELFukIqYTsSKCG6JoE4zrckG4iBUC+IpliFgVAUyU3SVaXRdzJ+qUXtWIWBl0goUItl5BntPOo9P01IyAiFVzB9hUD7LwNnsbcq2//J5VvKVET80IiFg1d4Bl9VzLst2XpTmWJagxk4lYMdENVzbjBW3mTs/JFAwHepWSRKwq6CXKaxaJbYJxx8MUnJxILFXTAwERq4zhwY2LtlHrvDpVT80IiFg1d4Bl9SSWbaiSrr+1BDVmMhErJrrhynbRWLqwPRzu3iWJWN7QpcuIrfZ0XNiagiJWuq4ZtSYRK4NOsBTBdgOjiGUJaMxkIlZMdAOV/cyY5Zw32a5PiViBcK9SjIhVBb1Eec2pS7bOCxErUb/0qkbEyqATLEWwPStQfWoJaMxk6oSY6IYrm6SSKRgOz+gliVjRIQ5WgZwXwaCMX5CIFR/jEDVQY9kSy9ZkDCGXyhgFARGrjKFBM1CmYBl9tUZKEauAzsKR0S4aa1wBTWq8iCJWOV28ylLU8ZbplCwiAiJWRHADF/20ZXkKwrUEKmYyESsmumHLfhDF2WzPl8YKi7tXaSKWF2zpM2Fn8JWo9TK8d+Fd0UMC9Wn67lmnRoW/ZNAJLiIMPv/YxksGHzoMO4VPRL598U7Fu9mQMr6096xdT8V5hHK7uwAbOK3s8cCAxi4OhOFc61q+INlEkOwgkOw0/HsvvJvgdTnnPba4rS1fxCq460EyHuT5I76rnl857ie33HoGfn9Y2qrgTpXoQkAICAEhIASEgBAQAqUj8L8DuBsUobtgjQAAAABJRU5ErkJggg==;spacing=-4;fontSize=7;" parent="1" vertex="1">
          <mxGeometry x="389.63" y="323.41" width="15.37" height="31.59" as="geometry" />
        </mxCell>
        <mxCell id="Gsie5pIUD7Cidm-WCp7G-8" value="Mongodb" style="shape=image;verticalLabelPosition=bottom;labelBackgroundColor=#ffffff;verticalAlign=top;aspect=fixed;imageAspect=0;image=data:image/png,iVBORw0KGgoAAAANSUhEUgAAANYAAAG4CAYAAAA5ahmwAAAwx0lEQVR4Xu19C7heRXl1QggkIHDCPQRIImi4E0CuIVwUxSpQ/kdE1CgKFLAoqOWvWkW8QlvBp9UqQn+rFouIt1+RorQgGEAQMSFIIFxjJFzUJocoREKErhXni+ecfOf7ZmbPzJ7Ze+3n2c85yZnLO2tm7fedd96ZGTNGjxAQAkJACAgBISAEhIAQEAJCQAgIASEgBISAEBACQkAICAEhIASaj8BNc68/YsGyuS9tfkub08L1mtOU5rZk8dh5h89bePsbBp9/TP1VSDero8roqI0WPXrXEUsGH9qpDHElpYhVxhjYAGJutfyeVdPLEFdSilgFjAFoq/0g5g4/XPrls2AOjitA5NaLKGJlPgRApLEQcQLegUeWL9ob5qCcGJn3GcUTsTLvJEOkLZdvtISSTr3yuss+KK2VeaeJWPl3ELyBx4BUQ+dWu911y70z85e83RJKY2Xc/9BM69NpMVREmIO7w/3+MmMiZix9u0UTsTLuf5iB0+G4eOUIETfA/x2Dv03NWPTWiyZiZTwEYAa+Bmbgvh0RB6ZMXPMrtNYh+NvLMha99aKJWJkOAYQw7QDNdOJQ8QaXruz8c3P87U1Is12m4rdeLBEr0yEAjfRqaKv9h4rX0VhGa82W1sq08+QVzLNjoIk4t3o7pBvfQ8ItkeYkODH+ZB/qyQoBaaysumPMGJBqE2iik6GtDu4nGuZax/zjVe87p186/T09AiJWesx71ghSnXTbsqvPthRrE6SbBTJOtkyvZIkQELESAW1TzVduvugEmHcfQNpJNunNXOsgzbVs0UqXTsRKh3XPmqB19iSpRkRZ2EjHudZfI/9LbBIrTRoERKw0OPcj1R6IAfzs0DUrF7Ew1zoK+c9QDKELanHTilhx8e1bOjTNDJDi0yDV4X0Tj55gfZDrtYgh1KJxBRBDZhWxQqLpWBZItQfmR+eDVCPDlhxLWpN8F+zXOhNlbuqTWXnCIsAgTz01IAAC7ENNhaoPH7NRGAGgtV6OXcYHobTrwpSoUnwR4CY6PQkRMOtUc+BwOBuaahfXqoeENXXNOn3SjP886VWnv2OvzWev2cClpx4EZAomxB2k2hym3zkg1fk03SY9s2Pw2qG1XgNN+G6d6BQcWqcCZQo6weWfGKTaBqQ6F6Q6DZpqwL+k/jlBrtd/99Yrvo+UN/RPrRQxEJDGioHqiDJBqp3opEBExVn400AMTTWiyu1B4HNQ7xYJmqcquiAgjRV5WHDhF6bZxajmSDgp1jdnV3jXygj3fvMsFg6tdRjIfCR+/aZ3ZcrojYA0ljd0/TOCVHuBVJ+hOx1vkI+YDamMZAPQWn+HMKlZ/SVVitAIiFihETXlgVT7gVSXgFBHhKqCJuTQPVn9yoXW2gfk+ghN0X5p9fewCMjdHhbPMTwABhEQx2KxlnF/wzYqhqjKQWOtrQ4u+K/CBf8+uOAfCyGDyuiPQBDzpH817UgBUm0Ib9ycRUvvOtdnjcoGJds51oiyjoX2/B3kO3tgve1W29SjNNUQkClYDb+1uTFoJ4BUb4Xp9cFYpPIVFSbhZniPh3xvNEeq+RalfJYISGNZAtUrGQbrRhi0p4JU/xek2iFAkTGKmPyDu6+6EDLujMK5QK0nIgLSWBXB5ZkTINVpGLB/mzGpOq2cgl9OgqfwmIrNVvY+CMh5UWGIGFKdYTRVsqPIfBwYI5p536v3PPE9Jx967g8qNF9ZeyAgjeU5PECq8dBUbwap3gNNlYxUnuKOzLYLzMJPQXMdEag8FTMCARHLY0jw3HSQ6kTjqAgfSeshk0eWPSD/xSBXlQ2WHtW2I4uI5dHPWKc6jlENyDrNI3s2WeAp3Bft+LQ0V/gu0RzLEVMMwldiMF6EbHtVjftzrHpt8gBzrGFVYwF5/ozt9+ac60ZfmZRvOAIilsOIAKn2B6kuBaH2ccgWPGloYlFAkOtOkOvdINfNwQVuYYEyBS07nYe+cE4ylFQJtn9YSlc9GczC/YxZeEj10lSCiGUxBkCqHRESdCGSzmbyDqHqMgUtRPZKAnLtD2/hP90093qem6GnAgIiVh/wQKqtsK/p3Uh2dIdITSPUCAj2/8IvPnAhPyYVxlXrs4pYPYaAOfjldJhIbwOZAp2lVMSYOwIa+h9ELv++ErFGwQ6DagI01dtBqneCVNZnqft3RV45YRaeAHJ9AjgwDEqPIwIiVhfAMJjWA6mON1EV2zpi2pTkPF339SDX+TwIpymNStUOEasL0iDVUTyiDJpqWqqOcKnHZRexS7ld0k4Aud4Acr0f5Gqd1q6CnYg1Aj2sVTEa4ZO57akaKmaMdaweg2hTkGsOyGV7Z1eV8diYvCLWkK7kZB2kugCkyvpygYQaq4POliDXWxh10piRH7khIpYBmJcJ4Kt8Hkj1qsiYVy4+scbqyLsT1rguArnWrOXp6Y2AiAV8QKpxmFcdh19fizf7MK8aNFZnFO0FcjFod18RS8TqOwZAqtlmC0gRd/nWpLE6OL4M5PosyDWjL7AtTtB6jYUBwitKGa7kfPNHXeOmRo3VafJBwOw8hD5NrQuD3OttNbFgAm5rnBUHlRSmVLPG4pheD86M43B24ntAriK0fGoitpZYDFeCs4IeQM6rinoy0FjEaxO64UGus4Dli4oCMIGwrSUW5lVHA1+6j7N3ViQYB75VbAFynYIP1Ckgl3AcgmIriYV51QHcWg9ttb3viFK+tQhMBrnOxIfqUGHyZwRaRyzMCfYGqT4OCGrdBVxlEGYwxxop/q7m1Cd5Cg0yrSIWzJUBzAn+Bm0v+mSiTOZYI8l1ID5YH4M1IGcGvTtVvpyl5eV6FWQ+AibghiV5AUvBGSbhsSDXu/ABa9Peta7d0xpimfWqDxVwDHQpPOom50SQ62Q4M95QciNCyN4KYnGzHr6kHwZgWQfX2nZohnOsoaJvB3K9lyda2banieka7yIFqTbEF/QiaKrT0YEbNKUTMycXYb4J58O/GcepLW0K5i7taLzGwryK3j+uWTWGVC4dXGNahj0xMmOrGmWorepGE8uYgLyy9CW2CDfprEDbNkdKtyHnW/DCvjlS+VkX21hi8TAYmIDvBPpO+4fkLQw6XrlB8nTMtw4OWmoBhTWWWDABXwaSzGnjCUuZjTsuHnOD5K6ZyRVVnEYSC524A/dXATmFLEUdPtaFHwJy/SPmW1tb5yg8YeOIxcVJkOpcVxOw8H4sQfxDMd86oQRBQ8jYOGLBBOS28dfCBNw4BEAqIxgCA5hvnQVrohFrif1QaRSx0Gnbmy32O/VruP5eCwK7mflWaVfLOoPVGGLBBBxvTq59uTMKypASAQbrvoMbTVNWmrquxhALJuCeNAHxaiE49Shyq4+n63Jz5Ilu2cpK3Qhi8VATfAXfj3mV9gOVMf4YT/hOmO67lyGuu5SNIBa8TW8FqY5xb75y1IjATMy3PgaTcLMaZYhWdfHEwldvN6DzOrwTo6GkgmMhMBsmIfuucU/RxOIEGCYgD+tv1ap+g0bhVjAJz8bHcecGtWlNU4omFhwWe6ANR8EMHNVhoaDa7Ifs3ozKaJpJWCyx0BFbQFudg2HTc81KQbXZE4sCHg6T8KQiJLUUslhiQVvxQJhZIo5lT+edbHMTldGYhf0iiQWbfBdoq/fqXMC82eIoHc/QP7MpB9EURywTZEtSzXLsOCXPHAForTfCJDw+czGtxCuOWMZhobAlq+4tLtEUkOtdWPC33vGdawuLIhY9RyYecCd5+3IdUpXlmokF/zcx9rNySTUWUBSxoK32hwl4JPGi00LkqnHkxKuasYRvQV8fGK+K+CUXQyx8wSYb9/o2HVjkEYw/QGqqgfcdn4c+37Km+itXWwyxMKl9G4h0VOUWq4BSEJiFPn99KcKOlLMIYsG9/mIIziDbCaUCLbmdEeAO8Dmm750z152hCGLBBDwF2qrVRxbXPVDqqB9zrf3R92+to+6qdWZPLLheeZLtX+At2ktUtaNamn8817ZKPCcja2Jh8joRrtdTMKgYbKunnQi8FI6Mj5bmyMiaWHC5ckfwkb2i19s51lrX6gNKi8jIllg8IpqHjoBUjd2+3Tp6eDZ4+qQZPKr6FEwLdvAsInm2bIm1/J5VM4HGQckRUYXZIQBSUaY9MC04LjvhRhEoS2Ix0BYgct1qr1KAlJzREdgEBHs7tFYRW0uyJBbmVtyqfWj0rlIFpSGwCz64x5cgdJbEwtzqVM2tShg+yWXcmFoL7vfpyWt2rDA7YsEMnCZt5diL7Uq+Kz+8GCdZH8yaFbEA1npwq54BbbVvu8aKWuuAwHrQWieZfXkO2dImzYpYaPpkaau0A6DQ2naC1jqLSzK5yp8VsbgHB9pqZq5gSa6sEDjMBBBkJVRHmGyIZfZbnQHBXpQlUhIqKwRgDu4MrfVXDHvLSjAjTDbE4lHD0FaH5QiSZMoTAZDrNdBaWUbmZEEsfHW2Qte9Bm+2NnOeQ6v1Uk2H1nobxs+GuSGRBbHo4YG2asUVmrkNgNLlMVoru1OdaieWOSfwVHQwtZYeIeCKALXWKblprdqJZTw7B7uiqfRCoIMAtNZf5jbXqpVY/MrQRgZA2YeoaBhnjcCLMY7m5CRhrcTC1pCpAOMgzK/G5gSKZCkPAWit4xBDmM09abUSa/HYeSQWT2DSIwSqIsBojDmwgsZVLShE/tqIBQBexGBKNKLYQxlDdIBvGQNTslwX9W1OkHxmrpXF7ZC1EQuTzZcCzQN0mq3fmBpcutIvY7Nz7YiP9StzaGItxIK2Wh8AvAWkktMih1HQHBm4y/hNOZyNUQux0I9cszqgOf2ZviUyBUfFnLuMa787rRZiwQzcF9pqz/TDsTk1yhQctS8n4S9/Aatokzp7Ozmx2GCYgaeh0bU2vE7QVXdcBGAOHomP9y5xa+ldenJiGadF1x3Cuu/KfijIFOyJ1Q5mS8lG9oiGTZmUWIPPPzYWDT4ZZuCO3Zqhy+TsO1emYG+soLWOwkd8mj2iYVMmJdaSwYem9HNayP1u18HSWH1xYnDu6/qmipQgKbFoBoI4PI9dT0UEpLH6A8gFY7je+TFP/iQlFr4gb0ILB5K3soEVSmNZdeoUhM3VslaajFjwBm4LKHRktNV46J9IGqs/RkixLT7mb6zjDMJkxDJmIMOY9ARAQBrLDkSYg0dj7CUP9E5CLHgDx+HL8WZAsZkdHErVDwFprH4Irf0792r9pXXqQAmTEMt4A3W6baBOYzHSWNZgjoXWOgFOjK5LPNalOCZMQiyzKJy0YY44FJdcGsupy3ZG/OAhTjkqJo5OLB6oaLZNb11RVmUfgoA0ltNwGIDWOjnlkdTRiYXt99sDgr218Os0EPomlsbqC9HIBLvAckpmNUUnFtYRtgOpstjV6dwVGWeQxnLunKmwnI5yzuWZISqxzIbGN0A2ncfu2UGjZZPGcgaUTozX8UgI55weGaISC/LwPAstCnt0TL8s0lj9EOr6951TrWlFJRYasQ2al8yu9YK60EzSWF4dtz3MwWO9cjpmikosRhdjfrWDo0xKboGANJYFSOsm4W2QJ+D8we28cjtkikYs2LIbQ479HWRRUgcEpLEcwBqelJEY0S/giEYsmoHQVlneXeTdJRlllMby7oxNkfMVsQNzoxELwtPFrhtEvPu/d0ZpLH9gYQ6+KvaaVhRi8WsAdft6NF0Xyfn3f8+c0liVgJ2G8fmKSiX0yRyFWIi2oJt9t5iCq2whUAEBfvAPNX6ACsWMnjUKsRBtITd7lO76c6EyBasBDHPwYLMcVK2gUXJHIRbU7NGaX0Xpr7WFyhSshu/0STO2xDiNduFhcGLx6lM0mSH62V24XK0rlLtJCEBjcdPtLIzX8THaFZxYUK/0BO6maPYY3SVTMCSqINds+AOmhSyzU1ZwYqFghjBtEUNYlflnBGQKBhkNU7EBcr8gJY0oJDixYLf+H2irgRjCqkwhEBgB3h9wYAxzMCixICAJNTNw41WcEIiGAMzBV2D6EvxW0aDEgoC8QoU7hvVERkDu9mAA87zL4KflBiUWBYQZSEH1REZAc6xgAG9lloeCFciCghLLhIno3qugXaTCEiCwH45HC+pwC0YszK/GAQCFMSUYBaoiLAKYZ81EtFDQeVYwYmE9gBsakx/lGxbickrTHCtoX02GtXVYyBKDEQuM3wLzKxErZO/0KEtzrKBATzAHzUwMVWowYoHxR0CozUMJpnKEQGIEXgKv9uRQdQYhFuZXjAuMsoIdqqEqRwj0QYD3Fgcbw0GIBYG53Xmquk4IFIwAg3FnhpI/CLGgQmkCRj/5JlSjVY4Q6IYA5lmHhDrQMwixDKm0fqXxWjoCU6EkgiiIIMSCbXoMPIJBF9hK7yHJXyQCW2MsHxBC8srEMucG7BJCGJUhBGpGYGOYg8eEiHavTCwsDHNjY/AgxpoBVvXtRYDnuw9UbX5lYmFhmCfe8vAYPUKgCQhQUVSe1lQmliEVz7nQIwSagMC2mGfNrNqQysSCEC+H44LrWHqEQBMQ2ACN2KNqQyoTCwKMek3PpGd0g0/VDlL+9AjAgXEEbiThpl3vpxKx4D3hwvC00WrXSU3e/aKM9SLAzbqVtpFUIhY8giRWJQHqxU+1C4GuCHBXcSVzsBKxjEdwQJ0jBBqGwKYwB4+r0qZKxGI0MMy9rasIoLxCIFMEdq4yz6pELADCE5m4JV+PEGgaAlyb9fZ2VyWWIi6aNpzUng4CjBv0dmt7EwseQd4xNGzHpdzrGpUNQmAz3vzo2x5vYsEjyLnVsBB7udd9u0H5MkVgRygQL454ZSII8AhyhVp3DGc6IiRWEAS4P2vApyRvYqEybmzUHVg+qCtPKQjsiHmW1zptFWJtBdPPq9JSUJWcrUeAl9Ol1Vhg8v6oVK721o+9RgPALVE8iNb58dJYmNBxfvUS59qUQQiUhcCGDMj1EdmLWKiI+6+CHW7oI7jyCIFECGxt7iVwqs6XWNRYOvXWCWolLhSBbUywuZP4XsSCC5IewUr7VZykVGIhUB8C22BpicEQTo8XsaitFHzrhLMSl4sAlQidGE6PF7HgEXwxallzQKfCmJzwVuLyEJjks5blRSxgM9DBR2FM5Y0USeyEAK/2cT6FzJdYlY+HcmqaEguB+hAYi6qd79X2JZZzRfXhopqFQDUEsJZ1sGsJvsRS8K0r0kpfMgKTTFCEdRuciWX2YckUtIZYCRuAwNZYYmLcoPXjTCwslrECrWFZQ6yEDUCAzjqn056diYUKeA6AE3sbAKya0G4ENoXL3en+N2diYRV6fWDsvGDW7n5R6wtHgJEXdLtbP87EorbC2pUTe62lUUIhkCcCjI112nvoQyxqK+0cznMASKo4CEyAy32WS9E+xOIkjgzWIwTahICTleZLrDYBqrYKASIw4AKDD7HkuHBBWGmbgsB4l4Y4Ewtux91dKlBaIdAQBMYjOIIecavHmVgo9UVWJSuREGgWAhMRHGG9SByFWNqj1awRpdasQYCmYFSN1XebsvZoaSg2EAEuMVl7w500FmxMstb7apMGgq0mtQeBSSbqyKrFTsQy6tDJO2IlhRIJgfwRoKVmPfZdicX0Ov02/0EgCcMjwPmVNV+sExo5RazwHaYSy0CACoXb9K0eV2J1vCNWhSuREGgQAiRVHGKZgzrlvGjQaFFTrBGwJhVLdNVYm8CVrk2O1n2hhA1CgFyx5ot1QgMQ/fjWi2QNAlVNEQKcY1k77pyIhThBaiunnZTqDyHQEAQmYvxbh/M5EctM3lzzNARXNaPlCHDcW1trriRx8uW3vCPU/GYhQOeFNV+sExqMnHz5zcJVrWk5AlG9gsT2hZYDrOa3EwGnce+qscjaP7YTV7W65QjEWyCesf3eywDuyn4Aaz9WP4T096Yj4KqxVoI0v+sHivZj9UNIfy8QAZqCz9vK7USsaS/ssxoFP2NbuNIJgQYhQFJZT4OciDVp9w1+a2MKNghMNUUIdBB4BlOhvtZaJ7ETsYxHcJWwzgOBgSkKgknYE9RWtNisHh9iWduZVhIokTcCg0v7+pG8y1bGdRDgHMva5e5KLJJKxNKoayMC1qQiOK7Eeg55+OoRAkKgBwJOxNpr89n0CFpP4IS8EGgQAlFNQeIkjZXJaJHzImlH0HFhPQ1y0limGX9I2hxVNioCcl4kHRzPuigVH2LJFZW0P0evTBoraUcMIkDCeqnJmVhYJLsTYU1OHpKkzW9RZdJYSTv7adQWj1jGeaF5VtI+7V6ZNFbSTiCprMe9s8ZC4fQMWjM3adNVmRCIh8BKhPRZT4N8iWXN3HjtVMkyBZOOAXoF4wThmmY8hZ/0kOipGQGZgkk74Dms41r7Fpw1FjwjNAVXJG2SKuuKgDRW0oHhNP1xJhbszMfRnOVJm6TKuiIgjZV0YAy61OZMLOO8UFiTC8pKWzoCjLhwGvM+xGLkhTRWBkNFpmCyTvjD9EkzbnepzZlYmMDRM7LEpRKljYOATME4uHYplcrkNy61ORPLFP6ESyVKGwcBaaw4uHYpdRARR05WmhexUMnPUfnvkzVLFcl5Ue8YoOPC6RAlL2KhkicRLyitVW9nj5HGStYBj+2z24Ekl/XjRSxU8j+ogSc26akRAc2xkoH/FHwL1uFMlMqLWMjHSpwYnAyCFlUkjZWms+ERnOdakxexwF6GNS12rUzpwyIgjRUWzx6lOSsRL2IZAR5J1ixV1BUBaawkA4Nxsc6OOm9iwTP4M1Q4zFOiyxCSdPTaSqSxkuC9AmP9IdeavImFiui8oEm49tFlCK7wV0svjVUNP5vcmF/R+z1snNvk8yYWoty5VXlYhdJYNpCHSyONFQ7L0Up6ZPmilRjr6YiFKPffgEjDQpukseJ39NAapLHi4w2N9QDGero5FprEaN/H4jdNNYyGgDRWkrHxuDmo1qkyb1PQ7KZ0ntQ5SafEPRGQxoo+QF6AKTjepxZvYrEyeEv+C+bgr3wqVp7qCEhjVcewTwlPwRS83qeWSsRCaBNJ9WufipWnOgLSWNUx7FPCr6E8FvnUUolYqJCewUGfipWnOgLSWNUx7FMCg2+9gs0rEcuENj0YvXmqoCsC0lhxBwbMwHswxr0OTqpELDPPuhE/rW9hiAtFu0qXxore397OucrEQtMehANjafQmqoJ1EJDGijoouJzkHQ9bmVjGgaEzMKL2cffCpbGigv4kHBf3+NZQmViwQZ9E5b9QOJNvF/jnk8byx65fTsyv7kcok7djrjKxzDzrB/ipHcX9eivw36WxAgM6vLh7EcrkPaaDEAvyPIzX6RSbqJC0pHBprGgdzT1Y9Ahan9U+UpIgxDK+fjkwovWz5liJoaUJ+ECVOoMQC8xm9MUvqgiivO4ISGO5Y2aZ45dHT3nbYsu0XZMFIZaZZ12Ln87h9VWEb3tezbHijAA4Ln6K+RWdct5PMGKZeRaPRdOTCAFprChA8wj1e2GFVbpcMRixMM9aApf7/ChNVaFdEZDGijIwBlFqpfkVpQpGLLMZzHtBLQpEDS9UGitKBz+OheHK8a/BiGXmWd+H1vIOA4kCkwoVAm4IPICF4WVuWdZNHZRYMAdJKm18rNoryl8XAivhuPju4bNf4Xx4zEiBgxILhXOl+v66UGlbvZpjBe9xbhHxjmgfKk1QYmGetRr26dUwBzkB1BMZAc2xggP8K6xf/TJEqUGJZQSiR6XSGkCIhqkMIeCBwP1Yvwpy8lhwYmGeRcbP92iUsgiBOhHgPcPXmKuAK8sRnFh0u8Mc/HddTFe5b1RAWgSewLh1vq5nNBGDE4sVQWvdjR/a/Jh2YKi2CghAW90LN3uwyKEoxEL7eMP4fRXaqaxCIDUCt8PNHuwovyjEgjn4B6jVr8Ec9N4olhpV1ddqBDhObwuJQBRiUUCoVa4HaLE4ZG+prCgIwAz8BdzsQS2saMSC23IxULgTWktHo0UZDio0IAJ3YLwGVQLRiMWwe5iDX0XjtbM44AhQUcER4DFnt2G8BlUA0YjF5sM7SPUaJEQkOJwqUAj8CYFfQQHMDw1GVGKZo9GCCx0aBJXXagTuhgIIEm0xFMWoxGJF+Bp8HfOsyvtbWt31anwsBJbBcXEVvdihK4hOLHwNeMjMHaEFV3lCoCoCINVCfPijjM3oxMLX4PcQ/gporcerAqH8QiAwArfjwx/FuRadWAQCa1o0BRXiFHhUqLhKCDB86cbQ3sCOREmIhTUCEuvmSjAosxAIi8BCLAoHC7odKVoSYpkNkP+Byh8Ni41KEwJeCHCLyLcRGxjFDKRESYjFimDLLsQ86zovGJRJCIRFYAnm/VHHYjJiQWs9i8Z8Sa73sCNEpXkhMM8cfOSV2SZTMmIZrbUAP6O4N20a26Q0Ou/CuzdXwAz8//jQr/QuwSJjUmLxomRorcuhtYKvdFu0tVFJdEKTd3c+iDH4E+/clhmTEstoLXpidESaZQeNlkwaywvAZ6GtvmGu9/UqwDZTcmJBaz0B4W6F1tLNJLa91CWdNJYXeHRa0AwMGsneTZLkxKIQaNw38GOxFzTKtAYBaSz3gQBt9V/mFDH3zI45aiEWGrcIct6sTZCOvTUkuTSWM3Y8j/362E6LjlS1EIuNg9b6IoRQ1Lvz+PhTBmksZ+DuRqRFMo90LcQiJOaINIU5OY8PZfBA4PcwA69ApEXQ7fe95KiNWGbB+N9gDtIsXOfB/3vgpyxCoCsCdLFfnxKb2og1RGt1XVNYvpGC4VMOhAbXtYqbGWEhLU7ZxlqJZRaML4V20rpWyl5vV13UVt8LdSa7LXS1Estorbvw80e2AiudEHBAYDW01TehrZI7yWonVsdDCK3F8971CIGQCDwEbfUtzudDFmpTVu3EMlqL52LcYCOw0ggBBwTugLaqZZqRBbGM1vo8tFaydQaHzlHSMhFYAjPwyzFOYLKBIwtiUdCTDz2XX5bv4/2jjeBKIwR6IPAC/nbrSa86/ad1oZQNsQgA7OErobVuqgsM1dsYBB6Gtvo8tBWPj67lyYpYRmv9J5AIfoBiLeiq0joQoKPiRmirn9VReafOrIhFoRDPdRW01jfxrq4TGNVdLAL3Q1t9IVWw7WgoZUcsxnPBJPwcBE6+9lDsUJLgHQSepsMC2opro7U+2RGLaJgA3auhtZ6uFR1VXhoC95qNjM/VLXiWxIIaf5p3ayFe8Mm6Acqxfm0Z6dorPBxmLubpD+fQZ1kSy2gtnkN4JX5flQNQOcmgTY5de2Phq/c88Qu59FO2xDKn514OoB7IBaxc5JDGWqcnOGXgBQfZjJVsiUXooNbvg9a6AG82gOVALmmsdXrhTmiri/Ax5sJwFk/WxCJC8PBcjR/flyPjz+NFGmsYd34DT+Al+Ag/kgWjjBDZE4ur53BkfBnyLnQFTruQXRErMv3PsPaZXbRO9sQyjgxeEv49EOXXLl2vXcguaBWZdim1FdY+s7vUsAhiQWutgtb6N3T9jUV2v4QOjgAItQKFzoW2ujV44QEKLIJYbCds6MdArouhtbh3S0/LEXhk+aLFcFh8AtqKNzNm9xRDLGMSLsBPBulqa0l2QympQDzO7HJz8GvSim0rK4pY3LQGrXUZtFaW6t8WdKWrjMCdGAdf51pn5ZIiFVAUsYxJ+BB+fhXvb7th0mRPYJPb5jC+H4W2+mdMDZIdvukg29qkxRGLkmNtixsiGZWxzoJgkz2BbFvL17C41+pH6P//9hnsKfMUSSxzHiHPyLipbV/xlkddLIDD4oI6dwbbkrNIYhmTkPu1voT3l20jl23nNizd/3ADI8PcSmhXscQyJuG3DLkGSwC7qoxt/oCAVNdgzeoHVTFMlb9oYg3Zt0WHRuMfzrFaSi5enPEVrFkVc3d10cTqeAkx2C7G78WA3vgvQNgG8pb7S+CwKOrKp+KJZUzC74BcPCej0fcao43cJbs07LjNuzSQ6lqsWV3FsLa8JR0uXSOIxYVj2N//joF3VUnge8j6OAbZB5GvLZEnDF/7Fzgssguy7dd3jSAWGwn7+1EMus/i13W8Rg1a+2F0P2Pjivp69xuEo/z9SWirT11w0uVFmYCdtjSGWGa+NR9a6+Mjb4ls0NoPCcUTiJ73HKylZONC8A0leQFHAtsoYpn51rfxk4fQJL+6JeaoNd5AxsYx2qTppuBtWAj+CKwQp/13MfF3LbtxxBoSqHs5BmNjjqo2oVokFLVVY9rVZcDeBxPwAnPcuOt4ziZ944hlTMI1e7fw+7xskK4oiNFYNAVfwMDreiF6xSpyyM7oin+Ba734Gz4bSSxDLjoxLsGAbMTisdFYg0Zjjc2BBYFl+CNI9XV8EL8Bq6P2k2yrtq2xxDLzLYY8MQq+CabTagw63h/GeVYTnRfz0a5/hQlY7LxqKBkbTSx8+Z7BYLwUWov7t4oejGgD13K4AM47n5q2EM551QfgWie5GvE0mljGJHwC5PoHXg1Uco/BFNwY8q+Y9sI+DN16ouS2jJD91yDVhU2YV7VGY3UaCvPiQZDrE/j3PaUOSHwYSKin8NIz2AhzCe1giNb16Jtrct5m7zNmGq+xhpDrbgzOj5b6tYfG2gKy84xymrf0mg36dHhGebgedwvWqz6ED1+WJy1Vwao1xCJIWMm/BuS6EG/W5yV061DITC8n51d0xDyDt/QF8J/DBDwvl2t3qpCoW95WEQsr+fzaXwEgeB1raV/JNWRCG/ilp+YqOV7wQZDqY3BW3BZ6QOdSXquIRdDxhfwtyPUZ/PqdXDrBUo5lcFx0lg3oFSx1rYeXGFwM6+EGy3YXmax1xDLkWgJy/T20FuMKS3mehLYaSiyahaU9a260B/bfRFuatmQwrC9aSSxDrofQwZ8EuW4rYLv7CrM4vKbzoLl+i69+idspboKz4n20Gkr7IrjK21piGXL9HD8vwTngWTszQPxfQs61LnZ87WkGZjlH7LFF5w6Q6r253WPlShjb9K0mFkHCwuRV+Pp/DoM35y3vXLvims/QZ9C2k1OmG2VT6QN0VoBUxa4jumLYemJxmwnIdRmA4+m6XICt7eljko70Ai6vTVC3ih8BqT4MjHmZRWue1hOLPQ1yLccc5tP49ZphKmHpSCURd1z0OB6b0ezDjtOGvHfh/2r9EFigwe31F4NU3wbGRcdqWrR1WBIRy8Bh7t86H1qDdx6veTLa0s9BOXLXMB0AOWstXrVzKdzqV5Z2wpIribqlF7GGoGJiCj+E/1oQAtyAZdBRMVJ90jNIrZXjsxqyfQ1aldeYZulkiQ2aiDUCYZBrwUGbH3saNNePY4NvU76Zd90HuYatW+HfJFqOO4mpXW/gUgZkbFIUvk13rU0jYnWBCwPiDgyM92FQ164ROO+CLN8bpVdzXCb4Edzq7wKGXCJo7SNijdL1GBiMY6MbfmGdowP186vf9fhsEO4O/I1xg7k8XAA+u/SDYEKAKWL1QBHerP+HwfteDG4uJNf10M0+WiQ751m57M36GUh1DkhV64eork4aWa+I1aMn4M16AQPlhzQLsfBZ14BhfOBod+1SW+XgGVwAgp8PrGo3nUWsXBCwkAMD5r/5NR5qFiaMLyR5ui6oMWYQf7vfogkxk9wNbM7EFpBWLQD3A1Qaqx9C5u8kF369FO+j/K8Udx0b8i4FgbpqJbiyqckWWzYhRrJ7oKk+Dmx+EqPwkssUsRx6D1/lz8AV/w5kedIhm3dSQ15uFxl1UyPM1OtQQR0OjIXQVO8AJt/wbmCDM4pYjp27z24Hcnv/BTQLY5uDKJ+E6hccTI9h6mtuqKk+AU011xG+1iQXsRy7mg4Nai5oijOR9aeO2V2TL0M9PXfawkxk5PjaMCzXCjzS/xSa6q+Awdc88rYmi4jl2dX8WmPQ/y2ye0U/WGo7Oi16hgTBTHzebIJMEZB7O0j115pT9R80IlZ/jEZNgQF2E+Zcp4MkzpN3S+cHw4NszrZgBEZsc/BWkOp0tPnOCpC1JquIVbGrMdB+DI3xN9zi71JUP41l/k5i9d1uAXNwMcxBnuse6+H5f2cyjjJWBU0rV8QK0KM0jUCud4IM1pP5fhpryH1Yoy0Or5WcW/VR/3fxH0sCNGdoEc/zBhCQ6lS08e7AZTe6OBErUPfSRDLkutGmSEuNRbe+lSsdWutOkCDkqVPcT/WvnEeibV7zSBscmppGxArYszSVMBDPAmn6mmX9NBbEegFlfQtlWsUCQmutRHoSK4TWYgziP6G8j6D+EOUFRLmMokSswP3EIFQMSIY//QeK7mvGdaveaDNGWzziIh601jwQ4lqXPF3SLmE0BXb+/nOb91NVxHCMiFUVwS75MSAfxsD8AAjyOfyZR0P7PNzYuMwlozkEkx5K3w2GC0Gq9yOq/1KU1fiz/1ywdU0rYrkiZpkeA/NXGKDngVyfQhYfVzhPinWOXAehvwNy8KI96wfpGeExF06KOVz4xSJ46RcuWLc9VkIRKxayKBcD9Hcg18ew1jUHBHM9ufZBmHbO8xsQmqfmMn5vvmXTnsWBpT82nr/GXIZu2fZoyUSsaND+qWAe+wXTkGdAnA1yXYu377oUsv0B6a8GSaw8gl2asAhE+biFKcnjyT6NtG+HjA9EhqJVxYtYibobA3ceF5JR3bCzC0epnqaYsxnYKQt1PQVtdztIc2Pn//D7yKrm895fmI4XIf2arTB6wiEgYoXDsm9JGMD3glzvgdb6IhL3cmrwgM6qDwN4vwjyrDlWAOZepzx6Kq+nlsJ86kvQik4OkqpCtSW/iJW4p0GuhzDvIrk+iapH0xQT8Lftbpp7/bgK4j0HrbUAGulckOsWowFp+n3OxPzNr1C2svZBIMSXUSB7IvCVmy+avejRuy7AYvGhnSI6ERnQNp8HMT4CjfIbl+JBxolIvxHeDfGuj3dTvJMXj503A3WN4wE5mPf5zt1cRGl1WhGr5u4HufbAgKdL/tUdUUCqP4JU3O9E7x6jybl9hEdMs7+oxWhpdF6ShyTaCu90vFPxDuClqcmoDUa+84y/J1xJWjM0RVcvYmXQfSDXriDXhyHK8XgngFjPglid8wS5z4qeRF6KQDKNNwTr/JukooaiZiKh+DufFXgfxsvA4K+CVAqiTdjX/NrpqRkBOjUWLJt7xpXXXbYapNoDpJoCkbbDS+3j+9AkJNlI0JEXKviWqXyWCMh5YQlU7GSY96yAo+H9IBVPgmI4EzVT1YfkWj1p9w0Gqxak/G4IiFhueEVNDXONB8fw1sNQF3ORUD8EabseUR21MS0vXMTKbwCQBDz9NsQzd+9Zu14RoiCV4YaAiOWGV/TUxmzzjU4fKt8KlPX5gfW2C6X9ore9SRWIWJn1Jsw2nsq0OIBY9+44sJNr4G+AalUEERCx8hwHnGsNu3PYQ8xboK249URPDQiIWDWAblElA/uqxPAxgLfnQZ8WMihJBQRErArgxcoKhwO31z9Yofw7UMaNFfIra0UERKyKAMbIbhwOTuddjJDjAZSheMAYnWNZpohlCVQNyaoQi+FMempEQMSqEfxeVcNVzosOfA50YVyhT75MkShTLBEr335jRDoj010frl/d6ppJ6cMiIGKFxTNYaViD4iKxz73H3C6S5GK8YI1tYEEiVqadCucDTTofgjAcStEWNferiFVzB/Spnuaga9zgILRdiruy8kauZulErJo7oI8D48f4u9PWfKRntIX2X9XcryJWzR3Qq3ponvvxd9eAXLraq4ZDZYxKGaKJWHn3E88XdD3z76mNxkySxqq5X0WsmjugV/VwYJAgrjGDKzdYb6LNabsZt7x80USs/PvQNULd5s7i/FtduIQiVv4dyCgKF9POJW3+rS9UQhEr845DFMUdEHHQQUyZgQ5gxUoqYsVCNly5DGtyWZcSscJh712SiOUNXZqMcLkvQU0ua1le17OmaU17ahGx8u9rutx5DobtI41li1TEdCJWRHADFU1nBA/wtH1ELFukIqYTsSKCG6JoE4zrckG4iBUC+IpliFgVAUyU3SVaXRdzJ+qUXtWIWBl0goUItl5BntPOo9P01IyAiFVzB9hUD7LwNnsbcq2//J5VvKVET80IiFg1d4Bl9VzLst2XpTmWJagxk4lYMdENVzbjBW3mTs/JFAwHepWSRKwq6CXKaxaJbYJxx8MUnJxILFXTAwERq4zhwY2LtlHrvDpVT80IiFg1d4Bl9SSWbaiSrr+1BDVmMhErJrrhynbRWLqwPRzu3iWJWN7QpcuIrfZ0XNiagiJWuq4ZtSYRK4NOsBTBdgOjiGUJaMxkIlZMdAOV/cyY5Zw32a5PiViBcK9SjIhVBb1Eec2pS7bOCxErUb/0qkbEyqATLEWwPStQfWoJaMxk6oSY6IYrm6SSKRgOz+gliVjRIQ5WgZwXwaCMX5CIFR/jEDVQY9kSy9ZkDCGXyhgFARGrjKFBM1CmYBl9tUZKEauAzsKR0S4aa1wBTWq8iCJWOV28ylLU8ZbplCwiAiJWRHADF/20ZXkKwrUEKmYyESsmumHLfhDF2WzPl8YKi7tXaSKWF2zpM2Fn8JWo9TK8d+Fd0UMC9Wn67lmnRoW/ZNAJLiIMPv/YxksGHzoMO4VPRL598U7Fu9mQMr6096xdT8V5hHK7uwAbOK3s8cCAxi4OhOFc61q+INlEkOwgkOw0/HsvvJvgdTnnPba4rS1fxCq460EyHuT5I76rnl857ie33HoGfn9Y2qrgTpXoQkAICAEhIASEgBAQAqUj8L8DuBsUobtgjQAAAABJRU5ErkJggg==;spacing=-4;fontSize=7;" parent="1" vertex="1">
          <mxGeometry x="215.63" y="322.41" width="15.37" height="31.59" as="geometry" />
        </mxCell>
        <mxCell id="cOKGsZkPMvi9IJtjG2mv-1" style="edgeStyle=elbowEdgeStyle;rounded=0;orthogonalLoop=1;jettySize=auto;elbow=vertical;html=1;dashed=1;endArrow=classic;endFill=1;fontSize=10;fillColor=#dae8fc;strokeColor=#007FFF;exitX=1;exitY=0.5;exitDx=0;exitDy=0;entryX=0;entryY=0.5;entryDx=0;entryDy=0;" edge="1" parent="1" source="5OfcqYkC_HGEx2gyaxZB-7" target="5OfcqYkC_HGEx2gyaxZB-10">
          <mxGeometry relative="1" as="geometry">
            <Array as="points">
              <mxPoint x="260" y="320" />
            </Array>
            <mxPoint x="225" y="360" as="sourcePoint" />
            <mxPoint x="275" y="430" as="targetPoint" />
          </mxGeometry>
        </mxCell>
      </root>
    </mxGraphModel>
  </diagram>
</mxfile>
